<svg width="36" height="36" viewBox="0 0 36 36" fill="none" xmlns="http://www.w3.org/2000/svg">
<path d="M18 0C8.05888 0 0 8.05888 0 18C0 27.9411 8.05888 36 18 36C27.9411 36 36 27.9411 36 18C36 8.05888 27.9411 0 18 0ZM29.9291 29.9291C26.7427 33.1155 22.5063 34.8703 18 34.8703C13.4937 34.8703 9.25727 33.1155 6.0709 29.9291C2.88452 26.7427 1.12971 22.5063 1.12971 18C1.12971 13.4937 2.88452 9.25727 6.0709 6.0709C9.25727 2.88452 13.4937 1.12971 18 1.12971C22.5063 1.12971 26.7427 2.88452 29.9291 6.0709C33.1155 9.25727 34.8703 13.4937 34.8703 18C34.8703 22.5063 33.1155 26.7427 29.9291 29.9291Z" fill="white"/>
<path d="M18.4362 9.7207C13.3623 9.7207 10.8037 13.3583 10.8037 16.3923C10.8037 18.229 11.4991 19.8629 12.9904 20.4713C13.235 20.5721 13.4542 20.4751 13.5252 20.2042C13.5745 20.0175 13.6914 19.5447 13.7433 19.3472C13.8146 19.0794 13.787 18.986 13.5894 18.7519C13.1595 18.2451 12.8843 17.5885 12.8843 16.6579C12.8843 13.9592 14.9036 11.5432 18.1424 11.5432C21.0102 11.5432 22.5859 13.2955 22.5859 15.6353C22.5859 18.7149 21.2231 21.3139 19.2004 21.3139C18.0829 21.3139 17.2471 20.3903 17.5145 19.2569C17.8354 17.9038 18.4572 16.4443 18.4572 15.4669C18.4572 14.593 17.9877 13.864 17.0171 13.864C15.875 13.864 14.9574 15.0457 14.9574 16.628C14.9574 17.636 15.298 18.318 15.298 18.318C15.298 18.318 14.1294 23.2702 13.9243 24.1374C13.5165 25.8647 13.8631 27.9814 13.8926 28.1951C13.9098 28.3221 14.0726 28.3527 14.1466 28.2571C14.2515 28.1193 15.6124 26.4401 16.0744 24.7618C16.2055 24.2871 16.8254 21.8267 16.8254 21.8267C17.1966 22.5348 18.2812 23.157 19.4344 23.157C22.8669 23.157 25.1963 20.0277 25.1963 15.8389C25.1967 12.6707 22.5137 9.7207 18.4362 9.7207Z" fill="white"/>
</svg>
