<svg width="36" height="36" viewBox="0 0 36 36" fill="none" xmlns="http://www.w3.org/2000/svg">
<path d="M25.6067 15.0377C25.6067 15.0377 23.9769 14.7451 22.8068 14.7451C20.1324 14.7451 19.5055 16.2077 19.5055 18.3807V27.5742H12.2761V8.85294H19.5055V11.9871C20.3831 9.35441 22.1382 8.43506 25.6067 8.43506V15.0377Z" fill="white"/>
<path d="M18 0C8.05888 0 0 8.05888 0 18C0 27.9411 8.05888 36 18 36C27.9411 36 36 27.9411 36 18C36 8.05888 27.9411 0 18 0ZM29.9291 29.9291C26.7427 33.1155 22.5063 34.8703 18 34.8703C13.4937 34.8703 9.25727 33.1155 6.0709 29.9291C2.88452 26.7427 1.12971 22.5063 1.12971 18C1.12971 13.4937 2.88452 9.25727 6.0709 6.0709C9.25727 2.88452 13.4937 1.12971 18 1.12971C22.5063 1.12971 26.7427 2.88452 29.9291 6.0709C33.1155 9.25727 34.8703 13.4937 34.8703 18C34.8703 22.5063 33.1155 26.7427 29.9291 29.9291Z" fill="white"/>
</svg>
