<svg width="36" height="37" viewBox="0 0 36 37" fill="none" xmlns="http://www.w3.org/2000/svg">
<path d="M18 0.152344C8.05888 0.152344 0 8.21122 0 18.1523C0 28.0935 8.05888 36.1523 18 36.1523C27.9411 36.1523 36 28.0935 36 18.1523C36 8.21122 27.9411 0.152344 18 0.152344ZM29.9291 30.0814C26.7427 33.2678 22.5063 35.0226 18 35.0226C13.4937 35.0226 9.25727 33.2678 6.0709 30.0814C2.88452 26.8951 1.12971 22.6586 1.12971 18.1523C1.12971 13.6461 2.88452 9.40962 6.0709 6.22324C9.25727 3.03686 13.4937 1.28205 18 1.28205C22.5063 1.28205 26.7427 3.03686 29.9291 6.22324C33.1155 9.40962 34.8703 13.6461 34.8703 18.1523C34.8703 22.6586 33.1155 26.8951 29.9291 30.0814Z" fill="white"/>
<path fill-rule="evenodd" clip-rule="evenodd" d="M11.7763 9.64209H24.4297C25.6317 9.64209 26.5857 10.5919 26.5857 11.7939V24.4475C26.5857 25.6493 25.6318 26.6631 24.4297 26.6631H11.7763C10.5746 26.6631 9.56482 25.6494 9.56482 24.4475V11.7939C9.56482 10.5919 10.5746 9.64209 11.7763 9.64209ZM21.9922 11.5249C21.5704 11.5249 21.2385 11.845 21.2385 12.2666V14.101C21.2385 14.5226 21.5704 14.8387 21.9922 14.8387H23.9163C24.3381 14.8387 24.7029 14.5226 24.7029 14.101V12.2666C24.7029 11.845 24.3381 11.5249 23.9163 11.5249H21.9922ZM24.7029 16.7969H23.1926C23.3341 17.2488 23.4107 17.7555 23.4107 18.2632C23.4107 21.0947 21.0415 23.3926 18.1193 23.3926C15.1969 23.3926 12.8279 21.0933 12.8279 18.2618C12.8279 17.7541 12.9044 17.2488 13.0462 16.7969H11.4477V23.9989C11.4477 24.3713 11.7873 24.7049 12.1595 24.7049H24.014C24.3864 24.7049 24.7029 24.3713 24.7029 23.9989V16.7969V16.7969ZM18.1193 14.771C16.2311 14.771 14.7003 16.2541 14.7003 18.0838C14.7003 19.9135 16.2311 21.3966 18.1193 21.3966C20.0076 21.3966 21.5382 19.9135 21.5382 18.0838C21.5382 16.2541 20.0076 14.771 18.1193 14.771Z" fill="white"/>
</svg>
