<svg width="64" height="65" viewBox="0 0 64 65" fill="none" xmlns="http://www.w3.org/2000/svg">
<path d="M32 0.0234375C14.3269 0.0234375 0 14.3503 0 32.0234C0 49.6965 14.3269 64.0234 32 64.0234C49.6731 64.0234 64 49.6965 64 32.0234C64 14.3503 49.6731 0.0234375 32 0.0234375ZM53.2073 53.2307C47.5426 58.8954 40.0111 62.0151 32 62.0151C23.9889 62.0151 16.4574 58.8954 10.7927 53.2307C5.12803 47.5661 2.00837 40.0345 2.00837 32.0234C2.00837 24.0123 5.12803 16.4808 10.7927 10.8161C16.4574 5.15147 23.9889 2.03181 32 2.03181C40.0111 2.03181 47.5426 5.15147 53.2073 10.8161C58.872 16.4808 61.9916 24.0123 61.9916 32.0234C61.9916 40.0345 58.872 47.5661 53.2073 53.2307Z" fill="#2A527A"/>
<path fill-rule="evenodd" clip-rule="evenodd" d="M20.9357 16.8937H43.4305C45.5676 16.8937 47.2636 18.5823 47.2636 20.7191V43.2144C47.2636 45.3509 45.5677 47.1532 43.4305 47.1532H20.9357C18.7992 47.1532 17.0042 45.3511 17.0042 43.2144V20.7191C17.0042 18.5823 18.7992 16.8937 20.9357 16.8937ZM39.0973 20.241C38.3475 20.241 37.7573 20.81 37.7573 21.5594V24.8207C37.7573 25.5701 38.3475 26.1322 39.0973 26.1322H42.5179C43.2677 26.1322 43.9163 25.5701 43.9163 24.8207V21.5594C43.9163 20.81 43.2677 20.241 42.5179 20.241H39.0973ZM43.9163 29.6133H41.2314C41.483 30.4167 41.6191 31.3175 41.6191 32.2201C41.6191 37.2538 37.4072 41.339 32.2121 41.339C27.0167 41.339 22.8053 37.2513 22.8053 32.2175C22.8053 31.315 22.9412 30.4167 23.1933 29.6133H20.3514V42.417C20.3514 43.0789 20.9553 43.6719 21.6168 43.6719H42.6916C43.3537 43.6719 43.9163 43.0789 43.9163 42.417V29.6133V29.6133ZM32.2121 26.0117C28.8553 26.0117 26.1339 28.6484 26.1339 31.9011C26.1339 35.1539 28.8553 37.7906 32.2121 37.7906C35.5691 37.7906 38.2902 35.1539 38.2902 31.9011C38.2902 28.6484 35.5691 26.0117 32.2121 26.0117Z" fill="#2A527A"/>
</svg>
