<svg width="64" height="64" viewBox="0 0 64 64" fill="none" xmlns="http://www.w3.org/2000/svg">
<path d="M35.2134 27.1798V23.5651C35.2134 21.9333 35.6078 21.1547 38.1408 21.1547H41.2385V15.1296H36.0158C29.5174 15.1296 27.4477 18.0154 27.4477 23.1288V27.1798H23.0293V33.3388H27.4477V51.548H35.2134V33.3388H40.598L41.319 27.1798H35.2134Z" fill="#344C8A"/>
<path d="M32 0C14.3269 0 0 14.3269 0 32C0 49.6731 14.3269 64 32 64C49.6731 64 64 49.6731 64 32C64 14.3269 49.6731 0 32 0ZM53.2073 53.2073C47.5426 58.872 40.0111 61.9916 32 61.9916C23.9889 61.9916 16.4574 58.872 10.7927 53.2073C5.12803 47.5426 2.00837 40.0111 2.00837 32C2.00837 23.9889 5.12803 16.4574 10.7927 10.7927C16.4574 5.12803 23.9889 2.00837 32 2.00837C40.0111 2.00837 47.5426 5.12803 53.2073 10.7927C58.872 16.4574 61.9916 23.9889 61.9916 32C61.9916 40.0111 58.872 47.5426 53.2073 53.2073Z" fill="#344C8A"/>
</svg>
