<svg width="64" height="65" viewBox="0 0 64 65" fill="none" xmlns="http://www.w3.org/2000/svg">
<path d="M48.0669 42.9782V38.282C48.0669 35.0556 45.5052 32.3973 42.2808 32.3973H21.9888C18.7623 32.3973 16.2008 35.0556 16.2008 38.282V42.9782C16.2008 46.2026 18.7624 48.8658 21.9888 48.8658H42.2808C45.5052 48.8658 48.0669 46.2025 48.0669 42.9782ZM26.2426 36.1462H24.3682V45.5185H22.4937V36.1462H20.6192V34.5395H26.2426V36.1462ZM31.5983 45.5185H29.9916V44.5824C29.7238 44.9093 29.3685 45.157 29.0458 45.3326C28.723 45.5061 28.4019 45.5887 28.0982 45.5887C27.7236 45.5887 27.4169 45.4691 27.2242 45.2289C27.0358 44.9834 26.9121 44.6279 26.9121 44.1443V37.3512H28.5188V43.5855C28.5188 43.7761 28.5845 43.9147 28.6501 43.9993C28.72 44.086 28.8439 44.1273 28.9973 44.1273C29.1137 44.1273 29.2735 44.0631 29.4555 43.9499C29.6375 43.8345 29.8122 43.6439 29.9635 43.51H29.9917V37.351H31.5984V45.5185H31.5983ZM37.4895 43.7994C37.4895 44.3719 37.3424 44.81 37.0884 45.1179C36.8387 45.4237 36.4587 45.575 35.9815 45.575C35.663 45.575 35.3625 45.5168 35.117 45.3994C34.8694 45.2809 34.6779 45.0988 34.4101 44.8491V45.5185H32.8034V34.5395H34.4101V38.0354C34.6779 37.7898 34.8719 37.5994 35.1143 37.4713C35.3598 37.3433 35.6145 37.2787 35.8663 37.2787C36.3785 37.2787 36.7911 37.4523 37.06 37.7973C37.333 38.1402 37.4896 38.645 37.4896 39.3084V43.7994H37.4895ZM38.9212 45.0247C38.5053 44.5824 38.2929 43.9708 38.2929 43.1899V39.5518C38.2929 38.8556 38.5254 38.2809 38.9825 37.8407C39.4418 37.3963 40.029 37.1773 40.7548 37.1773C41.4945 37.1773 42.092 37.3814 42.491 37.7899C42.8889 38.2015 43.1128 38.7878 43.1128 39.5529V41.6357H40.0333V43.1422C40.0333 43.5698 40.0511 43.8639 40.157 44.0311C40.2649 44.1941 40.4306 44.2746 40.6887 44.2746C40.9574 44.2746 41.1263 44.2047 41.231 44.0661C41.3357 43.9275 41.3722 43.6196 41.3722 43.1422V42.8407H43.1128V43.1898C43.1128 44.0204 42.8856 44.6448 42.4761 45.066C42.073 45.484 41.4531 45.6925 40.6468 45.6925C39.922 45.6925 39.3371 45.4691 38.9212 45.0247Z" fill="#B30017"/>
<path d="M41.3723 39.5418C41.3723 39.2022 41.3249 38.9568 41.2138 38.8161C41.1038 38.6649 40.925 38.5929 40.6817 38.5929C40.4236 38.5929 40.2087 38.6648 40.0954 38.8161C39.9821 38.9568 39.8995 39.2033 39.8995 39.5418V40.2961H41.3723V39.5418V39.5418Z" fill="#B30017"/>
<path d="M35.1093 38.5635C34.9941 38.5635 34.8655 38.5878 34.7544 38.6439C34.6433 38.6947 34.5439 38.7784 34.41 38.8915V43.9328C34.5439 44.064 34.6804 44.1624 34.8042 44.2185C34.9301 44.2746 35.0642 44.3053 35.2008 44.3053C35.3987 44.3053 35.5294 44.2492 35.6225 44.1339C35.7156 44.0206 35.7491 43.8365 35.7491 43.5762V39.3963C35.7491 39.1211 35.7102 38.9148 35.597 38.7719C35.4783 38.6332 35.3264 38.5635 35.1093 38.5635Z" fill="#B30017"/>
<path d="M26.6444 29.5855V24.6175L29.0809 17.5353H26.9973L25.7307 22.3554H25.6004L24.2693 17.5353H22.2037L24.636 24.8407V29.5855H26.6444Z" fill="#B30017"/>
<path d="M36.0167 20.7487V28.1634C36.0167 28.6988 36.1123 29.0957 36.3228 29.3581C36.5376 29.6248 36.8478 29.7591 37.269 29.7591C37.6119 29.7591 37.9588 29.6618 38.3207 29.4734C38.6858 29.285 39.0962 29.0068 39.364 28.6449V29.5855H41.2385V20.7487H39.364V27.4798C39.2301 27.6766 39.0076 27.8354 38.8055 27.9634C38.5992 28.0872 38.4305 28.1518 38.2982 28.1518C38.1268 28.1518 37.9754 28.1021 37.9014 28.0068C37.8252 27.9137 37.7574 27.7623 37.7574 27.5497V20.7487H36.0167Z" fill="#B30017"/>
<path d="M29.1882 22.7571V27.373C29.1882 28.1296 29.4488 28.7328 29.9261 29.1836C30.4044 29.628 31.0527 29.8513 31.8484 29.8513C32.6758 29.8513 33.3442 29.6344 33.8194 29.2026C34.2881 28.7708 34.5439 28.1741 34.5439 27.409V22.8058C34.5439 22.1243 34.2891 21.5656 33.8098 21.1359C33.3261 20.7063 32.703 20.4894 31.9485 20.4894C31.122 20.4894 30.4591 20.6978 29.9671 21.1031C29.4772 21.5169 29.2301 22.0876 29.2301 22.7571H29.1882V22.7571ZM31.0627 22.6873C31.0627 22.4937 31.1511 22.3339 31.2898 22.2164C31.4305 22.0947 31.6208 22.0345 31.842 22.0345C32.0843 22.0345 32.2874 22.0949 32.4367 22.2164C32.5859 22.3339 32.6695 22.4927 32.6695 22.6873V27.5445C32.6695 27.7815 32.5911 27.9699 32.4462 28.1086C32.3012 28.243 32.1022 28.3086 31.8547 28.3086C31.6155 28.3086 31.4075 28.243 31.2795 28.1086C31.1493 27.9763 31.063 27.7879 31.063 27.5445V22.6873H31.0627Z" fill="#B30017"/>
<path d="M32 0.531128C14.3269 0.531128 0 14.858 0 32.5311C0 50.2042 14.3269 64.5311 32 64.5311C49.6731 64.5311 64 50.2042 64 32.5311C64 14.858 49.6731 0.531128 32 0.531128ZM53.2073 53.7384C47.5426 59.4031 40.0111 62.5228 32 62.5228C23.9889 62.5228 16.4574 59.4031 10.7927 53.7384C5.12803 48.0738 2.00837 40.5422 2.00837 32.5311C2.00837 24.52 5.12803 16.9885 10.7927 11.3238C16.4574 5.65916 23.9889 2.5395 32 2.5395C40.0111 2.5395 47.5426 5.65916 53.2073 11.3238C58.872 16.9885 61.9916 24.52 61.9916 32.5311C61.9916 40.5422 58.872 48.0738 53.2073 53.7384Z" fill="#B30017"/>
</svg>
