<svg width="200" height="200" viewBox="0 0 200 200" fill="none" xmlns="http://www.w3.org/2000/svg">
<path d="M32.2969 60.4374C32.5 62.8436 31.3907 65.1874 29.4063 66.578C28.9219 66.9061 28.3907 67.1874 27.8125 67.3905C24.2813 68.6561 20.3907 66.8124 19.125 63.2811C17.8438 59.7499 19.686 55.8592 23.2188 54.5936C26.75 53.3124 30.6563 55.1561 31.9204 58.6874C32.125 59.2655 32.25 59.8592 32.2969 60.4374Z" fill="white"/>
<path d="M60.297 14.2499C63.9533 15.0937 66.2345 18.7655 65.3751 22.4218C65.2345 23.0155 65.0173 23.5624 64.7345 24.078C63.6095 26.2187 61.3908 27.5937 58.9704 27.6562C58.3923 27.6874 57.7986 27.6249 57.2048 27.4843C53.547 26.6249 51.2658 22.9687 52.1267 19.3124C52.9845 15.6562 56.6408 13.3905 60.297 14.2499Z" fill="white"/>
<path d="M95.5625 51.9375C99.6875 50.8438 104.016 50.25 108.484 50.25C104.673 53.8906 101.172 57.7969 97.9703 61.9688C97 58.6875 96.1875 55.3438 95.5625 51.9375Z" fill="white"/>
<path d="M95.5625 51.9375C96.1859 55.3437 97 58.6875 97.9687 61.9687C94.6234 66.3437 91.6406 71 89.0469 75.875C87.4375 70.1094 86.3438 64.1406 85.7813 58C85.7188 57.25 85.6562 56.5 85.6094 55.75C88.75 54.1406 92.0781 52.8594 95.5625 51.9375Z" fill="white"/>
<path d="M154.078 79.4531C143.141 87.7344 130.42 93.8125 116.609 97.0312C112.798 97.9219 108.892 98.5938 104.906 99.0313C106.361 95.2031 108.031 91.4844 109.906 87.8906C110.969 85.9062 112.063 83.9531 113.234 82.0469C124.828 78.5937 135.533 73.0781 144.922 65.9531C148.672 69.9062 151.781 74.4531 154.078 79.4531Z" fill="white"/>
<path d="M134.484 57.4998C138.328 59.8435 141.859 62.6873 144.922 65.9529C135.531 73.0779 124.828 78.5935 113.234 82.0466C118.953 72.7498 126.141 64.4529 134.484 57.4998Z" fill="white"/>
<path d="M158.312 94.4685C149.311 100.89 139.187 105.875 128.312 109.047C126.422 109.593 124.516 110.093 122.578 110.531H122.562C117.937 111.593 113.187 112.312 108.342 112.703H108.327C105.842 112.906 103.327 113.015 100.795 113.015C101.344 110.422 102.014 107.859 102.781 105.328C103.422 103.203 104.141 101.094 104.905 99.031C108.891 98.5935 112.797 97.9216 116.608 97.031C130.42 93.8123 143.139 87.7341 154.077 79.4529C156.234 84.1248 157.687 89.156 158.312 94.4685Z" fill="white"/>
<path d="M158.313 94.4688C158.563 96.4219 158.67 98.4219 158.67 100.453C158.67 106.813 157.483 112.891 155.327 118.484C154.53 120.594 153.577 122.625 152.497 124.594C143.672 120.578 135.531 115.313 128.313 109.047C139.188 105.875 149.313 100.891 158.313 94.4688Z" fill="white"/>
<path d="M152.5 124.594C152.5 124.594 152.484 124.594 152.484 124.625H152.469C152.11 125.297 151.719 125.953 151.328 126.594C148.563 131.125 145.095 135.172 141.078 138.609C128.406 132.344 117.266 123.484 108.344 112.703C113.189 112.312 117.939 111.594 122.564 110.531H122.58C124.517 110.094 126.424 109.594 128.314 109.047C135.531 115.313 143.672 120.578 152.5 124.594Z" fill="white"/>
<path d="M108.344 112.703C117.266 123.484 128.406 132.344 141.078 138.609C139.938 139.594 138.75 140.515 137.516 141.39C136.328 142.234 135.11 143.031 133.844 143.765C133.203 144.14 132.563 144.5 131.891 144.844L130.281 145.672C128.797 146.39 127.281 147.015 125.735 147.594C115.578 142.156 106.484 135.031 98.8126 126.562C99.1564 121.953 99.8267 117.437 100.797 113.015C103.328 113.015 105.844 112.906 108.328 112.703H108.344Z" fill="white"/>
<path d="M98.8126 126.562C106.484 135.031 115.577 142.156 125.733 147.594C120.359 149.562 114.545 150.641 108.483 150.641C105.499 150.641 102.578 150.375 99.7329 149.875C98.936 144.797 98.5142 139.594 98.5142 134.281C98.5157 131.688 98.6251 129.109 98.8126 126.562Z" fill="white"/>
<path d="M134.484 57.5C126.141 64.4531 118.953 72.75 113.233 82.0469C112.061 83.9531 110.967 85.9062 109.905 87.8906C108.03 91.4844 106.358 95.2031 104.905 99.0312C104.141 101.094 103.422 103.203 102.781 105.328C102.016 107.859 101.344 110.422 100.795 113.016C99.8266 117.437 99.1548 121.953 98.811 126.562C98.6235 129.109 98.5141 131.687 98.5141 134.281C98.5141 139.594 98.9376 144.797 99.7329 149.875C96.2485 149.266 92.8891 148.297 89.7016 147.016C88.5766 141 87.9813 134.797 87.9813 128.469C87.9813 121.984 88.5923 115.641 89.7782 109.5C90.9657 103.344 92.7157 97.4062 94.9657 91.7187C95.4344 90.5 95.9501 89.2969 96.4813 88.1094V88.0937C96.8876 87.1875 97.2938 86.2812 97.7313 85.375C99.3407 82 101.139 78.7344 103.106 75.5781C108.542 66.875 115.294 59.0625 123.073 52.4062C127.109 53.6406 130.938 55.3594 134.484 57.5Z" fill="white"/>
<path d="M108.484 50.25C113.562 50.25 118.47 51 123.078 52.4063C115.298 59.0625 108.547 66.875 103.111 75.5781C101.142 78.7344 99.3452 82 97.7359 85.375C97.2984 86.2812 96.8921 87.1875 96.4859 88.0937V88.1094C95.9546 89.2969 95.439 90.5 94.9702 91.7187C92.7202 97.4062 90.9687 103.344 89.7827 109.5C88.5952 115.641 87.9859 121.984 87.9859 128.469C87.9859 134.797 88.5812 141 89.7062 147.016C85.9406 145.484 82.4093 143.531 79.1749 141.187C78.0984 135.437 77.5031 129.5 77.4718 123.453C77.4562 123.187 77.4562 122.922 77.4562 122.656C77.4562 118.562 77.7062 114.531 78.1749 110.562C78.6593 106.547 79.3781 102.578 80.3468 98.7187C80.4093 98.4219 80.4874 98.1094 80.5656 97.8125C81.5812 93.8437 82.8312 89.9844 84.3015 86.2344C85.6765 82.7344 87.239 79.3125 88.989 76.0156V76C89.0046 75.9531 89.0359 75.9219 89.0515 75.875C91.6452 71 94.6281 66.3437 97.9734 61.9687C101.172 57.7969 104.672 53.8906 108.484 50.25Z" fill="white"/>
<path d="M61.3906 117.828C66.5313 120.141 71.8906 122.031 77.4531 123.453H77.4688C77.5 129.5 78.0938 135.437 79.1719 141.188C71.125 135.391 64.8594 127.281 61.375 117.828H61.3906V117.828Z" fill="white"/>
<path d="M78.1719 110.563C77.7031 114.531 77.4531 118.563 77.4531 122.656C77.4531 122.922 77.4531 123.188 77.4688 123.453H77.4531C71.8891 122.031 66.5313 120.141 61.3906 117.828H61.375C59.75 113.422 58.7344 108.734 58.4062 103.859C64.6719 106.734 71.2812 109.016 78.1719 110.563Z" fill="white"/>
<path d="M58.7969 93.3125C65.6563 95.875 72.8594 97.7187 80.3438 98.7187C79.375 102.578 78.6563 106.547 78.1719 110.563C71.2812 109.016 64.6703 106.734 58.4062 103.859C58.3281 102.734 58.2969 101.594 58.2969 100.453C58.2969 98.0156 58.4531 95.6406 58.7969 93.3125Z" fill="white"/>
<path d="M77.4687 89.2498C78.3593 92.156 79.389 95.0154 80.5609 97.8123C80.4828 98.1091 80.4047 98.4216 80.3422 98.7185C72.8578 97.7185 65.6547 95.8748 58.7953 93.3123C59.139 90.8123 59.6859 88.3748 60.3906 86.0154C60.6562 85.1716 60.9375 84.3279 61.2343 83.4841C61.4203 82.9529 61.625 82.406 61.8437 81.8748L67.0625 84.3435L68.2672 84.906H68.2828L68.2984 84.9216L77.4547 89.2498H77.4687V89.2498Z" fill="white"/>
<path d="M80.9218 63.0466L88.9843 75.9998V76.0154C87.2343 79.3123 85.6718 82.7341 84.2968 86.2341C82.8281 89.9841 81.5781 93.8435 80.5609 97.8123C79.389 95.0154 78.3593 92.156 77.4687 89.2498H77.4531C77.1078 88.1404 76.7968 87.031 76.4843 85.906C76.0156 84.1716 75.5781 82.4373 75.1875 80.6716C74.0781 75.531 73.375 70.2498 73.0765 64.8591C74.9062 63.0466 76.875 61.3748 78.9531 59.8591L80.9218 63.0466Z" fill="white"/>
<path d="M75.1876 80.6719L69.9517 78.2031L64.7798 75.7656C67.0298 71.75 69.8423 68.0781 73.0767 64.8594C73.3751 70.25 74.0782 75.5313 75.1876 80.6719Z" fill="white"/>
<path d="M116.609 97.031C112.798 97.9216 108.892 98.5935 104.906 99.031C104.142 101.094 103.423 103.203 102.783 105.328" stroke="#7AA9A6" stroke-width="2" stroke-miterlimit="10" stroke-linecap="round" stroke-linejoin="round"/>
<path d="M122.578 110.531C124.516 110.094 126.422 109.594 128.312 109.047" stroke="#7AA9A6" stroke-width="2" stroke-miterlimit="10" stroke-linecap="round" stroke-linejoin="round"/>
<path d="M108.344 112.703C113.189 112.312 117.939 111.594 122.564 110.531" stroke="#7AA9A6" stroke-width="2" stroke-miterlimit="10" stroke-linecap="round" stroke-linejoin="round"/>
<path d="M152.5 124.594C153.578 122.625 154.533 120.594 155.33 118.484C157.486 112.891 158.673 106.813 158.673 100.453C158.673 98.4219 158.566 96.4219 158.316 94.4688C157.691 89.1562 156.238 84.125 154.081 79.4531C151.783 74.4531 148.675 69.9062 144.925 65.9531" stroke="#7AA9A6" stroke-width="2" stroke-miterlimit="10" stroke-linecap="round" stroke-linejoin="round"/>
<path d="M151.328 126.594C151.736 125.953 152.109 125.297 152.484 124.625" stroke="#7AA9A6" stroke-width="2" stroke-miterlimit="10" stroke-linecap="round" stroke-linejoin="round"/>
<path d="M130.281 145.672L131.891 144.844" stroke="#7AA9A6" stroke-width="2" stroke-miterlimit="10" stroke-linecap="round" stroke-linejoin="round"/>
<path d="M88.9845 76.0154C87.2345 79.3123 85.672 82.7341 84.297 86.2341C82.8282 89.9841 81.5782 93.8435 80.561 97.8123C80.4829 98.1091 80.4048 98.4216 80.3423 98.7185C79.3735 102.578 78.6548 106.547 78.1704 110.562C77.7017 114.531 77.4517 118.562 77.4517 122.656C77.4517 122.922 77.4517 123.187 77.4673 123.453C77.4985 129.5 78.0923 135.437 79.1704 141.187" stroke="#7AA9A6" stroke-width="2" stroke-miterlimit="10" stroke-linecap="round" stroke-linejoin="round"/>
<path d="M108.484 50.25C104.673 53.8906 101.172 57.7969 97.9703 61.9688C94.625 66.3438 91.6422 71 89.0485 75.875C89.0328 75.9219 89.0016 75.9531 88.986 76" stroke="#7AA9A6" stroke-width="2" stroke-miterlimit="10" stroke-linecap="round" stroke-linejoin="round"/>
<path d="M103.109 75.5779C101.141 78.7341 99.3438 81.9998 97.7344 85.3748" stroke="#7AA9A6" stroke-width="2" stroke-miterlimit="10" stroke-linecap="round" stroke-linejoin="round"/>
<path d="M113.234 82.0469C124.828 78.5937 135.533 73.0781 144.922 65.9531" stroke="#7AA9A6" stroke-width="2" stroke-miterlimit="10" stroke-linecap="round" stroke-linejoin="round"/>
<path d="M48.0626 124.516L48.0313 124.547C46.1407 125.719 44.4376 127.219 43.0157 128.984C41.811 130.484 40.8126 132.172 40.061 134.031C35.9063 144.312 40.8751 156.016 51.1407 160.172C55.0626 161.766 59.186 162.016 63.0298 161.156" stroke="#7AA9A6" stroke-width="2" stroke-miterlimit="10" stroke-linecap="round" stroke-linejoin="round"/>
<path d="M63.0314 161.156L73.547 158.812" stroke="#7AA9A6" stroke-width="2" stroke-miterlimit="10" stroke-linecap="round" stroke-linejoin="round"/>
<path d="M73.5469 158.812C77.3906 157.953 81.5156 158.219 85.4359 159.797C95.7172 163.953 100.67 175.656 96.5141 185.937" stroke="#7AA9A6" stroke-width="2" stroke-miterlimit="10" stroke-linecap="round" stroke-linejoin="round"/>
<path d="M77.4531 123.453C71.8891 122.031 66.5313 120.141 61.3906 117.828" stroke="#7AA9A6" stroke-width="2" stroke-miterlimit="10" stroke-linecap="round" stroke-linejoin="round"/>
<path d="M154.078 79.4529C143.141 87.7341 130.42 93.8123 116.609 97.031" stroke="#7AA9A6" stroke-width="2" stroke-miterlimit="10" stroke-linecap="round" stroke-linejoin="round"/>
<path d="M58.7969 93.3125C65.6563 95.875 72.8594 97.7187 80.3438 98.7187" stroke="#7AA9A6" stroke-width="2" stroke-miterlimit="10" stroke-linecap="round" stroke-linejoin="round"/>
<path d="M128.312 109.047C139.187 105.875 149.311 100.891 158.312 94.4688" stroke="#7AA9A6" stroke-width="2" stroke-miterlimit="10" stroke-linecap="round" stroke-linejoin="round"/>
<path d="M100.797 113.015C103.328 113.015 105.844 112.906 108.328 112.703" stroke="#7AA9A6" stroke-width="2" stroke-miterlimit="10" stroke-linecap="round" stroke-linejoin="round"/>
<path d="M58.4062 103.859C64.6719 106.734 71.2812 109.016 78.1719 110.563" stroke="#7AA9A6" stroke-width="2" stroke-miterlimit="10" stroke-linecap="round" stroke-linejoin="round"/>
<path d="M98.8125 126.562C106.484 135.031 115.577 142.156 125.733 147.594" stroke="#7AA9A6" stroke-width="2" stroke-miterlimit="10" stroke-linecap="round" stroke-linejoin="round"/>
<path d="M77.4689 89.2498C78.3595 92.156 79.3892 95.0154 80.5611 97.8123" stroke="#7AA9A6" stroke-width="2" stroke-miterlimit="10" stroke-linecap="round" stroke-linejoin="round"/>
<path d="M73.0781 64.8594C73.375 70.25 74.0797 75.5313 75.1891 80.6719C75.5797 82.4375 76.0172 84.1719 76.4859 85.9063C76.7984 87.0313 77.1094 88.1406 77.4547 89.25" stroke="#7AA9A6" stroke-width="2" stroke-miterlimit="10" stroke-linecap="round" stroke-linejoin="round"/>
<path d="M85.6094 55.75C85.6563 56.5 85.7188 57.25 85.7813 58C86.3422 64.1406 87.4375 70.1094 89.0469 75.875" stroke="#7AA9A6" stroke-width="2" stroke-miterlimit="10" stroke-linecap="round" stroke-linejoin="round"/>
<path d="M141.078 138.609C128.406 132.344 117.266 123.484 108.344 112.703H108.328" stroke="#7AA9A6" stroke-width="2" stroke-miterlimit="10" stroke-linecap="round" stroke-linejoin="round"/>
<path d="M128.312 109.047C135.531 115.313 143.672 120.578 152.498 124.594" stroke="#7AA9A6" stroke-width="2" stroke-miterlimit="10" stroke-linecap="round" stroke-linejoin="round"/>
<path d="M97.9687 61.9687C97 58.6875 96.1859 55.3437 95.5625 51.9375" stroke="#7AA9A6" stroke-width="2" stroke-miterlimit="10" stroke-linecap="round" stroke-linejoin="round"/>
<path d="M103.109 75.5781C108.545 66.875 115.297 59.0625 123.077 52.4062" stroke="#7AA9A6" stroke-width="2" stroke-miterlimit="10" stroke-linecap="round" stroke-linejoin="round"/>
<path d="M96.4844 88.1094C95.9531 89.2969 95.4375 90.5 94.9687 91.7188C92.7187 97.4063 90.9672 103.344 89.7812 109.5C88.5937 115.641 87.9844 121.984 87.9844 128.469C87.9844 134.797 88.5797 141 89.7047 147.016" stroke="#7AA9A6" stroke-width="2" stroke-miterlimit="10" stroke-linecap="round" stroke-linejoin="round"/>
<path d="M97.7344 85.375C97.2969 86.2812 96.8906 87.1875 96.4844 88.0937" stroke="#7AA9A6" stroke-width="2" stroke-miterlimit="10" stroke-linecap="round" stroke-linejoin="round"/>
<path d="M99.7344 149.875C98.9375 144.797 98.5156 139.594 98.5156 134.281C98.5156 131.687 98.625 129.109 98.8125 126.562C99.1563 121.953 99.8266 117.437 100.797 113.016C101.345 110.422 102.016 107.859 102.783 105.328" stroke="#7AA9A6" stroke-width="2" stroke-miterlimit="10" stroke-linecap="round" stroke-linejoin="round"/>
<path d="M134.484 57.4998C126.141 64.4529 118.953 72.7498 113.233 82.0466C112.061 83.9529 110.967 85.906 109.905 87.8904C108.03 91.4841 106.358 95.2029 104.905 99.031" stroke="#7AA9A6" stroke-width="2" stroke-miterlimit="10" stroke-linecap="round" stroke-linejoin="round"/>
<path d="M32.2969 60.4375L63.5313 75.1719L64.7813 75.7656L69.9531 78.2031L75.1875 80.6719" stroke="#7AA9A6" stroke-width="2" stroke-miterlimit="10" stroke-linecap="round" stroke-linejoin="round"/>
<path d="M29.4062 66.5781L60.6406 81.3125L61.8438 81.875L67.0625 84.3437L68.2656 84.9062H68.2812L68.2969 84.9219L77.4531 89.25H77.4687" stroke="#7AA9A6" stroke-width="2" stroke-miterlimit="10" stroke-linecap="round" stroke-linejoin="round"/>
<path d="M122.578 110.531H122.562" stroke="#7AA9A6" stroke-width="2" stroke-miterlimit="10" stroke-linecap="round" stroke-linejoin="round"/>
<path d="M155.328 118.484L173.687 127.14C176.953 128.672 179.625 131.25 181.28 134.469C177.748 135.234 174.062 134.812 170.78 133.281L152.483 124.625" stroke="#7AA9A6" stroke-width="2" stroke-miterlimit="10" stroke-linecap="round" stroke-linejoin="round"/>
<path d="M32.2963 60.4374C32.2495 59.8592 32.1245 59.2655 31.9213 58.6874C30.6557 55.1561 26.7495 53.3124 23.2198 54.5936C19.687 55.8592 17.8448 59.7499 19.126 63.2811C20.3916 66.8124 24.2823 68.6561 27.8135 67.3905C28.3916 67.1874 28.9229 66.9061 29.4088 66.578C31.3901 65.1874 32.4995 62.8436 32.2963 60.4374Z" stroke="#7AA9A6" stroke-width="2" stroke-miterlimit="10" stroke-linecap="round" stroke-linejoin="round"/>
<path d="M64.7344 24.0781L82.9531 53.4375L84.6875 56.2344L85.7813 58" stroke="#7AA9A6" stroke-width="2" stroke-miterlimit="10" stroke-linecap="round" stroke-linejoin="round"/>
<path d="M137.516 141.391L147.156 156.922C149.078 159.984 149.908 163.609 149.547 167.203C146.172 165.922 143.297 163.563 141.391 160.5L131.733 144.938" stroke="#7AA9A6" stroke-width="2" stroke-miterlimit="10" stroke-linecap="round" stroke-linejoin="round"/>
<path d="M58.9688 27.6719L77.1875 57.0156L78.9531 59.8594L80.9219 63.0469L88.9844 76V76.0156" stroke="#7AA9A6" stroke-width="2" stroke-miterlimit="10" stroke-linecap="round" stroke-linejoin="round"/>
<path d="M96.4844 88.1091V88.0935" stroke="#7AA9A6" stroke-width="2" stroke-miterlimit="10" stroke-linecap="round" stroke-linejoin="round"/>
<path d="M64.7344 24.078C65.0172 23.5624 65.2344 23.0155 65.375 22.4218C66.2344 18.7655 63.9531 15.0937 60.2969 14.2499C56.6406 13.3905 52.9844 15.6562 52.1266 19.3124C51.2656 22.9687 53.5469 26.6249 57.2047 27.4843C57.7984 27.6249 58.3922 27.6874 58.9703 27.6562C61.3906 27.5937 63.6094 26.2187 64.7344 24.078Z" stroke="#7AA9A6" stroke-width="2" stroke-miterlimit="10" stroke-linecap="round" stroke-linejoin="round"/>
<path d="M152.5 124.594C152.5 124.594 152.484 124.594 152.484 124.625H152.469C152.109 125.297 151.719 125.953 151.328 126.594C148.563 131.125 145.095 135.172 141.078 138.609C139.938 139.594 138.75 140.515 137.516 141.39C136.328 142.234 135.109 143.031 133.844 143.765C133.203 144.14 132.563 144.5 131.891 144.844C131.844 144.875 131.781 144.906 131.733 144.937C131.249 145.187 130.766 145.437 130.28 145.672C128.795 146.39 127.28 147.015 125.733 147.594C120.359 149.562 114.545 150.64 108.483 150.64C105.499 150.64 102.578 150.375 99.7329 149.875C96.2485 149.265 92.8892 148.297 89.7017 147.015C85.936 145.484 82.4048 143.531 79.1704 141.187C71.1235 135.39 64.8579 127.281 61.3735 117.828C59.7485 113.422 58.7329 108.734 58.4048 103.859C58.3267 102.734 58.2954 101.594 58.2954 100.453C58.2954 98.0154 58.4532 95.6404 58.7954 93.3123C59.1392 90.8123 59.686 88.3748 60.3907 86.0154C60.6564 85.1716 60.9376 84.3279 61.2345 83.4841C61.4204 82.9529 61.6251 82.406 61.8439 81.8748" stroke="#7AA9A6" stroke-width="2" stroke-miterlimit="10" stroke-linecap="round" stroke-linejoin="round"/>
<path d="M64.7812 75.7654C67.0313 71.7498 69.8438 68.0779 73.0781 64.8591C74.9078 63.0466 76.8766 61.3748 78.9547 59.8591" stroke="#7AA9A6" stroke-width="2" stroke-miterlimit="10" stroke-linecap="round" stroke-linejoin="round"/>
<path d="M144.922 65.9531C141.859 62.6875 138.328 59.8438 134.484 57.5C130.936 55.3594 127.108 53.6406 123.077 52.4063C118.469 51 113.561 50.25 108.483 50.25C104.016 50.25 99.6859 50.8438 95.5609 51.9375C92.0765 52.8594 88.7484 54.1406 85.6078 55.75C85.2953 55.9063 84.9984 56.0781 84.6859 56.2344" stroke="#7AA9A6" stroke-width="2" stroke-miterlimit="10" stroke-linecap="round" stroke-linejoin="round"/>
<path d="M61.3906 117.828H61.375L48.0312 124.547" stroke="#7AA9A6" stroke-width="2" stroke-miterlimit="10" stroke-linecap="round" stroke-linejoin="round"/>
</svg>
