<svg width="64" height="64" viewBox="0 0 64 64" fill="none" xmlns="http://www.w3.org/2000/svg">
<path d="M46.64 14.455C48.115 14.28 49.875 11.44 51.245 12.435C52.06 13.025 51.515 15.165 50.025 17.215C49.9305 17.35 49.8255 17.48 49.725 17.605L49.72 17.61C49.035 17.97 48.2545 18.64 47.5295 19.52C47.3795 19.705 47.2295 19.9 47.0845 20.1C46.97 20.255 46.8595 20.41 46.7595 20.57C46.6545 20.41 46.5445 20.255 46.435 20.1C46.285 19.9 46.14 19.705 45.985 19.52C45.255 18.635 44.4705 17.965 43.7855 17.605C43.6855 17.48 43.59 17.35 43.4905 17.215C42.4705 15.81 41.8955 14.36 41.8955 13.4C41.8955 12.96 42.0155 12.62 42.2705 12.435C42.3055 12.41 42.3405 12.39 42.3805 12.37C42.7055 12.21 43.1555 12.28 43.6655 12.525C43.7205 12.55 43.7755 12.58 43.8305 12.61C44.26 12.865 44.7005 13.22 45.1005 13.555C45.1055 13.56 45.1105 13.57 45.1205 13.57C45.2855 13.705 45.4405 13.835 45.59 13.95L45.5955 13.955C45.8455 14.255 46.13 14.44 46.4305 14.46C46.4555 14.465 46.4755 14.465 46.5005 14.465C46.5305 14.465 46.5555 14.465 46.5855 14.46C46.605 14.46 46.62 14.46 46.64 14.455Z" fill="#7AA9A6"/>
<path d="M42.38 12.37C42.755 12.17 43.205 12.275 43.665 12.525C43.155 12.28 42.705 12.21 42.38 12.37Z" fill="#7AA9A6"/>
<path d="M45.595 13.9548C45.93 14.2198 46.22 14.4198 46.43 14.4598C46.13 14.4398 45.845 14.2548 45.595 13.9548Z" fill="#7AA9A6"/>
<path d="M17.04 20.0999C16.895 19.8999 16.745 19.7049 16.595 19.5199C15.865 18.6349 15.08 17.9649 14.395 17.6049H14.39C14.295 17.4799 14.1945 17.3499 14.1 17.2149C12.61 15.1649 12.065 13.0249 12.875 12.4349C14.235 11.4599 15.945 14.2699 17.36 14.4549C17.405 14.4599 17.455 14.4649 17.5 14.4649C17.535 14.4649 17.565 14.4649 17.6 14.4599C17.7595 14.4399 17.915 14.3749 18.065 14.2699C18.07 14.2699 18.08 14.2649 18.085 14.2599C19.205 13.6149 20.81 11.6749 21.855 12.4349C22.11 12.6199 22.23 12.9599 22.23 13.3999C22.23 14.3599 21.65 15.8099 20.63 17.2149C20.5355 17.3499 20.435 17.4799 20.33 17.6049V17.6099C19.645 17.9699 18.865 18.6399 18.1345 19.5199C17.9845 19.7049 17.8345 19.8999 17.6895 20.0999C17.575 20.2549 17.47 20.4099 17.365 20.5699C17.26 20.4099 17.155 20.2549 17.04 20.0999Z" fill="#7AA9A6"/>
<path d="M17.6 14.46C17.74 14.435 17.9 14.37 18.065 14.27C17.915 14.375 17.76 14.44 17.6 14.46Z" fill="#7AA9A6"/>
<path d="M26.93 14.4599C26.6545 14.4399 26.39 14.2849 26.1545 14.0249C26.465 14.2549 26.73 14.4249 26.93 14.4599Z" fill="#7AA9A6"/>
<path d="M22.675 12.4351C23.585 11.7751 25.11 13.2501 26.155 14.0251C26.3905 14.2851 26.655 14.4401 26.9305 14.4601C26.9555 14.4651 26.9755 14.4651 27.0005 14.4651C27.0355 14.4651 27.0655 14.4651 27.1005 14.4601C27.1305 14.4551 27.1605 14.4501 27.1905 14.4401C27.2605 14.4301 27.3305 14.4051 27.3955 14.3701C27.4055 14.3701 27.4155 14.3651 27.4255 14.3551C28.621 13.8451 30.6105 11.6851 31.6505 12.4351C31.9055 12.6201 32.0255 12.9601 32.0255 13.4001C32.0255 14.3601 31.451 15.8101 30.431 17.2151C30.336 17.3501 30.231 17.4801 30.1305 17.6051L30.1255 17.6101C29.4405 17.9701 28.6605 18.6401 27.9355 19.5201C27.78 19.7051 27.635 19.9001 27.4905 20.1001C27.3755 20.2551 27.2655 20.4101 27.1655 20.5701C27.0605 20.4101 26.9505 20.2551 26.8405 20.1001C26.6905 19.9001 26.5455 19.7051 26.391 19.5201C25.661 18.6351 24.876 17.9651 24.191 17.6051C24.091 17.4801 23.996 17.3501 23.896 17.2151C22.876 15.8101 22.301 14.3601 22.301 13.4001C22.3 12.9601 22.42 12.6201 22.675 12.4351Z" fill="#7AA9A6"/>
<path d="M27.1 14.4599C27.13 14.4549 27.16 14.4499 27.19 14.4399C27.16 14.4499 27.13 14.4549 27.1 14.4599Z" fill="#7AA9A6"/>
<path d="M27.1899 14.4399C27.2549 14.4249 27.3254 14.3999 27.3949 14.3699C27.3299 14.4049 27.2599 14.4299 27.1899 14.4399Z" fill="#7AA9A6"/>
<path d="M36.96 20.57C36.86 20.41 36.75 20.255 36.635 20.1C36.4905 19.9 36.34 19.705 36.19 19.52C35.46 18.635 34.675 17.965 33.9905 17.605H33.985C33.8905 17.48 33.79 17.35 33.695 17.215C32.675 15.81 32.0955 14.36 32.0955 13.4C32.0955 12.96 32.215 12.62 32.4705 12.435C33.545 11.66 35.38 13.785 36.5405 14.335C36.655 14.405 36.7755 14.445 36.9005 14.46C36.9355 14.465 36.9655 14.465 37.0005 14.465C37.0455 14.465 37.0955 14.46 37.1405 14.455C38.6155 14.28 40.1405 11.485 41.4505 12.435C41.7055 12.62 41.8255 12.96 41.8255 13.4C41.8255 14.36 41.2505 15.81 40.2305 17.215C40.1305 17.35 40.0305 17.48 39.9255 17.605V17.61C39.241 17.97 38.4605 18.64 37.7305 19.52C37.5805 19.705 37.4305 19.9 37.2855 20.1C37.17 20.255 37.065 20.41 36.96 20.57Z" fill="#7AA9A6"/>
<path d="M36.54 14.335C36.67 14.4 36.79 14.44 36.9 14.46C36.775 14.445 36.655 14.405 36.54 14.335Z" fill="#7AA9A6"/>
<path d="M51.25 17.45C52.06 18.04 51.515 20.18 50.025 22.23C49.925 22.365 49.83 22.495 49.725 22.62C49.04 22.985 48.255 23.655 47.525 24.54C47.375 24.725 47.225 24.915 47.085 25.115C46.9705 25.27 46.86 25.43 46.76 25.585C46.655 25.43 46.545 25.27 46.4355 25.115C46.2855 24.915 46.1405 24.72 45.9905 24.54C45.255 23.655 44.4705 22.98 43.7855 22.62C43.6855 22.495 43.59 22.365 43.4905 22.23C42.4705 20.825 41.8955 19.375 41.8955 18.415C41.8955 17.975 42.0155 17.635 42.2705 17.45C42.6205 17.195 43.1605 17.275 43.7855 17.605C44.4705 17.965 45.255 18.635 45.985 19.52C46.1405 19.705 46.2855 19.9 46.435 20.1C46.545 20.255 46.6545 20.41 46.7595 20.57C46.8595 20.41 46.97 20.255 47.0845 20.1C47.2295 19.9 47.3795 19.705 47.5295 19.52C48.2545 18.64 49.035 17.97 49.72 17.61L49.725 17.605C50.35 17.275 50.9 17.195 51.25 17.45Z" fill="#7AA9A6"/>
<path d="M51.25 22.4651C52.06 23.0551 51.515 25.1951 50.025 27.2501C49.925 27.3851 49.83 27.5101 49.73 27.6351C49.73 27.6401 49.725 27.6401 49.725 27.6401H49.72C49.035 28.0051 48.2545 28.6751 47.5295 29.5551C47.3795 29.7401 47.2295 29.9301 47.0845 30.1301C46.97 30.2851 46.8595 30.4451 46.7595 30.6001C46.6545 30.4451 46.5445 30.2851 46.435 30.1301C46.285 29.9301 46.14 29.7401 45.985 29.5551C45.255 28.6701 44.4705 28.0001 43.7855 27.6401V27.6351C43.6855 27.5101 43.59 27.3851 43.4905 27.2501C42.4705 25.8401 41.8955 24.3901 41.8955 23.4301C41.8955 22.9901 42.0155 22.6501 42.2705 22.4651C42.6205 22.2151 43.1605 22.2901 43.7855 22.6201C44.4705 22.9801 45.255 23.6551 45.9905 24.5401C46.1405 24.7201 46.2855 24.9151 46.4355 25.1151C46.5455 25.2701 46.655 25.4301 46.76 25.5851C46.86 25.4301 46.9705 25.2701 47.085 25.1151C47.225 24.9151 47.375 24.7251 47.525 24.5401C48.255 23.6551 49.04 22.9851 49.725 22.6201C50.355 22.2901 50.9 22.2151 51.25 22.4651Z" fill="#7AA9A6"/>
<path d="M51.25 27.4849C52.06 28.0749 51.515 30.2099 50.025 32.2599C49.925 32.3949 49.83 32.5249 49.725 32.6499C49.04 33.0149 48.2595 33.6849 47.5295 34.5699C47.3795 34.7499 47.2295 34.9449 47.0845 35.1449C46.97 35.2999 46.8595 35.4599 46.7595 35.6199C46.6545 35.4599 46.5445 35.2999 46.435 35.1449C46.285 34.9449 46.14 34.7499 45.99 34.5699C45.2545 33.6849 44.47 33.0099 43.785 32.6499C43.685 32.5249 43.5895 32.3999 43.49 32.2599C42.47 30.8549 41.895 29.4099 41.895 28.4499C41.895 28.0099 42.015 27.6699 42.27 27.4849C42.62 27.2299 43.16 27.3049 43.785 27.6349V27.6399C44.47 27.9999 45.2545 28.6699 45.9845 29.5549C46.14 29.7399 46.285 29.9299 46.4345 30.1299C46.5445 30.2849 46.654 30.4449 46.759 30.5999C46.859 30.4449 46.9695 30.2849 47.084 30.1299C47.229 29.9299 47.379 29.7399 47.529 29.5549C48.254 28.6749 49.0345 28.0049 49.7195 27.6399H49.7245C49.7245 27.6399 49.7295 27.6399 49.7295 27.6349C50.355 27.3049 50.9 27.2299 51.25 27.4849Z" fill="#7AA9A6"/>
<path d="M51.25 32.4998C52.06 33.0898 51.515 35.2298 50.025 37.2798C49.925 37.4148 49.83 37.5398 49.73 37.6648C49.73 37.6698 49.725 37.6698 49.725 37.6698H49.72C49.035 38.0348 48.2545 38.7048 47.5295 39.5848C47.3795 39.7698 47.2295 39.9598 47.0845 40.1598C46.97 40.3198 46.8595 40.4748 46.7595 40.6348C46.6545 40.4748 46.5445 40.3198 46.435 40.1598C46.285 39.9598 46.14 39.7698 45.985 39.5848C45.255 38.6998 44.4705 38.0298 43.7855 37.6698V37.6648C43.6855 37.5398 43.59 37.4148 43.4905 37.2798C42.4705 35.8748 41.8955 34.4248 41.8955 33.4648C41.8955 33.0248 42.0155 32.6848 42.2705 32.4998C42.6205 32.2448 43.1605 32.3198 43.7855 32.6498C44.4705 33.0098 45.255 33.6848 45.9905 34.5698C46.1405 34.7498 46.2855 34.9448 46.4355 35.1448C46.5455 35.2998 46.655 35.4598 46.76 35.6198C46.86 35.4598 46.9705 35.2998 47.085 35.1448C47.23 34.9448 47.38 34.7498 47.53 34.5698C48.26 33.6848 49.0405 33.0148 49.7255 32.6498C50.355 32.3198 50.9 32.2448 51.25 32.4998Z" fill="#7AA9A6"/>
<path d="M51.25 37.515C52.06 38.105 51.515 40.245 50.025 42.295C49.925 42.425 49.83 42.555 49.725 42.685C49.04 43.045 48.255 43.72 47.525 44.605C47.375 44.785 47.225 44.975 47.085 45.175C46.9705 45.335 46.86 45.495 46.76 45.65C46.655 45.495 46.545 45.335 46.4355 45.175C46.2855 44.975 46.1405 44.785 45.9905 44.605C45.255 43.72 44.4705 43.045 43.7855 42.685C43.7855 42.68 43.7855 42.68 43.7855 42.68C43.6855 42.555 43.59 42.43 43.4905 42.295C42.4705 40.89 41.8955 39.44 41.8955 38.48C41.8955 38.04 42.0155 37.7 42.2705 37.515C42.6205 37.26 43.1605 37.335 43.7855 37.665V37.67C44.4705 38.03 45.255 38.7 45.985 39.585C46.1405 39.77 46.2855 39.96 46.435 40.16C46.545 40.32 46.6545 40.475 46.7595 40.635C46.8595 40.475 46.97 40.32 47.0845 40.16C47.2295 39.96 47.3795 39.77 47.5295 39.585C48.2545 38.705 49.035 38.035 49.72 37.67H49.725C49.725 37.67 49.73 37.67 49.73 37.665C50.355 37.335 50.9 37.26 51.25 37.515Z" fill="#7AA9A6"/>
<path d="M51.25 42.5299C52.06 43.1199 51.515 45.2599 50.025 47.3099C49.925 47.4449 49.8255 47.5749 49.725 47.6999C49.72 47.7049 49.72 47.7049 49.72 47.7049C48.895 48.1449 47.93 49.0249 47.0845 50.1899C46.97 50.3499 46.8595 50.5099 46.7595 50.6649C46.6545 50.5099 46.5445 50.3499 46.43 50.1899C45.58 49.0199 44.6095 48.1349 43.785 47.6999C43.785 47.6949 43.7795 47.6949 43.7795 47.6949C43.685 47.5699 43.5895 47.4449 43.49 47.3099C42.47 45.9049 41.895 44.4549 41.895 43.4949C41.895 43.0549 42.015 42.7149 42.27 42.5299C42.62 42.2799 43.16 42.3499 43.785 42.6799C43.785 42.6799 43.785 42.6799 43.785 42.6849C44.47 43.0449 45.2545 43.7199 45.99 44.6049C46.14 44.7849 46.285 44.9749 46.435 45.1749C46.545 45.3349 46.6545 45.4949 46.7595 45.6499C46.8595 45.4949 46.97 45.3349 47.0845 45.1749C47.2245 44.9749 47.3745 44.7849 47.5245 44.6049C48.2545 43.7199 49.0395 43.0449 49.7245 42.6849C50.355 42.3499 50.9 42.2799 51.25 42.5299Z" fill="#7AA9A6"/>
<path d="M51.25 47.5449C52.06 48.1349 51.51 50.2749 50.025 52.3249C50.02 52.3299 50.02 52.3299 50.02 52.3349C49.1345 52.6999 48.035 53.6549 47.085 54.9599C46.9705 55.1199 46.8655 55.2749 46.76 55.4349C46.655 55.2749 46.55 55.1199 46.4355 54.9599C45.4855 53.6549 44.385 52.6999 43.5005 52.3349C43.4955 52.3299 43.4955 52.3299 43.4955 52.3249C42.4755 50.9199 41.8955 49.4699 41.8955 48.5099C41.8955 48.0699 42.0155 47.7299 42.2705 47.5449C42.6155 47.2949 43.1555 47.3699 43.7805 47.6949C43.7805 47.6949 43.786 47.6949 43.786 47.6999C44.6105 48.1349 45.581 49.0199 46.431 50.1899C46.5455 50.3499 46.6555 50.5099 46.7605 50.6649C46.8605 50.5099 46.971 50.3499 47.0855 50.1899C47.9305 49.0249 48.8955 48.1449 49.721 47.7049C49.721 47.7049 49.721 47.7049 49.726 47.6999C50.35 47.3699 50.9 47.2899 51.25 47.5449Z" fill="#7AA9A6"/>
<path d="M51.25 52.3149C52.06 52.9049 51.515 55.0449 50.025 57.0949C49.46 57.8749 48.84 58.5299 48.245 59.0099C47.38 59.7049 46.145 59.7049 45.2795 59.0099C44.685 58.5299 44.06 57.8749 43.495 57.0949C42.475 55.6899 41.895 54.2399 41.895 53.2799C41.895 52.8399 42.015 52.4999 42.27 52.3149C42.565 52.0999 42.995 52.1199 43.5 52.3349C44.385 52.6999 45.485 53.6549 46.435 54.9599C46.5495 55.1199 46.6545 55.2749 46.7595 55.4349C46.865 55.2749 46.97 55.1199 47.0845 54.9599C48.0345 53.6549 49.1345 52.6999 50.0195 52.3349C50.525 52.1199 50.955 52.0999 51.25 52.3149Z" fill="#7AA9A6"/>
<path d="M41.45 17.45C41.705 17.635 41.825 17.975 41.825 18.415C41.825 19.375 41.245 20.825 40.225 22.23C40.13 22.365 40.0295 22.495 39.93 22.62C39.245 22.985 38.46 23.655 37.73 24.54H37.725C37.58 24.725 37.43 24.915 37.285 25.115C37.17 25.27 37.065 25.43 36.96 25.585C36.86 25.43 36.75 25.27 36.635 25.115C36.4905 24.915 36.34 24.72 36.19 24.54C35.46 23.655 34.675 22.98 33.9905 22.62C33.985 22.62 33.985 22.62 33.985 22.62C33.8905 22.495 33.79 22.365 33.695 22.23C32.675 20.825 32.0955 19.375 32.0955 18.415C32.0955 17.975 32.215 17.635 32.4705 17.45C32.82 17.195 33.36 17.275 33.985 17.605H33.9905C34.675 17.965 35.46 18.635 36.19 19.52C36.34 19.705 36.4905 19.9 36.635 20.1C36.75 20.255 36.86 20.41 36.96 20.57C37.065 20.41 37.17 20.255 37.285 20.1C37.43 19.9 37.58 19.705 37.73 19.52C38.46 18.64 39.2405 17.97 39.925 17.61V17.605C40.555 17.275 41.1 17.195 41.45 17.45Z" fill="#7AA9A6"/>
<path d="M41.45 22.4651C41.705 22.6501 41.825 22.9901 41.825 23.4301C41.825 24.3901 41.245 25.8401 40.225 27.2501C40.13 27.3851 40.0295 27.5151 39.9245 27.6401C39.24 28.0051 38.4595 28.6751 37.7295 29.5551C37.5795 29.7401 37.4295 29.9301 37.2845 30.1301C37.1695 30.2851 37.0645 30.4451 36.9595 30.6001C36.8595 30.4451 36.7495 30.2851 36.6345 30.1301C36.49 29.9301 36.3395 29.7401 36.1895 29.5551C35.4595 28.6701 34.6745 28.0001 33.99 27.6401L33.9845 27.6351C33.89 27.5101 33.7895 27.3851 33.6945 27.2501C32.6745 25.8401 32.095 24.3901 32.095 23.4301C32.095 22.9901 32.2145 22.6501 32.47 22.4651C32.8195 22.2151 33.3595 22.2901 33.9845 22.6201C33.9845 22.6201 33.9845 22.6201 33.99 22.6201C34.6745 22.9801 35.4595 23.6551 36.1895 24.5401C36.3395 24.7201 36.49 24.9151 36.6345 25.1151C36.7495 25.2701 36.8595 25.4301 36.9595 25.5851C37.0645 25.4301 37.1695 25.2701 37.2845 25.1151C37.4295 24.9151 37.5795 24.7251 37.7245 24.5401H37.7295C38.4595 23.6551 39.2445 22.9851 39.9295 22.6201C40.555 22.2901 41.1 22.2151 41.45 22.4651Z" fill="#7AA9A6"/>
<path d="M41.45 27.4849C41.705 27.6699 41.825 28.0099 41.825 28.4499C41.825 29.4099 41.245 30.8549 40.225 32.2599C40.13 32.3949 40.0295 32.5249 39.93 32.6499C39.245 33.0149 38.46 33.6849 37.73 34.5699C37.58 34.7499 37.43 34.9449 37.285 35.1449C37.17 35.2999 37.065 35.4599 36.96 35.6199C36.86 35.4599 36.75 35.2999 36.635 35.1449C36.4905 34.9449 36.34 34.7499 36.19 34.5699C35.46 33.6849 34.675 33.0099 33.9905 32.6499C33.985 32.6499 33.985 32.6499 33.985 32.6499C33.8905 32.5249 33.79 32.3999 33.695 32.2599C32.675 30.8549 32.0955 29.4099 32.0955 28.4499C32.0955 28.0099 32.215 27.6699 32.4705 27.4849C32.82 27.2299 33.36 27.3049 33.985 27.6349L33.9905 27.6399C34.675 27.9999 35.46 28.6699 36.19 29.5549C36.34 29.7399 36.4905 29.9299 36.635 30.1299C36.75 30.2849 36.86 30.4449 36.96 30.5999C37.065 30.4449 37.17 30.2849 37.285 30.1299C37.43 29.9299 37.58 29.7399 37.73 29.5549C38.46 28.6749 39.2405 28.0049 39.925 27.6399C40.3 27.4399 40.645 27.3349 40.94 27.3349C41.135 27.3349 41.31 27.3799 41.45 27.4849Z" fill="#7AA9A6"/>
<path d="M41.45 32.4998C41.705 32.6848 41.825 33.0248 41.825 33.4648C41.825 34.4248 41.245 35.8748 40.225 37.2798C40.13 37.4148 40.0295 37.5448 39.9245 37.6698C39.24 38.0348 38.4595 38.7048 37.7295 39.5848C37.5795 39.7698 37.4295 39.9598 37.2845 40.1598C37.1695 40.3198 37.0645 40.4748 36.9595 40.6348C36.8595 40.4748 36.7495 40.3198 36.6345 40.1598C36.49 39.9598 36.3395 39.7698 36.1895 39.5848C35.4595 38.6998 34.6745 38.0298 33.99 37.6698L33.9845 37.6648C33.89 37.5398 33.7895 37.4148 33.6945 37.2798C32.6745 35.8748 32.095 34.4248 32.095 33.4648C32.095 33.0248 32.2145 32.6848 32.47 32.4998C32.8195 32.2448 33.3595 32.3198 33.9845 32.6498C33.9845 32.6498 33.9845 32.6498 33.99 32.6498C34.6745 33.0098 35.4595 33.6848 36.1895 34.5698C36.3395 34.7498 36.49 34.9448 36.6345 35.1448C36.7495 35.2998 36.8595 35.4598 36.9595 35.6198C37.0645 35.4598 37.1695 35.2998 37.2845 35.1448C37.4295 34.9448 37.5795 34.7498 37.7295 34.5698C38.4595 33.6848 39.2445 33.0148 39.9295 32.6498C40.555 32.3198 41.1 32.2448 41.45 32.4998Z" fill="#7AA9A6"/>
<path d="M41.45 37.515C41.705 37.7 41.825 38.04 41.825 38.48C41.825 39.44 41.245 40.89 40.225 42.295C40.13 42.425 40.0295 42.555 39.93 42.685C39.245 43.045 38.46 43.72 37.73 44.605H37.725C37.58 44.785 37.43 44.975 37.285 45.175C37.17 45.335 37.065 45.495 36.96 45.65C36.86 45.495 36.75 45.335 36.635 45.175C36.4905 44.975 36.34 44.785 36.19 44.605C35.46 43.72 34.675 43.045 33.9905 42.685C33.985 42.68 33.985 42.68 33.985 42.68C33.8905 42.555 33.79 42.43 33.695 42.295C32.675 40.89 32.0955 39.44 32.0955 38.48C32.0955 38.04 32.215 37.7 32.4705 37.515C32.82 37.26 33.36 37.335 33.985 37.665L33.9905 37.67C34.675 38.03 35.46 38.7 36.19 39.585C36.34 39.77 36.4905 39.96 36.635 40.16C36.75 40.32 36.86 40.475 36.96 40.635C37.065 40.475 37.17 40.32 37.285 40.16C37.43 39.96 37.58 39.77 37.73 39.585C38.46 38.705 39.2405 38.035 39.925 37.67C40.3 37.47 40.645 37.365 40.94 37.365C41.135 37.365 41.31 37.41 41.45 37.515Z" fill="#7AA9A6"/>
<path d="M41.45 42.5299C41.705 42.7149 41.825 43.0549 41.825 43.4949C41.825 44.4549 41.245 45.9049 40.225 47.3099C40.13 47.4449 40.0295 47.5749 39.9245 47.6999C39.1 48.1399 38.1295 49.0249 37.285 50.1899C37.1745 50.3499 37.06 50.5099 36.96 50.6649C36.86 50.5099 36.75 50.3499 36.635 50.1899C35.7905 49.0199 34.815 48.1349 33.9905 47.6999C33.985 47.6949 33.98 47.6949 33.98 47.6949C33.885 47.5699 33.79 47.4449 33.695 47.3099C32.675 45.9049 32.0955 44.4549 32.0955 43.4949C32.0955 43.0549 32.215 42.7149 32.4705 42.5299C32.82 42.2799 33.36 42.3499 33.985 42.6799C33.985 42.6799 33.985 42.6799 33.9905 42.6849C34.675 43.0449 35.46 43.7199 36.19 44.6049C36.34 44.7849 36.4905 44.9749 36.635 45.1749C36.75 45.3349 36.86 45.4949 36.96 45.6499C37.065 45.4949 37.17 45.3349 37.285 45.1749C37.43 44.9749 37.58 44.7849 37.725 44.6049H37.73C38.46 43.7199 39.245 43.0449 39.93 42.6849C40.555 42.3499 41.1 42.2799 41.45 42.5299Z" fill="#7AA9A6"/>
<path d="M39.925 47.6999C40.5555 47.3699 41.1005 47.2899 41.4505 47.5449C41.7055 47.7299 41.8255 48.0699 41.8255 48.5099C41.8255 49.4699 41.2455 50.9199 40.2255 52.3249C40.2255 52.3299 40.2255 52.3299 40.2205 52.3349C39.335 52.7049 38.235 53.6599 37.2855 54.9649C37.1705 55.1199 37.0655 55.2799 36.9605 55.4349C36.8555 55.2799 36.7505 55.1199 36.6355 54.9649C36.5705 54.8749 36.5055 54.7899 36.4405 54.7049H36.4355C35.5405 53.5299 34.5255 52.6799 33.7005 52.3349C33.695 52.3299 33.695 52.3299 33.695 52.3249C32.675 50.9199 32.0955 49.4699 32.0955 48.5099C32.0955 48.0699 32.215 47.7299 32.4705 47.5449C32.815 47.2949 33.3555 47.3699 33.9805 47.6949C33.9805 47.6949 33.9855 47.6949 33.991 47.6999C34.8155 48.1349 35.791 49.0199 36.6355 50.1899C36.7505 50.3499 36.8605 50.5099 36.9605 50.6649C37.0605 50.5099 37.1755 50.3499 37.2855 50.1899C38.13 49.0249 39.1 48.1399 39.925 47.6999Z" fill="#7AA9A6"/>
<path d="M41.45 52.3151C41.705 52.5001 41.825 52.8401 41.825 53.2801C41.825 54.2401 41.245 55.6901 40.225 57.0951C39.66 57.8801 39.035 58.5351 38.44 59.0151C37.5755 59.7101 36.3455 59.7051 35.48 59.0101C34.88 58.5301 34.26 57.8751 33.695 57.0951C32.675 55.6901 32.0955 54.2401 32.0955 53.2801C32.0955 52.8401 32.215 52.5001 32.4705 52.3151C32.7655 52.1051 33.195 52.1251 33.7005 52.3351C34.525 52.6801 35.5405 53.5301 36.4355 54.7051H36.4405C36.5055 54.7901 36.5705 54.8751 36.6355 54.9651C36.7505 55.1201 36.8555 55.2801 36.9605 55.4351C37.0655 55.2801 37.1705 55.1201 37.2855 54.9651C38.235 53.6601 39.3355 52.7051 40.2205 52.3351C40.725 52.1251 41.155 52.1051 41.45 52.3151Z" fill="#7AA9A6"/>
<path d="M31.655 52.3151C31.9105 52.5001 32.03 52.8401 32.03 53.2801C32.03 54.2401 31.4505 55.6851 30.4305 57.0951C29.86 57.8751 29.2405 58.5301 28.6455 59.0101C27.7805 59.7051 26.5505 59.7101 25.6855 59.0151C25.0855 58.5351 24.4655 57.8801 23.8955 57.0951C22.8755 55.6851 22.2955 54.2401 22.2955 53.2801C22.2955 52.8401 22.4155 52.5001 22.6705 52.3151C22.9655 52.1051 23.3955 52.1251 23.9005 52.3351C24.786 52.7001 25.8855 53.6551 26.8355 54.9651C26.9505 55.1201 27.0605 55.2801 27.1655 55.4351C27.2655 55.2801 27.3755 55.1201 27.4905 54.9651C28.44 53.6601 29.5355 52.7051 30.42 52.3351C30.925 52.1251 31.36 52.1051 31.655 52.3151Z" fill="#7AA9A6"/>
<path d="M31.65 17.45C31.905 17.635 32.025 17.975 32.025 18.415C32.025 19.375 31.4505 20.825 30.4305 22.23C30.3305 22.365 30.235 22.495 30.13 22.62C29.445 22.985 28.6605 23.655 27.9305 24.54C27.78 24.725 27.63 24.915 27.4905 25.115C27.3755 25.27 27.2655 25.43 27.1655 25.585C27.0605 25.43 26.9505 25.27 26.8405 25.115C26.6905 24.915 26.5455 24.72 26.3955 24.54C25.6605 23.655 24.8755 22.98 24.1905 22.62C24.0905 22.495 23.9955 22.365 23.8955 22.23C22.8755 20.825 22.3005 19.375 22.3005 18.415C22.3005 17.975 22.4205 17.635 22.6755 17.45C23.0205 17.195 23.5655 17.275 24.1905 17.605C24.8755 17.965 25.6605 18.635 26.3905 19.52C26.5455 19.705 26.6905 19.9 26.84 20.1C26.9505 20.255 27.06 20.41 27.165 20.57C27.265 20.41 27.375 20.255 27.49 20.1C27.6345 19.9 27.7795 19.705 27.935 19.52C28.66 18.64 29.44 17.97 30.125 17.61L30.13 17.605C30.755 17.275 31.305 17.195 31.65 17.45Z" fill="#7AA9A6"/>
<path d="M31.65 22.4651C31.905 22.6501 32.025 22.9901 32.025 23.4301C32.025 24.3901 31.4505 25.8401 30.4305 27.2501C30.3305 27.3851 30.235 27.5101 30.135 27.6351C30.135 27.6401 30.13 27.6401 30.13 27.6401H30.125C29.44 28.0051 28.66 28.6751 27.935 29.5551C27.7795 29.7401 27.6345 29.9301 27.49 30.1301C27.375 30.2851 27.265 30.4451 27.165 30.6001C27.06 30.4451 26.95 30.2851 26.84 30.1301C26.69 29.9301 26.545 29.7401 26.3905 29.5551C25.6605 28.6701 24.8755 28.0001 24.1905 27.6401V27.6351C24.0905 27.5101 23.9955 27.3851 23.8955 27.2501C22.8755 25.8401 22.3005 24.3901 22.3005 23.4301C22.3005 22.9901 22.4205 22.6501 22.6755 22.4651C23.0205 22.2151 23.5655 22.2901 24.1905 22.6201C24.8755 22.9801 25.6605 23.6551 26.3955 24.5401C26.5455 24.7201 26.6905 24.9151 26.8405 25.1151C26.951 25.2701 27.0605 25.4301 27.1655 25.5851C27.2655 25.4301 27.3755 25.2701 27.4905 25.1151C27.63 24.9151 27.78 24.7251 27.9305 24.5401C28.6605 23.6551 29.445 22.9851 30.13 22.6201C30.76 22.2901 31.305 22.2151 31.65 22.4651Z" fill="#7AA9A6"/>
<path d="M31.65 27.4849C31.905 27.6699 32.0251 28.0099 32.0251 28.4499C32.0251 29.4099 31.4505 30.8549 30.4305 32.2599C30.3305 32.3949 30.235 32.5249 30.13 32.6499C29.445 33.0149 28.665 33.6849 27.935 34.5699C27.7795 34.7499 27.6345 34.9449 27.49 35.1449C27.375 35.2999 27.2651 35.4599 27.1651 35.6199C27.0601 35.4599 26.95 35.2999 26.84 35.1449C26.69 34.9449 26.5451 34.7499 26.3951 34.5699C25.6601 33.6849 24.8751 33.0099 24.1901 32.6499C24.0901 32.5249 23.9951 32.3999 23.8951 32.2599C22.8751 30.8549 22.3 29.4099 22.3 28.4499C22.3 28.0099 22.42 27.6699 22.675 27.4849C23.02 27.2299 23.5651 27.3049 24.1901 27.6349V27.6399C24.8751 27.9999 25.66 28.6699 26.39 29.5549C26.545 29.7399 26.6901 29.9299 26.8396 30.1299C26.9501 30.2849 27.0595 30.4449 27.1645 30.5999C27.2645 30.4449 27.3745 30.2849 27.4895 30.1299C27.634 29.9299 27.779 29.7399 27.9345 29.5549C28.6595 28.6749 29.4395 28.0049 30.1245 27.6399H30.1295C30.1295 27.6399 30.1346 27.6399 30.1346 27.6349C30.7601 27.3049 31.305 27.2299 31.65 27.4849Z" fill="#7AA9A6"/>
<path d="M31.65 32.4998C31.905 32.6848 32.025 33.0248 32.025 33.4648C32.025 34.4248 31.4505 35.8748 30.4305 37.2798C30.3305 37.4148 30.235 37.5398 30.135 37.6648C30.135 37.6698 30.13 37.6698 30.13 37.6698H30.125C29.44 38.0348 28.66 38.7048 27.935 39.5848C27.7795 39.7698 27.6345 39.9598 27.49 40.1598C27.375 40.3198 27.265 40.4748 27.165 40.6348C27.06 40.4748 26.95 40.3198 26.84 40.1598C26.69 39.9598 26.545 39.7698 26.3905 39.5848C25.6605 38.6998 24.8755 38.0298 24.1905 37.6698V37.6648C24.0905 37.5398 23.9955 37.4148 23.8955 37.2798C22.8755 35.8748 22.3005 34.4248 22.3005 33.4648C22.3005 33.0248 22.4205 32.6848 22.6755 32.4998C23.0205 32.2448 23.5655 32.3198 24.1905 32.6498C24.8755 33.0098 25.6605 33.6848 26.3955 34.5698C26.5455 34.7498 26.6905 34.9448 26.8405 35.1448C26.951 35.2998 27.0605 35.4598 27.1655 35.6198C27.2655 35.4598 27.3755 35.2998 27.4905 35.1448C27.635 34.9448 27.78 34.7498 27.9355 34.5698C28.6655 33.6848 29.4455 33.0148 30.1305 32.6498C30.76 32.3198 31.305 32.2448 31.65 32.4998Z" fill="#7AA9A6"/>
<path d="M31.65 37.515C31.905 37.7 32.025 38.04 32.025 38.48C32.025 39.44 31.4505 40.89 30.4305 42.295C30.3305 42.425 30.235 42.555 30.13 42.685C29.445 43.045 28.6605 43.72 27.9305 44.605C27.78 44.785 27.63 44.975 27.4905 45.175C27.3755 45.335 27.2655 45.495 27.1655 45.65C27.0605 45.495 26.9505 45.335 26.8405 45.175C26.6905 44.975 26.5455 44.785 26.3955 44.605C25.6605 43.72 24.8755 43.045 24.1905 42.685C24.1905 42.68 24.1905 42.68 24.1905 42.68C24.0905 42.555 23.9955 42.43 23.8955 42.295C22.8755 40.89 22.3005 39.44 22.3005 38.48C22.3005 38.04 22.4205 37.7 22.6755 37.515C23.0205 37.26 23.5655 37.335 24.1905 37.665V37.67C24.8755 38.03 25.6605 38.7 26.3905 39.585C26.5455 39.77 26.6905 39.96 26.84 40.16C26.9505 40.32 27.06 40.475 27.165 40.635C27.265 40.475 27.375 40.32 27.49 40.16C27.6345 39.96 27.7795 39.77 27.935 39.585C28.66 38.705 29.44 38.035 30.125 37.67H30.13C30.13 37.67 30.135 37.67 30.135 37.665C30.76 37.335 31.305 37.26 31.65 37.515Z" fill="#7AA9A6"/>
<path d="M31.65 42.5299C31.905 42.7149 32.0251 43.0549 32.0251 43.4949C32.0251 44.4549 31.4505 45.9049 30.4305 47.3099C30.3305 47.4449 30.235 47.5699 30.135 47.6949C30.135 47.6949 30.135 47.6999 30.13 47.6999C30.13 47.6999 30.125 47.6999 30.125 47.7049C29.3 48.1399 28.335 49.0199 27.49 50.1899C27.375 50.3499 27.2651 50.5099 27.1651 50.6649C27.0601 50.5099 26.95 50.3499 26.835 50.1899C25.9905 49.0199 25.0201 48.1349 24.1901 47.6999C24.1901 47.6999 24.19 47.6949 24.185 47.6949C24.09 47.5699 23.9951 47.4449 23.8951 47.3099C22.8751 45.9049 22.3 44.4549 22.3 43.4949C22.3 43.0549 22.42 42.7149 22.675 42.5299C23.02 42.2799 23.5651 42.3499 24.1901 42.6799C24.1901 42.6799 24.1901 42.6799 24.1901 42.6849C24.8751 43.0449 25.6601 43.7199 26.3951 44.6049C26.5451 44.7849 26.69 44.9749 26.84 45.1749C26.9505 45.3349 27.0601 45.4949 27.1651 45.6499C27.2651 45.4949 27.375 45.3349 27.49 45.1749C27.6295 44.9749 27.7795 44.7849 27.93 44.6049C28.66 43.7199 29.4445 43.0449 30.1295 42.6849C30.76 42.3499 31.305 42.2799 31.65 42.5299Z" fill="#7AA9A6"/>
<path d="M31.65 47.545C31.905 47.73 32.025 48.07 32.025 48.51C32.025 49.47 31.445 50.92 30.425 52.325C30.425 52.33 30.425 52.33 30.42 52.335C29.535 52.705 28.44 53.66 27.4905 54.965C27.3755 55.12 27.2655 55.28 27.1655 55.435C27.0605 55.28 26.9505 55.12 26.8355 54.965C25.8855 53.655 24.7855 52.7 23.9005 52.335C23.9005 52.33 23.9005 52.33 23.8955 52.325C22.8755 50.915 22.2955 49.47 22.2955 48.51C22.2955 48.07 22.4155 47.73 22.6705 47.545C23.0205 47.295 23.5655 47.3701 24.1855 47.6951C24.1905 47.6951 24.1905 47.7001 24.1905 47.7001C25.0205 48.1351 25.991 49.02 26.8355 50.19C26.9505 50.35 27.0605 50.51 27.1655 50.665C27.2655 50.51 27.3755 50.35 27.4905 50.19C28.335 49.02 29.3 48.1401 30.1255 47.7051C30.1255 47.7001 30.1305 47.7001 30.1305 47.7001C30.1355 47.7001 30.1355 47.6951 30.1355 47.6951C30.76 47.3701 31.3 47.295 31.65 47.545Z" fill="#7AA9A6"/>
<path d="M21.855 17.45C22.11 17.635 22.23 17.975 22.23 18.415C22.23 19.375 21.65 20.825 20.63 22.23C20.5355 22.365 20.435 22.495 20.335 22.62C19.65 22.985 18.8655 23.655 18.135 24.54H18.13C17.98 24.725 17.835 24.915 17.69 25.115C17.5755 25.27 17.4705 25.43 17.3655 25.585C17.26 25.43 17.155 25.27 17.0405 25.115C16.8955 24.915 16.7455 24.72 16.5955 24.54C15.8655 23.655 15.0805 22.98 14.3955 22.62C14.3905 22.62 14.3905 22.62 14.3905 22.62C14.2955 22.495 14.195 22.365 14.1005 22.23C12.6105 20.18 12.0655 18.04 12.8755 17.45C13.2255 17.195 13.7655 17.275 14.3905 17.605H14.3955C15.0805 17.965 15.8655 18.635 16.5955 19.52C16.7455 19.705 16.8955 19.9 17.0405 20.1C17.155 20.255 17.26 20.41 17.3655 20.57C17.4705 20.41 17.5755 20.255 17.69 20.1C17.835 19.9 17.985 19.705 18.135 19.52C18.8655 18.64 19.6455 17.97 20.3305 17.61V17.605C20.96 17.275 21.505 17.195 21.855 17.45Z" fill="#7AA9A6"/>
<path d="M21.855 22.4651C22.11 22.6501 22.23 22.9901 22.23 23.4301C22.23 24.3901 21.65 25.8401 20.63 27.2501C20.5355 27.3851 20.435 27.5151 20.33 27.6401C19.645 28.0051 18.865 28.6751 18.1345 29.5551C17.9845 29.7401 17.8345 29.9301 17.6895 30.1301C17.575 30.2851 17.47 30.4451 17.365 30.6001C17.2595 30.4451 17.1545 30.2851 17.04 30.1301C16.895 29.9301 16.745 29.7401 16.595 29.5551C15.865 28.6701 15.08 28.0001 14.395 27.6401L14.39 27.6351C14.295 27.5101 14.1945 27.3851 14.1 27.2501C12.61 25.1951 12.065 23.0551 12.875 22.4651C13.225 22.2151 13.765 22.2901 14.39 22.6201C14.39 22.6201 14.39 22.6201 14.395 22.6201C15.08 22.9801 15.865 23.6551 16.595 24.5401C16.745 24.7201 16.895 24.9151 17.04 25.1151C17.1545 25.2701 17.2595 25.4301 17.365 25.5851C17.47 25.4301 17.575 25.2701 17.6895 25.1151C17.8345 24.9151 17.9795 24.7251 18.1295 24.5401H18.1345C18.865 23.6551 19.6495 22.9851 20.3345 22.6201C20.96 22.2901 21.505 22.2151 21.855 22.4651Z" fill="#7AA9A6"/>
<path d="M21.855 27.4849C22.11 27.6699 22.23 28.0099 22.23 28.4499C22.23 29.4099 21.65 30.8549 20.63 32.2599C20.5355 32.3949 20.435 32.5249 20.335 32.6499C19.65 33.0149 18.8655 33.6849 18.135 34.5699C17.985 34.7499 17.835 34.9449 17.69 35.1449C17.5755 35.2999 17.4705 35.4599 17.3655 35.6199C17.26 35.4599 17.155 35.2999 17.0405 35.1449C16.8955 34.9449 16.7455 34.7499 16.5955 34.5699C15.8655 33.6849 15.0805 33.0099 14.3955 32.6499C14.3905 32.6499 14.3905 32.6499 14.3905 32.6499C14.2955 32.5249 14.195 32.3999 14.1005 32.2599C12.6105 30.2099 12.0655 28.0749 12.8755 27.4849C13.2255 27.2299 13.7655 27.3049 14.3905 27.6349L14.3955 27.6399C15.0805 27.9999 15.8655 28.6699 16.5955 29.5549C16.7455 29.7399 16.8955 29.9299 17.0405 30.1299C17.155 30.2849 17.26 30.4449 17.3655 30.5999C17.4705 30.4449 17.5755 30.2849 17.69 30.1299C17.835 29.9299 17.985 29.7399 18.135 29.5549C18.8655 28.6749 19.6455 28.0049 20.3305 27.6399C20.7055 27.4399 21.05 27.3349 21.3455 27.3349C21.54 27.3349 21.715 27.3799 21.855 27.4849Z" fill="#7AA9A6"/>
<path d="M21.855 32.4998C22.11 32.6848 22.23 33.0248 22.23 33.4648C22.23 34.4248 21.65 35.8748 20.63 37.2798C20.5355 37.4148 20.435 37.5448 20.33 37.6698C19.645 38.0348 18.865 38.7048 18.1345 39.5848C17.9845 39.7698 17.8345 39.9598 17.6895 40.1598C17.575 40.3198 17.47 40.4748 17.365 40.6348C17.2595 40.4748 17.1545 40.3198 17.04 40.1598C16.895 39.9598 16.745 39.7698 16.595 39.5848C15.865 38.6998 15.08 38.0298 14.395 37.6698L14.39 37.6648C14.295 37.5398 14.1945 37.4148 14.1 37.2798C12.61 35.2298 12.065 33.0898 12.875 32.4998C13.225 32.2448 13.765 32.3198 14.39 32.6498C14.39 32.6498 14.39 32.6498 14.395 32.6498C15.08 33.0098 15.865 33.6848 16.595 34.5698C16.745 34.7498 16.895 34.9448 17.04 35.1448C17.1545 35.2998 17.2595 35.4598 17.365 35.6198C17.47 35.4598 17.575 35.2998 17.6895 35.1448C17.8345 34.9448 17.9845 34.7498 18.1345 34.5698C18.865 33.6848 19.6495 33.0148 20.3345 32.6498C20.96 32.3198 21.505 32.2448 21.855 32.4998Z" fill="#7AA9A6"/>
<path d="M21.855 37.515C22.11 37.7 22.23 38.04 22.23 38.48C22.23 39.44 21.65 40.89 20.63 42.295C20.5355 42.425 20.435 42.555 20.335 42.685C19.65 43.045 18.8655 43.72 18.135 44.605H18.13C17.98 44.785 17.835 44.975 17.69 45.175C17.5755 45.335 17.4705 45.495 17.3655 45.65C17.26 45.495 17.155 45.335 17.0405 45.175C16.8955 44.975 16.7455 44.785 16.5955 44.605C15.8655 43.72 15.0805 43.045 14.3955 42.685C14.3905 42.68 14.3905 42.68 14.3905 42.68C14.2955 42.555 14.195 42.43 14.1005 42.295C12.6105 40.245 12.0655 38.105 12.8755 37.515C13.2255 37.26 13.7655 37.335 14.3905 37.665L14.3955 37.67C15.0805 38.03 15.8655 38.7 16.5955 39.585C16.7455 39.77 16.8955 39.96 17.0405 40.16C17.155 40.32 17.26 40.475 17.3655 40.635C17.4705 40.475 17.5755 40.32 17.69 40.16C17.835 39.96 17.985 39.77 18.135 39.585C18.8655 38.705 19.6455 38.035 20.3305 37.67C20.7055 37.47 21.05 37.365 21.3455 37.365C21.54 37.365 21.715 37.41 21.855 37.515Z" fill="#7AA9A6"/>
<path d="M21.855 42.5299C22.11 42.7149 22.23 43.0549 22.23 43.4949C22.23 44.4549 21.65 45.9049 20.63 47.3099C20.5355 47.4449 20.435 47.5749 20.33 47.6999C19.505 48.1399 18.535 49.0249 17.69 50.1899C17.58 50.3499 17.465 50.5099 17.3655 50.6649C17.26 50.5099 17.155 50.3499 17.0405 50.1899C16.1955 49.0199 15.2205 48.1349 14.3955 47.6999C14.3905 47.6949 14.385 47.6949 14.385 47.6949C14.2905 47.5699 14.195 47.4449 14.1005 47.3099C12.6105 45.2599 12.0655 43.1199 12.8755 42.5299C13.2255 42.2799 13.7655 42.3499 14.3905 42.6799C14.3905 42.6799 14.3905 42.6799 14.3955 42.6849C15.0805 43.0449 15.8655 43.7199 16.5955 44.6049C16.7455 44.7849 16.8955 44.9749 17.0405 45.1749C17.155 45.3349 17.26 45.4949 17.3655 45.6499C17.4705 45.4949 17.5755 45.3349 17.69 45.1749C17.835 44.9749 17.98 44.7849 18.13 44.6049H18.135C18.8655 43.7199 19.65 43.0449 20.335 42.6849C20.96 42.3499 21.505 42.2799 21.855 42.5299Z" fill="#7AA9A6"/>
<path d="M20.33 47.6999C20.96 47.3699 21.505 47.2899 21.855 47.5449C22.11 47.7299 22.23 48.0699 22.23 48.5099C22.23 49.4699 21.65 50.9199 20.63 52.3249C20.625 52.3299 20.625 52.3299 20.625 52.3349C19.74 52.6999 18.64 53.6549 17.69 54.9599C17.5755 55.1199 17.4705 55.2749 17.3655 55.4349C17.26 55.2749 17.155 55.1199 17.0405 54.9599C16.9755 54.8749 16.9155 54.7849 16.8455 54.7049C15.945 53.5299 14.9305 52.6749 14.1055 52.3349C14.1005 52.3299 14.1005 52.3299 14.1005 52.3249C12.6105 50.2749 12.0655 48.1349 12.8755 47.5449C13.2205 47.2949 13.7605 47.3699 14.3855 47.6949C14.3855 47.6949 14.391 47.6949 14.396 47.6999C15.221 48.1349 16.196 49.0199 17.041 50.1899C17.1555 50.3499 17.2605 50.5099 17.366 50.6649C17.4655 50.5099 17.581 50.3499 17.6905 50.1899C18.535 49.0249 19.505 48.1399 20.33 47.6999Z" fill="#7AA9A6"/>
<path d="M16.845 54.7051C16.915 54.7851 16.975 54.8751 17.04 54.9601C17.1545 55.1201 17.2595 55.2751 17.365 55.4351C17.47 55.2751 17.575 55.1201 17.6895 54.9601C18.6395 53.6551 19.74 52.7001 20.6245 52.3351C21.1295 52.1251 21.5595 52.1051 21.8545 52.3151C22.1095 52.5001 22.2295 52.8401 22.2295 53.2801C22.2295 54.2401 21.6495 55.6901 20.6295 57.0951C20.0645 57.8751 19.4395 58.5301 18.845 59.0101C17.98 59.7051 16.75 59.7051 15.8845 59.0101C15.285 58.5301 14.665 57.8751 14.1 57.0951C12.61 55.0451 12.065 52.9051 12.875 52.3151C13.17 52.1051 13.6 52.1251 14.105 52.3351C14.93 52.6751 15.945 53.5301 16.845 54.7051Z" fill="#7AA9A6"/>
<path d="M8.5 6.975V9.96V10.5C8.5 11.05 8.05 11.5 7.5 11.5H6.5V5.5H7.5C8.05 5.5 8.5 5.95 8.5 6.5V6.975Z" fill="#7AA9A6"/>
<path d="M6.5 5.5V11.5H5.5C4.95 11.5 4.5 11.05 4.5 10.5V6.5C4.5 5.95 4.95 5.5 5.5 5.5H6.5Z" fill="#7AA9A6"/>
<path d="M45.595 13.9551C45.93 14.2201 46.22 14.4201 46.43 14.4601" stroke="white" stroke-miterlimit="10" stroke-linecap="round" stroke-linejoin="round"/>
<path d="M45.12 13.5701C45.285 13.7051 45.44 13.8351 45.5895 13.9501" stroke="white" stroke-miterlimit="10" stroke-linecap="round" stroke-linejoin="round"/>
<path d="M43.83 12.6101C44.2595 12.8651 44.6999 13.2201 45.0999 13.5551" stroke="white" stroke-miterlimit="10" stroke-linecap="round" stroke-linejoin="round"/>
<path d="M42.38 12.37C42.755 12.17 43.205 12.275 43.665 12.525" stroke="white" stroke-miterlimit="10" stroke-linecap="round" stroke-linejoin="round"/>
<path d="M46.585 14.46C46.605 14.46 46.62 14.46 46.64 14.455C48.115 14.28 49.875 11.44 51.245 12.435C52.06 13.025 51.515 15.165 50.025 17.215C49.9305 17.35 49.8255 17.48 49.725 17.605" stroke="white" stroke-miterlimit="10" stroke-linecap="round" stroke-linejoin="round"/>
<path d="M37 14.4652C37.045 14.4652 37.095 14.4602 37.14 14.4552C38.615 14.2802 40.14 11.4852 41.45 12.4352C41.705 12.6202 41.825 12.9602 41.825 13.4002C41.825 14.3602 41.25 15.8102 40.23 17.2152C40.13 17.3502 40.03 17.4802 39.925 17.6052" stroke="white" stroke-miterlimit="10" stroke-linecap="round" stroke-linejoin="round"/>
<path d="M33.985 17.6052C33.8905 17.4802 33.79 17.3502 33.695 17.2152C32.675 15.8102 32.0955 14.3602 32.0955 13.4002C32.0955 12.9602 32.215 12.6202 32.4705 12.4352C33.545 11.6602 35.38 13.7852 36.5405 14.3352C36.6705 14.4002 36.7905 14.4402 36.9005 14.4602" stroke="white" stroke-miterlimit="10" stroke-linecap="round" stroke-linejoin="round"/>
<path d="M24.1901 17.6051C24.0901 17.4801 23.9951 17.3501 23.8951 17.2151C22.8751 15.8101 22.3 14.3601 22.3 13.4001C22.3 12.9601 22.42 12.6201 22.675 12.4351C23.585 11.7751 25.1101 13.2501 26.1551 14.0251C26.4651 14.2551 26.73 14.4251 26.9305 14.4601" stroke="white" stroke-miterlimit="10" stroke-linecap="round" stroke-linejoin="round"/>
<path d="M27.425 14.3552C28.6205 13.8452 30.61 11.6852 31.65 12.4352C31.905 12.6202 32.0251 12.9602 32.0251 13.4002C32.0251 14.3602 31.4505 15.8102 30.4305 17.2152C30.3355 17.3502 30.2305 17.4802 30.13 17.6052" stroke="white" stroke-miterlimit="10" stroke-linecap="round" stroke-linejoin="round"/>
<path d="M27.1 14.4601C27.13 14.4551 27.16 14.4501 27.19 14.4401C27.255 14.4251 27.3255 14.4001 27.395 14.3701" stroke="white" stroke-miterlimit="10" stroke-linecap="round" stroke-linejoin="round"/>
<path d="M18.085 14.26C19.205 13.615 20.81 11.675 21.855 12.435C22.11 12.62 22.23 12.96 22.23 13.4C22.23 14.36 21.65 15.81 20.63 17.215C20.5355 17.35 20.435 17.48 20.33 17.605" stroke="white" stroke-miterlimit="10" stroke-linecap="round" stroke-linejoin="round"/>
<path d="M17.6 14.46C17.74 14.435 17.9 14.37 18.065 14.27" stroke="white" stroke-miterlimit="10" stroke-linecap="round" stroke-linejoin="round"/>
<path d="M14.39 17.6052C14.295 17.4802 14.1945 17.3502 14.1 17.2152C12.61 15.1652 12.065 13.0252 12.875 12.4352C14.235 11.4602 15.945 14.2702 17.36 14.4552C17.405 14.4602 17.455 14.4652 17.5 14.4652" stroke="white" stroke-miterlimit="10" stroke-linecap="round" stroke-linejoin="round"/>
<path d="M48.5 6.96509H55.85C57.22 6.96509 58.41 7.49509 59.5 8.47009C58.41 9.44009 57.22 9.96509 55.85 9.96509H48.5" stroke="white" stroke-miterlimit="10" stroke-linecap="round" stroke-linejoin="round"/>
<path d="M44.24 9.97021L39 9.97521H38.98" stroke="white" stroke-miterlimit="10" stroke-linecap="round" stroke-linejoin="round"/>
<path d="M44.305 6.95508L38.915 6.96008" stroke="white" stroke-miterlimit="10" stroke-linecap="round" stroke-linejoin="round"/>
<path d="M34.9451 9.9751H29.1801" stroke="white" stroke-miterlimit="10" stroke-linecap="round" stroke-linejoin="round"/>
<path d="M19.515 9.9751H23.57H25H25.015" stroke="white" stroke-miterlimit="10" stroke-linecap="round" stroke-linejoin="round"/>
<path d="M19.3199 6.96021H23.6299H25.1949H25.2099" stroke="white" stroke-miterlimit="10" stroke-linecap="round" stroke-linejoin="round"/>
<path d="M15.35 9.97496H8.95995C8.82995 9.97496 8.70495 9.96996 8.57495 9.95996" stroke="white" stroke-miterlimit="10" stroke-linecap="round" stroke-linejoin="round"/>
<path d="M15.495 6.96021H8.89C8.7595 6.96021 8.6295 6.9602 8.5 6.9752H8.495" stroke="white" stroke-miterlimit="10" stroke-linecap="round" stroke-linejoin="round"/>
<path d="M14.39 22.6202C14.295 22.4952 14.1945 22.3652 14.1 22.2302C12.61 20.1802 12.065 18.0402 12.875 17.4502C13.225 17.1952 13.765 17.2752 14.39 17.6052H14.395C15.08 17.9652 15.865 18.6352 16.595 19.5202C16.745 19.7052 16.895 19.9002 17.04 20.1002C17.1545 20.2552 17.2595 20.4102 17.365 20.5702C17.47 20.4102 17.575 20.2552 17.6895 20.1002C17.8345 19.9002 17.9845 19.7052 18.1345 19.5202C18.865 18.6402 19.645 17.9702 20.33 17.6102V17.6052C20.96 17.2752 21.505 17.1952 21.855 17.4502C22.11 17.6352 22.23 17.9752 22.23 18.4152C22.23 19.3752 21.65 20.8252 20.63 22.2302C20.5355 22.3652 20.435 22.4952 20.335 22.6202" stroke="white" stroke-miterlimit="10" stroke-linecap="round" stroke-linejoin="round"/>
<path d="M14.39 27.6351C14.295 27.5101 14.1945 27.3851 14.1 27.2501C12.61 25.1951 12.065 23.0551 12.875 22.4651C13.225 22.2151 13.765 22.2901 14.39 22.6201C14.39 22.6201 14.39 22.6201 14.395 22.6201C15.08 22.9801 15.865 23.6551 16.595 24.5401C16.745 24.7201 16.895 24.9151 17.04 25.1151C17.1545 25.2701 17.2595 25.4301 17.365 25.5851C17.47 25.4301 17.575 25.2701 17.6895 25.1151C17.8345 24.9151 17.9795 24.7251 18.1295 24.5401H18.1345C18.865 23.6551 19.6495 22.9851 20.3345 22.6201C20.9595 22.2901 21.5045 22.2151 21.8545 22.4651C22.1095 22.6501 22.2295 22.9901 22.2295 23.4301C22.2295 24.3901 21.6495 25.8401 20.6295 27.2501C20.535 27.3851 20.4345 27.5151 20.3295 27.6401" stroke="white" stroke-miterlimit="10" stroke-linecap="round" stroke-linejoin="round"/>
<path d="M14.39 32.6502C14.295 32.5252 14.1945 32.4002 14.1 32.2602C12.61 30.2102 12.065 28.0752 12.875 27.4852C13.225 27.2302 13.765 27.3052 14.39 27.6352L14.395 27.6402C15.08 28.0002 15.865 28.6702 16.595 29.5552C16.745 29.7402 16.895 29.9302 17.04 30.1302C17.1545 30.2852 17.2595 30.4452 17.365 30.6002C17.47 30.4452 17.575 30.2852 17.6895 30.1302C17.8345 29.9302 17.9845 29.7402 18.1345 29.5552C18.865 28.6752 19.645 28.0052 20.33 27.6402C20.705 27.4402 21.0495 27.3352 21.345 27.3352C21.54 27.3352 21.7145 27.3802 21.855 27.4852C22.11 27.6702 22.23 28.0102 22.23 28.4502C22.23 29.4102 21.65 30.8552 20.63 32.2602C20.5355 32.3952 20.435 32.5252 20.335 32.6502" stroke="white" stroke-miterlimit="10" stroke-linecap="round" stroke-linejoin="round"/>
<path d="M14.39 37.6651C14.295 37.5401 14.1945 37.4151 14.1 37.2801C12.61 35.2301 12.065 33.0901 12.875 32.5001C13.225 32.2451 13.765 32.3201 14.39 32.6501C14.39 32.6501 14.39 32.6501 14.395 32.6501C15.08 33.0101 15.865 33.6851 16.595 34.5701C16.745 34.7501 16.895 34.9451 17.04 35.1451C17.1545 35.3001 17.2595 35.4601 17.365 35.6201C17.47 35.4601 17.575 35.3001 17.6895 35.1451C17.8345 34.9451 17.9845 34.7501 18.1345 34.5701C18.865 33.6851 19.6495 33.0151 20.3345 32.6501C20.9595 32.3201 21.5045 32.2451 21.8545 32.5001C22.1095 32.6851 22.2295 33.0251 22.2295 33.4651C22.2295 34.4251 21.6495 35.8751 20.6295 37.2801C20.535 37.4151 20.4345 37.5451 20.3295 37.6701" stroke="white" stroke-miterlimit="10" stroke-linecap="round" stroke-linejoin="round"/>
<path d="M14.39 42.6802C14.295 42.5552 14.1945 42.4302 14.1 42.2952C12.61 40.2452 12.065 38.1052 12.875 37.5152C13.225 37.2602 13.765 37.3352 14.39 37.6652L14.395 37.6702C15.08 38.0302 15.865 38.7002 16.595 39.5852C16.745 39.7702 16.895 39.9602 17.04 40.1602C17.1545 40.3202 17.2595 40.4752 17.365 40.6352C17.47 40.4752 17.575 40.3202 17.6895 40.1602C17.8345 39.9602 17.9845 39.7702 18.1345 39.5852C18.865 38.7052 19.645 38.0352 20.33 37.6702C20.705 37.4702 21.0495 37.3652 21.345 37.3652C21.54 37.3652 21.7145 37.4102 21.855 37.5152C22.11 37.7002 22.23 38.0402 22.23 38.4802C22.23 39.4402 21.65 40.8902 20.63 42.2952C20.5355 42.4252 20.435 42.5552 20.335 42.6852" stroke="white" stroke-miterlimit="10" stroke-linecap="round" stroke-linejoin="round"/>
<path d="M14.385 47.6952C14.2905 47.5702 14.195 47.4452 14.1005 47.3102C12.6105 45.2602 12.0655 43.1202 12.8755 42.5302C13.2255 42.2802 13.7655 42.3502 14.3905 42.6802C14.3905 42.6802 14.3905 42.6802 14.3955 42.6852C15.0805 43.0452 15.8655 43.7202 16.5955 44.6052C16.7455 44.7852 16.8955 44.9752 17.0405 45.1752C17.155 45.3352 17.26 45.4952 17.3655 45.6502C17.4705 45.4952 17.5755 45.3352 17.69 45.1752C17.835 44.9752 17.98 44.7852 18.13 44.6052H18.135C18.8655 43.7202 19.65 43.0452 20.335 42.6852C20.96 42.3502 21.505 42.2802 21.855 42.5302C22.11 42.7152 22.23 43.0552 22.23 43.4952C22.23 44.4552 21.65 45.9052 20.63 47.3102C20.5355 47.4452 20.435 47.5752 20.33 47.7002V47.7052" stroke="white" stroke-miterlimit="10" stroke-linecap="round" stroke-linejoin="round"/>
<path d="M16.845 54.7051H16.84" stroke="white" stroke-miterlimit="10" stroke-linecap="round" stroke-linejoin="round"/>
<path d="M14.105 52.3352C14.1 52.3302 14.1 52.3302 14.1 52.3252C12.61 50.2752 12.065 48.1352 12.875 47.5452C13.22 47.2952 13.76 47.3702 14.385 47.6952C14.385 47.6952 14.3905 47.6952 14.3955 47.7002C15.2205 48.1352 16.1955 49.0202 17.0405 50.1902C17.155 50.3502 17.26 50.5102 17.3655 50.6652C17.465 50.5102 17.5805 50.3502 17.69 50.1902C18.535 49.0252 19.505 48.1402 20.33 47.7002C20.96 47.3702 21.505 47.2902 21.855 47.5452C22.11 47.7302 22.23 48.0702 22.23 48.5102C22.23 49.4702 21.65 50.9202 20.63 52.3252C20.625 52.3302 20.625 52.3302 20.625 52.3352" stroke="white" stroke-miterlimit="10" stroke-linecap="round" stroke-linejoin="round"/>
<path d="M16.845 54.7051C16.915 54.7851 16.975 54.8751 17.04 54.9601C17.1545 55.1201 17.2595 55.2751 17.365 55.4351C17.47 55.2751 17.575 55.1201 17.6895 54.9601C18.6395 53.6551 19.74 52.7001 20.6245 52.3351C21.1295 52.1251 21.5595 52.1051 21.8545 52.3151C22.1095 52.5001 22.2295 52.8401 22.2295 53.2801C22.2295 54.2401 21.6495 55.6901 20.6295 57.0951C20.0645 57.8751 19.4395 58.5301 18.845 59.0101C17.98 59.7051 16.75 59.7051 15.8845 59.0101C15.285 58.5301 14.665 57.8751 14.1 57.0951C12.61 55.0451 12.065 52.9051 12.875 52.3151C13.17 52.1051 13.6 52.1251 14.105 52.3351C14.93 52.6751 15.945 53.5301 16.845 54.7051Z" stroke="white" stroke-miterlimit="10" stroke-linecap="round" stroke-linejoin="round"/>
<path d="M18.065 14.2701C18.07 14.2701 18.08 14.2651 18.085 14.2601C18.2405 14.1501 18.39 13.9951 18.525 13.8051C19.0955 13.0051 19.48 11.5701 19.5 9.97509C19.5 9.97009 19.5 9.97009 19.5 9.96509V8.96509C19.5 8.93009 19.5 8.89009 19.5 8.85509C19.5 8.17009 19.43 7.53009 19.31 6.96509H19.305C18.99 5.46509 18.2995 4.46509 17.5 4.46509C16.695 4.46509 16 5.48009 15.685 7.00009C15.565 7.55509 15.5 8.18509 15.5 8.85509C15.5 8.89009 15.5 8.93009 15.5 8.96509V9.96509V9.97009C15.515 11.5701 15.905 13.0051 16.475 13.8051C16.74 14.1701 17.04 14.4001 17.36 14.4551C17.405 14.4601 17.455 14.4651 17.5 14.4651C17.535 14.4651 17.565 14.4651 17.6 14.4601" stroke="white" stroke-miterlimit="10" stroke-linecap="round" stroke-linejoin="round"/>
<path d="M27.395 14.3701C27.405 14.3701 27.415 14.3651 27.425 14.3551C27.6405 14.2501 27.84 14.0601 28.025 13.8051C28.5955 13.0051 28.985 11.5701 29 9.97009V9.96509V8.96509C29 8.93009 29 8.89009 29 8.85509C29 8.20009 28.935 7.58509 28.825 7.03509C28.515 5.49509 27.815 4.46509 27 4.46509C26.2 4.46509 25.51 5.46509 25.195 6.96009C25.07 7.53009 25 8.17009 25 8.85509C25 8.89009 25 8.93009 25 8.96509V9.96509C25 9.97009 25 9.97009 25 9.97509C25.02 11.5701 25.405 13.0051 25.975 13.8051C26.035 13.8851 26.0895 13.9601 26.1545 14.0251" stroke="white" stroke-miterlimit="10" stroke-linecap="round" stroke-linejoin="round"/>
<path d="M26.9301 14.46C26.9551 14.465 26.9751 14.465 27.0001 14.465C27.0351 14.465 27.0651 14.465 27.1001 14.46" stroke="white" stroke-miterlimit="10" stroke-linecap="round" stroke-linejoin="round"/>
<path d="M36.9 14.4601C36.935 14.4651 36.965 14.4651 37 14.4651C37.045 14.4651 37.095 14.4601 37.14 14.4551C37.46 14.4001 37.7595 14.1701 38.025 13.8051C38.5955 13.0051 38.98 11.5701 39 9.97509C39 9.97009 39 9.97009 39 9.96509V8.96509C39 8.93009 39 8.89009 39 8.85509C39 8.17509 38.935 7.54009 38.81 6.98009C38.495 5.47509 37.805 4.46509 37 4.46509C36.185 4.46509 35.485 5.49509 35.175 7.03509C35.065 7.58509 35 8.20009 35 8.85509C35 8.89009 35 8.93009 35 8.96509V9.96509C35 9.97009 35 9.97009 35 9.97509C35.02 11.5701 35.405 13.0051 35.975 13.8051C36.15 14.0451 36.3395 14.2251 36.54 14.3351" stroke="white" stroke-miterlimit="10" stroke-linecap="round" stroke-linejoin="round"/>
<path d="M46.43 14.4601C46.455 14.4651 46.475 14.4651 46.5 14.4651C46.53 14.4651 46.555 14.4651 46.585 14.4601C46.605 14.4601 46.62 14.4551 46.64 14.4551C46.96 14.4001 47.2595 14.1701 47.525 13.8051C48.0955 13.0051 48.485 11.5651 48.5 9.96509V8.96509C48.5 8.93009 48.5 8.89009 48.5 8.85509C48.5 8.18509 48.435 7.56009 48.315 7.00509C48.005 5.48509 47.31 4.46509 46.5 4.46509C45.685 4.46509 44.985 5.49509 44.68 7.03509C44.565 7.58509 44.5 8.20009 44.5 8.85509C44.5 8.89009 44.5 8.93009 44.5 8.96509V9.96509C44.515 11.5801 44.91 13.0301 45.49 13.8251C45.52 13.8701 45.555 13.9101 45.5895 13.9501L45.595 13.9551" stroke="white" stroke-miterlimit="10" stroke-linecap="round" stroke-linejoin="round"/>
<path d="M24.1901 22.6202C24.0901 22.4952 23.9951 22.3652 23.8951 22.2302C22.8751 20.8252 22.3 19.3752 22.3 18.4152C22.3 17.9752 22.42 17.6352 22.675 17.4502C23.02 17.1952 23.5651 17.2752 24.1901 17.6052C24.8751 17.9652 25.6601 18.6352 26.3901 19.5202C26.5451 19.7052 26.6901 19.9002 26.8396 20.1002C26.9501 20.2552 27.0596 20.4102 27.1646 20.5702C27.2646 20.4102 27.3746 20.2552 27.4896 20.1002C27.6341 19.9002 27.7791 19.7052 27.9346 19.5202C28.6596 18.6402 29.4396 17.9702 30.1246 17.6102L30.1296 17.6052C30.7546 17.2752 31.3051 17.1952 31.6496 17.4502C31.9046 17.6352 32.0246 17.9752 32.0246 18.4152C32.0246 19.3752 31.4501 20.8252 30.4301 22.2302C30.3301 22.3652 30.2346 22.4952 30.1296 22.6202" stroke="white" stroke-miterlimit="10" stroke-linecap="round" stroke-linejoin="round"/>
<path d="M24.1901 27.6351C24.0901 27.5101 23.9951 27.3851 23.8951 27.2501C22.8751 25.8401 22.3 24.3901 22.3 23.4301C22.3 22.9901 22.42 22.6501 22.675 22.4651C23.02 22.2151 23.5651 22.2901 24.1901 22.6201C24.8751 22.9801 25.6601 23.6551 26.3951 24.5401C26.5451 24.7201 26.6901 24.9151 26.8401 25.1151C26.9506 25.2701 27.0601 25.4301 27.1651 25.5851C27.2651 25.4301 27.3751 25.2701 27.4901 25.1151C27.6296 24.9151 27.7796 24.7251 27.9301 24.5401C28.6601 23.6551 29.4446 22.9851 30.1296 22.6201C30.7596 22.2901 31.3051 22.2151 31.6496 22.4651C31.9046 22.6501 32.0246 22.9901 32.0246 23.4301C32.0246 24.3901 31.4501 25.8401 30.4301 27.2501C30.3301 27.3851 30.2346 27.5101 30.1346 27.6351" stroke="white" stroke-miterlimit="10" stroke-linecap="round" stroke-linejoin="round"/>
<path d="M24.1901 32.6502C24.0901 32.5252 23.9951 32.4002 23.8951 32.2602C22.8751 30.8552 22.3 29.4102 22.3 28.4502C22.3 28.0102 22.42 27.6702 22.675 27.4852C23.02 27.2302 23.5651 27.3052 24.1901 27.6352V27.6402C24.8751 28.0002 25.6601 28.6702 26.3901 29.5552C26.5451 29.7402 26.6901 29.9302 26.8396 30.1302C26.9501 30.2852 27.0596 30.4452 27.1646 30.6002C27.2646 30.4452 27.3746 30.2852 27.4896 30.1302C27.6341 29.9302 27.7791 29.7402 27.9346 29.5552C28.6596 28.6752 29.4396 28.0052 30.1246 27.6402H30.1296C30.1296 27.6402 30.1346 27.6402 30.1346 27.6352C30.7596 27.3052 31.3051 27.2302 31.6496 27.4852C31.9046 27.6702 32.0246 28.0102 32.0246 28.4502C32.0246 29.4102 31.4501 30.8552 30.4301 32.2602C30.3301 32.3952 30.2346 32.5252 30.1296 32.6502" stroke="white" stroke-miterlimit="10" stroke-linecap="round" stroke-linejoin="round"/>
<path d="M24.1901 37.6651C24.0901 37.5401 23.9951 37.4151 23.8951 37.2801C22.8751 35.8751 22.3 34.4251 22.3 33.4651C22.3 33.0251 22.42 32.6851 22.675 32.5001C23.02 32.2451 23.5651 32.3201 24.1901 32.6501C24.8751 33.0101 25.6601 33.6851 26.3951 34.5701C26.5451 34.7501 26.69 34.9451 26.84 35.1451C26.9505 35.3001 27.0601 35.4601 27.1651 35.6201C27.2651 35.4601 27.375 35.3001 27.49 35.1451C27.6345 34.9451 27.7795 34.7501 27.935 34.5701C28.665 33.6851 29.445 33.0151 30.13 32.6501C30.76 32.3201 31.3055 32.2451 31.65 32.5001C31.905 32.6851 32.0251 33.0251 32.0251 33.4651C32.0251 34.4251 31.4505 35.8751 30.4305 37.2801C30.3305 37.4151 30.235 37.5401 30.135 37.6651" stroke="white" stroke-miterlimit="10" stroke-linecap="round" stroke-linejoin="round"/>
<path d="M24.1901 42.6802C24.0901 42.5552 23.9951 42.4302 23.8951 42.2952C22.8751 40.8902 22.3 39.4402 22.3 38.4802C22.3 38.0402 22.42 37.7002 22.675 37.5152C23.02 37.2602 23.5651 37.3352 24.1901 37.6652V37.6702C24.8751 38.0302 25.6601 38.7002 26.3901 39.5852C26.5451 39.7702 26.6901 39.9602 26.8396 40.1602C26.9501 40.3202 27.0596 40.4752 27.1646 40.6352C27.2646 40.4752 27.3746 40.3202 27.4896 40.1602C27.6341 39.9602 27.7791 39.7702 27.9346 39.5852C28.6596 38.7052 29.4396 38.0352 30.1246 37.6702H30.1296C30.1296 37.6702 30.1346 37.6702 30.1346 37.6652C30.7596 37.3352 31.3051 37.2602 31.6496 37.5152C31.9046 37.7002 32.0246 38.0402 32.0246 38.4802C32.0246 39.4402 31.4501 40.8902 30.4301 42.2952C30.3301 42.4252 30.2346 42.5552 30.1296 42.6852" stroke="white" stroke-miterlimit="10" stroke-linecap="round" stroke-linejoin="round"/>
<path d="M24.185 47.6952C24.09 47.5702 23.9951 47.4452 23.8951 47.3102C22.8751 45.9052 22.3 44.4552 22.3 43.4952C22.3 43.0552 22.42 42.7152 22.675 42.5302C23.02 42.2802 23.5651 42.3502 24.1901 42.6802C24.1901 42.6802 24.1901 42.6802 24.1901 42.6852C24.8751 43.0452 25.6601 43.7202 26.3951 44.6052C26.5451 44.7852 26.6901 44.9752 26.8401 45.1752C26.9506 45.3352 27.0601 45.4952 27.1651 45.6502C27.2651 45.4952 27.3751 45.3352 27.4901 45.1752C27.6296 44.9752 27.7796 44.7852 27.9301 44.6052C28.6601 43.7202 29.4446 43.0452 30.1296 42.6852C30.7596 42.3502 31.3051 42.2802 31.6496 42.5302C31.9046 42.7152 32.0246 43.0552 32.0246 43.4952C32.0246 44.4552 31.4501 45.9052 30.4301 47.3102C30.3301 47.4452 30.2346 47.5702 30.1346 47.6952" stroke="white" stroke-miterlimit="10" stroke-linecap="round" stroke-linejoin="round"/>
<path d="M23.9 52.3351C23.9 52.3301 23.9 52.3301 23.895 52.3251C22.875 50.9151 22.295 49.4701 22.295 48.5101C22.295 48.0701 22.415 47.73 22.67 47.545C23.02 47.295 23.565 47.3701 24.185 47.6951C24.19 47.6951 24.19 47.7001 24.19 47.7001C25.02 48.1351 25.9905 49.0201 26.835 50.1901C26.95 50.3501 27.06 50.5101 27.165 50.6651C27.265 50.5101 27.375 50.3501 27.49 50.1901C28.3345 49.0201 29.2995 48.1401 30.125 47.7051C30.125 47.7001 30.13 47.7001 30.13 47.7001C30.135 47.7001 30.135 47.6951 30.135 47.6951C30.76 47.3701 31.3 47.295 31.65 47.545C31.905 47.73 32.025 48.0701 32.025 48.5101C32.025 49.4701 31.445 50.9201 30.425 52.3251C30.425 52.3301 30.425 52.3301 30.42 52.3351" stroke="white" stroke-miterlimit="10" stroke-linecap="round" stroke-linejoin="round"/>
<path d="M23.9 52.3351C24.7855 52.7001 25.885 53.6551 26.835 54.9651C26.95 55.1201 27.06 55.2801 27.165 55.4351C27.265 55.2801 27.375 55.1201 27.49 54.9651C28.4395 53.6601 29.535 52.7051 30.4195 52.3351C30.9245 52.1251 31.3595 52.1051 31.6545 52.3151C31.91 52.5001 32.0295 52.8401 32.0295 53.2801C32.0295 54.2401 31.45 55.6851 30.43 57.0951C29.8595 57.8751 29.24 58.5301 28.645 59.0101C27.78 59.7051 26.55 59.7101 25.685 59.0151C25.085 58.5351 24.465 57.8801 23.895 57.0951C22.875 55.6851 22.295 54.2401 22.295 53.2801C22.295 52.8401 22.415 52.5001 22.67 52.3151C22.965 52.1051 23.395 52.1251 23.9 52.3351Z" stroke="white" stroke-miterlimit="10" stroke-linecap="round" stroke-linejoin="round"/>
<path d="M33.985 22.6202C33.8905 22.4952 33.79 22.3652 33.695 22.2302C32.675 20.8252 32.0955 19.3752 32.0955 18.4152C32.0955 17.9752 32.215 17.6352 32.4705 17.4502C32.82 17.1952 33.36 17.2752 33.985 17.6052H33.9905C34.675 17.9652 35.46 18.6352 36.19 19.5202C36.34 19.7052 36.4905 19.9002 36.635 20.1002C36.75 20.2552 36.86 20.4102 36.96 20.5702C37.065 20.4102 37.17 20.2552 37.285 20.1002C37.43 19.9002 37.58 19.7052 37.73 19.5202C38.46 18.6402 39.2405 17.9702 39.925 17.6102V17.6052C40.5555 17.2752 41.1005 17.1952 41.4505 17.4502C41.7055 17.6352 41.8255 17.9752 41.8255 18.4152C41.8255 19.3752 41.2455 20.8252 40.2255 22.2302C40.1305 22.3652 40.03 22.4952 39.9305 22.6202" stroke="white" stroke-miterlimit="10" stroke-linecap="round" stroke-linejoin="round"/>
<path d="M33.985 27.6351C33.8905 27.5101 33.79 27.3851 33.695 27.2501C32.675 25.8401 32.0955 24.3901 32.0955 23.4301C32.0955 22.9901 32.215 22.6501 32.4705 22.4651C32.82 22.2151 33.36 22.2901 33.985 22.6201C33.985 22.6201 33.985 22.6201 33.9905 22.6201C34.675 22.9801 35.46 23.6551 36.19 24.5401C36.34 24.7201 36.4905 24.9151 36.635 25.1151C36.75 25.2701 36.86 25.4301 36.96 25.5851C37.065 25.4301 37.17 25.2701 37.285 25.1151C37.43 24.9151 37.58 24.7251 37.725 24.5401H37.73C38.46 23.6551 39.245 22.9851 39.93 22.6201C40.555 22.2901 41.1 22.2151 41.45 22.4651C41.705 22.6501 41.825 22.9901 41.825 23.4301C41.825 24.3901 41.245 25.8401 40.225 27.2501C40.13 27.3851 40.0295 27.5151 39.9245 27.6401" stroke="white" stroke-miterlimit="10" stroke-linecap="round" stroke-linejoin="round"/>
<path d="M33.985 32.6502C33.8905 32.5252 33.79 32.4002 33.695 32.2602C32.675 30.8552 32.0955 29.4102 32.0955 28.4502C32.0955 28.0102 32.215 27.6702 32.4705 27.4852C32.82 27.2302 33.36 27.3052 33.985 27.6352L33.9905 27.6402C34.675 28.0002 35.46 28.6702 36.19 29.5552C36.34 29.7402 36.4905 29.9302 36.635 30.1302C36.75 30.2852 36.86 30.4452 36.96 30.6002C37.065 30.4452 37.17 30.2852 37.285 30.1302C37.43 29.9302 37.58 29.7402 37.73 29.5552C38.46 28.6752 39.2405 28.0052 39.925 27.6402C40.3 27.4402 40.645 27.3352 40.94 27.3352C41.135 27.3352 41.31 27.3802 41.4505 27.4852C41.7055 27.6702 41.8255 28.0102 41.8255 28.4502C41.8255 29.4102 41.2455 30.8552 40.2255 32.2602C40.1305 32.3952 40.03 32.5252 39.9305 32.6502" stroke="white" stroke-miterlimit="10" stroke-linecap="round" stroke-linejoin="round"/>
<path d="M33.985 37.6651C33.8905 37.5401 33.79 37.4151 33.695 37.2801C32.675 35.8751 32.0955 34.4251 32.0955 33.4651C32.0955 33.0251 32.215 32.6851 32.4705 32.5001C32.82 32.2451 33.36 32.3201 33.985 32.6501C33.985 32.6501 33.985 32.6501 33.9905 32.6501C34.675 33.0101 35.46 33.6851 36.19 34.5701C36.34 34.7501 36.4905 34.9451 36.635 35.1451C36.75 35.3001 36.86 35.4601 36.96 35.6201C37.065 35.4601 37.17 35.3001 37.285 35.1451C37.43 34.9451 37.58 34.7501 37.73 34.5701C38.46 33.6851 39.245 33.0151 39.93 32.6501C40.555 32.3201 41.1 32.2451 41.45 32.5001C41.705 32.6851 41.825 33.0251 41.825 33.4651C41.825 34.4251 41.245 35.8751 40.225 37.2801C40.13 37.4151 40.0295 37.5451 39.9245 37.6701" stroke="white" stroke-miterlimit="10" stroke-linecap="round" stroke-linejoin="round"/>
<path d="M33.985 42.6802C33.8905 42.5552 33.79 42.4302 33.695 42.2952C32.675 40.8902 32.0955 39.4402 32.0955 38.4802C32.0955 38.0402 32.215 37.7002 32.4705 37.5152C32.82 37.2602 33.36 37.3352 33.985 37.6652L33.9905 37.6702C34.675 38.0302 35.46 38.7002 36.19 39.5852C36.34 39.7702 36.4905 39.9602 36.635 40.1602C36.75 40.3202 36.86 40.4752 36.96 40.6352C37.065 40.4752 37.17 40.3202 37.285 40.1602C37.43 39.9602 37.58 39.7702 37.73 39.5852C38.46 38.7052 39.2405 38.0352 39.925 37.6702C40.3 37.4702 40.645 37.3652 40.94 37.3652C41.135 37.3652 41.31 37.4102 41.4505 37.5152C41.7055 37.7002 41.8255 38.0402 41.8255 38.4802C41.8255 39.4402 41.2455 40.8902 40.2255 42.2952C40.1305 42.4252 40.03 42.5552 39.9305 42.6852" stroke="white" stroke-miterlimit="10" stroke-linecap="round" stroke-linejoin="round"/>
<path d="M33.98 47.6952C33.885 47.5702 33.79 47.4452 33.695 47.3102C32.675 45.9052 32.0955 44.4552 32.0955 43.4952C32.0955 43.0552 32.215 42.7152 32.4705 42.5302C32.82 42.2802 33.36 42.3502 33.985 42.6802C33.985 42.6802 33.985 42.6802 33.9905 42.6852C34.675 43.0452 35.46 43.7202 36.19 44.6052C36.34 44.7852 36.4905 44.9752 36.635 45.1752C36.75 45.3352 36.86 45.4952 36.96 45.6502C37.065 45.4952 37.17 45.3352 37.285 45.1752C37.43 44.9752 37.58 44.7852 37.725 44.6052H37.73C38.46 43.7202 39.245 43.0452 39.93 42.6852C40.555 42.3502 41.1 42.2802 41.45 42.5302C41.705 42.7152 41.825 43.0552 41.825 43.4952C41.825 44.4552 41.245 45.9052 40.225 47.3102C40.13 47.4452 40.0295 47.5752 39.9245 47.7002V47.7052" stroke="white" stroke-miterlimit="10" stroke-linecap="round" stroke-linejoin="round"/>
<path d="M33.7 52.3352C33.6945 52.3302 33.6945 52.3302 33.6945 52.3252C32.6745 50.9202 32.095 49.4702 32.095 48.5102C32.095 48.0702 32.2145 47.7302 32.47 47.5452C32.8145 47.2952 33.355 47.3702 33.98 47.6952C33.98 47.6952 33.985 47.6952 33.9905 47.7002C34.815 48.1352 35.7905 49.0202 36.635 50.1902C36.75 50.3502 36.86 50.5102 36.96 50.6652C37.06 50.5102 37.175 50.3502 37.285 50.1902C38.1295 49.0252 39.1 48.1402 39.9245 47.7002C40.555 47.3702 41.1 47.2902 41.45 47.5452C41.705 47.7302 41.825 48.0702 41.825 48.5102C41.825 49.4702 41.245 50.9202 40.225 52.3252C40.225 52.3302 40.225 52.3302 40.22 52.3352" stroke="white" stroke-miterlimit="10" stroke-linecap="round" stroke-linejoin="round"/>
<path d="M33.7 52.3351C34.5245 52.6801 35.54 53.5301 36.435 54.7051H36.44C36.505 54.7901 36.57 54.8751 36.635 54.9651C36.75 55.1201 36.855 55.2801 36.96 55.4351C37.065 55.2801 37.17 55.1201 37.285 54.9651C38.2345 53.6601 39.335 52.7051 40.22 52.3351C40.725 52.1251 41.1545 52.1051 41.45 52.3151C41.705 52.5001 41.825 52.8401 41.825 53.2801C41.825 54.2401 41.245 55.6901 40.225 57.0951C39.66 57.8801 39.035 58.5351 38.44 59.0151C37.5755 59.7101 36.3455 59.7051 35.48 59.0101C34.88 58.5301 34.26 57.8751 33.695 57.0951C32.675 55.6901 32.0955 54.2401 32.0955 53.2801C32.0955 52.8401 32.215 52.5001 32.4705 52.3151C32.765 52.1051 33.195 52.1251 33.7 52.3351Z" stroke="white" stroke-miterlimit="10" stroke-linecap="round" stroke-linejoin="round"/>
<path d="M43.785 17.6051C43.685 17.4801 43.5895 17.3501 43.49 17.2151C42.47 15.8101 41.895 14.3601 41.895 13.4001C41.895 12.9601 42.015 12.6201 42.27 12.4351C42.305 12.4101 42.34 12.3901 42.38 12.3701C42.705 12.2101 43.155 12.2801 43.665 12.5251C43.72 12.5501 43.775 12.5801 43.83 12.6101C44.23 12.8301 44.665 13.1501 45.1 13.5551C45.105 13.5601 45.11 13.5701 45.12 13.5701C45.22 13.6701 45.325 13.7701 45.4245 13.8751C45.4245 13.8801 45.4245 13.8801 45.4245 13.8801" stroke="white" stroke-miterlimit="10" stroke-linecap="round" stroke-linejoin="round"/>
<path d="M43.785 22.6202C43.685 22.4952 43.5895 22.3652 43.49 22.2302C42.47 20.8252 41.895 19.3752 41.895 18.4152C41.895 17.9752 42.015 17.6352 42.27 17.4502C42.62 17.1952 43.16 17.2752 43.785 17.6052C44.47 17.9652 45.2545 18.6352 45.9845 19.5202C46.14 19.7052 46.285 19.9002 46.4345 20.1002C46.5445 20.2552 46.654 20.4102 46.759 20.5702C46.859 20.4102 46.9695 20.2552 47.084 20.1002C47.229 19.9002 47.379 19.7052 47.529 19.5202C48.254 18.6402 49.0345 17.9702 49.7195 17.6102L49.7245 17.6052C50.3495 17.2752 50.8995 17.1952 51.2495 17.4502C52.0595 18.0402 51.5145 20.1802 50.0245 22.2302C49.9245 22.3652 49.8295 22.4952 49.7245 22.6202" stroke="white" stroke-miterlimit="10" stroke-linecap="round" stroke-linejoin="round"/>
<path d="M43.785 27.6351C43.685 27.5101 43.5895 27.3851 43.49 27.2501C42.47 25.8401 41.895 24.3901 41.895 23.4301C41.895 22.9901 42.015 22.6501 42.27 22.4651C42.62 22.2151 43.16 22.2901 43.785 22.6201C44.47 22.9801 45.2545 23.6551 45.99 24.5401C46.14 24.7201 46.285 24.9151 46.435 25.1151C46.545 25.2701 46.6545 25.4301 46.7595 25.5851C46.8595 25.4301 46.97 25.2701 47.0845 25.1151C47.2245 24.9151 47.3745 24.7251 47.5245 24.5401C48.2545 23.6551 49.0395 22.9851 49.7245 22.6201C50.3545 22.2901 50.8995 22.2151 51.2495 22.4651C52.0595 23.0551 51.5145 25.1951 50.0245 27.2501C49.9245 27.3851 49.8295 27.5101 49.7295 27.6351" stroke="white" stroke-miterlimit="10" stroke-linecap="round" stroke-linejoin="round"/>
<path d="M43.785 32.6502C43.685 32.5252 43.5895 32.4002 43.49 32.2602C42.47 30.8552 41.895 29.4102 41.895 28.4502C41.895 28.0102 42.015 27.6702 42.27 27.4852C42.62 27.2302 43.16 27.3052 43.785 27.6352V27.6402C44.47 28.0002 45.2545 28.6702 45.9845 29.5552C46.14 29.7402 46.285 29.9302 46.4345 30.1302C46.5445 30.2852 46.654 30.4452 46.759 30.6002C46.859 30.4452 46.9695 30.2852 47.084 30.1302C47.229 29.9302 47.379 29.7402 47.529 29.5552C48.254 28.6752 49.0345 28.0052 49.7195 27.6402H49.7245C49.7245 27.6402 49.7295 27.6402 49.7295 27.6352C50.3545 27.3052 50.8995 27.2302 51.2495 27.4852C52.0595 28.0752 51.5145 30.2102 50.0245 32.2602C49.9245 32.3952 49.8295 32.5252 49.7245 32.6502" stroke="white" stroke-miterlimit="10" stroke-linecap="round" stroke-linejoin="round"/>
<path d="M43.785 37.6651C43.685 37.5401 43.5895 37.4151 43.49 37.2801C42.47 35.8751 41.895 34.4251 41.895 33.4651C41.895 33.0251 42.015 32.6851 42.27 32.5001C42.62 32.2451 43.16 32.3201 43.785 32.6501C44.47 33.0101 45.2545 33.6851 45.99 34.5701C46.14 34.7501 46.285 34.9451 46.435 35.1451C46.545 35.3001 46.6545 35.4601 46.7595 35.6201C46.8595 35.4601 46.97 35.3001 47.0845 35.1451C47.2295 34.9451 47.3795 34.7501 47.5295 34.5701C48.2595 33.6851 49.04 33.0151 49.725 32.6501C50.355 32.3201 50.9 32.2451 51.25 32.5001C52.06 33.0901 51.515 35.2301 50.025 37.2801C49.925 37.4151 49.83 37.5401 49.73 37.6651" stroke="white" stroke-miterlimit="10" stroke-linecap="round" stroke-linejoin="round"/>
<path d="M43.785 42.6802C43.685 42.5552 43.5895 42.4302 43.49 42.2952C42.47 40.8902 41.895 39.4402 41.895 38.4802C41.895 38.0402 42.015 37.7002 42.27 37.5152C42.62 37.2602 43.16 37.3352 43.785 37.6652V37.6702C44.47 38.0302 45.2545 38.7002 45.9845 39.5852C46.14 39.7702 46.285 39.9602 46.4345 40.1602C46.5445 40.3202 46.654 40.4752 46.759 40.6352C46.859 40.4752 46.9695 40.3202 47.084 40.1602C47.229 39.9602 47.379 39.7702 47.529 39.5852C48.254 38.7052 49.0345 38.0352 49.7195 37.6702H49.7245C49.7245 37.6702 49.7295 37.6702 49.7295 37.6652C50.3545 37.3352 50.8995 37.2602 51.2495 37.5152C52.0595 38.1052 51.5145 40.2452 50.0245 42.2952C49.9245 42.4252 49.8295 42.5552 49.7245 42.6852" stroke="white" stroke-miterlimit="10" stroke-linecap="round" stroke-linejoin="round"/>
<path d="M43.78 47.6952C43.6855 47.5702 43.59 47.4452 43.4905 47.3102C42.4705 45.9052 41.8955 44.4552 41.8955 43.4952C41.8955 43.0552 42.0155 42.7152 42.2705 42.5302C42.6205 42.2802 43.1605 42.3502 43.7855 42.6802C43.7855 42.6802 43.7855 42.6802 43.7855 42.6852C44.4705 43.0452 45.255 43.7202 45.9905 44.6052C46.1405 44.7852 46.2855 44.9752 46.4355 45.1752C46.5455 45.3352 46.655 45.4952 46.76 45.6502C46.86 45.4952 46.9705 45.3352 47.085 45.1752C47.225 44.9752 47.375 44.7852 47.525 44.6052C48.255 43.7202 49.04 43.0452 49.725 42.6852C50.355 42.3502 50.9 42.2802 51.25 42.5302C52.06 43.1202 51.515 45.2602 50.025 47.3102C49.925 47.4452 49.8255 47.5752 49.725 47.7002" stroke="white" stroke-miterlimit="10" stroke-linecap="round" stroke-linejoin="round"/>
<path d="M43.5 52.3352C43.495 52.3302 43.495 52.3302 43.495 52.3252C42.475 50.9202 41.895 49.4702 41.895 48.5102C41.895 48.0702 42.015 47.7302 42.27 47.5452C42.615 47.2952 43.155 47.3702 43.78 47.6952C43.78 47.6952 43.7855 47.6952 43.7855 47.7002C44.61 48.1352 45.5805 49.0202 46.4305 50.1902C46.545 50.3502 46.655 50.5102 46.76 50.6652C46.86 50.5102 46.9705 50.3502 47.085 50.1902C47.93 49.0252 48.895 48.1452 49.7205 47.7052C49.7205 47.7052 49.7205 47.7052 49.7255 47.7002C50.3505 47.3702 50.9005 47.2902 51.2505 47.5452C52.0605 48.1352 51.5105 50.2752 50.0255 52.3252C50.0205 52.3302 50.0205 52.3302 50.0205 52.3352" stroke="white" stroke-miterlimit="10" stroke-linecap="round" stroke-linejoin="round"/>
<path d="M43.5 52.3352C44.385 52.7002 45.485 53.6552 46.435 54.9602C46.5495 55.1202 46.6545 55.2752 46.7595 55.4352C46.865 55.2752 46.97 55.1202 47.0845 54.9602C48.0345 53.6552 49.1345 52.7002 50.0195 52.3352C50.5245 52.1202 50.9545 52.1002 51.2495 52.3152C52.0595 52.9052 51.5145 55.0452 50.0245 57.0952C49.4595 57.8752 48.8395 58.5302 48.2445 59.0102C47.3795 59.7052 46.1445 59.7052 45.279 59.0102C44.6845 58.5302 44.0595 57.8752 43.4945 57.0952C42.4745 55.6902 41.8945 54.2402 41.8945 53.2802C41.8945 52.8402 42.0145 52.5002 42.2695 52.3152C42.565 52.1002 42.995 52.1202 43.5 52.3352Z" stroke="white" stroke-miterlimit="10" stroke-linecap="round" stroke-linejoin="round"/>
<path d="M8.5 6.975V6.5C8.5 5.95 8.05 5.5 7.5 5.5H6.5H5.5C4.95 5.5 4.5 5.95 4.5 6.5V10.5C4.5 11.05 4.95 11.5 5.5 11.5H6.5H7.5C8.05 11.5 8.5 11.05 8.5 10.5V9.96V6.975Z" stroke="white" stroke-miterlimit="10" stroke-linecap="round" stroke-linejoin="round"/>
<path d="M6.5 5.5V11.5" stroke="white" stroke-miterlimit="10" stroke-linecap="round" stroke-linejoin="round"/>
<path d="M29 7H35" stroke="white" stroke-miterlimit="10" stroke-linecap="round" stroke-linejoin="round"/>
</svg>
