<?xml version="1.0" encoding="UTF-8" standalone="no"?>
<svg
   xmlns:dc="http://purl.org/dc/elements/1.1/"
   xmlns:cc="http://creativecommons.org/ns#"
   xmlns:rdf="http://www.w3.org/1999/02/22-rdf-syntax-ns#"
   xmlns:svg="http://www.w3.org/2000/svg"
   xmlns="http://www.w3.org/2000/svg"
   xmlns:sodipodi="http://sodipodi.sourceforge.net/DTD/sodipodi-0.dtd"
   xmlns:inkscape="http://www.inkscape.org/namespaces/inkscape"
   enable-background="new 0 0 32 32"
   height="32px"
   id="Слой_1"
   version="1.1"
   viewBox="0 0 32 32"
   width="32px"
   xml:space="preserve"
   sodipodi:docname="arrow.svg"
   inkscape:version="1.0beta1 (32d4812, 2019-09-19)">
  <metadata
   id="metadata851">
    <rdf:RDF>
      <cc:Work
   rdf:about="">
        <dc:format>image/svg+xml</dc:format>

        <dc:type
   rdf:resource="http://purl.org/dc/dcmitype/StillImage" />

      </cc:Work>

    </rdf:RDF>

  </metadata>

  <defs
   id="defs849" />

  <sodipodi:namedview
   pagecolor="#ffffff"
   bordercolor="#666666"
   inkscape:document-rotation="0"
   borderopacity="1"
   objecttolerance="10"
   gridtolerance="10"
   guidetolerance="10"
   inkscape:pageopacity="0"
   inkscape:pageshadow="2"
   inkscape:window-width="1280"
   inkscape:window-height="755"
   id="namedview847"
   showgrid="false"
   inkscape:zoom="5.6"
   inkscape:cx="30.17767"
   inkscape:cy="31.005798"
   inkscape:window-x="0"
   inkscape:window-y="23"
   inkscape:window-maximized="0"
   inkscape:current-layer="Слой_1" />

  <path
   inkscape:connector-curvature="0"
   clip-rule="evenodd"
   d="m 0,16.009 c 0,-0.267 0.11,-0.522 0.293,-0.714 l 9.899,-9.999 c 0.391,-0.395 1.024,-0.394 1.414,0 0.391,0.394 0.391,1.034 0,1.428 L 3.413,14.999 H 31 c 0.552,0 1,0.452 1,1.01 0,0.558 -0.448,1.01 -1,1.01 H 3.414 l 8.192,8.275 c 0.391,0.394 0.39,1.034 0,1.428 -0.391,0.394 -1.024,0.394 -1.414,0 L 0.293,16.723 C 0.106,16.534 0.003,16.274 0,16.009 Z"
   fill="#121313"
   fill-rule="evenodd"
   id="Arrow_Forward"
   style="fill:#241f20;fill-opacity:1" />

  <g
   id="g834" />

  <g
   id="g836" />

  <g
   id="g838" />

  <g
   id="g840" />

  <g
   id="g842" />

  <g
   id="g844" />

</svg>
