<?xml version="1.0" encoding="UTF-8" standalone="no"?>
<svg
   xmlns:dc="http://purl.org/dc/elements/1.1/"
   xmlns:cc="http://creativecommons.org/ns#"
   xmlns:rdf="http://www.w3.org/1999/02/22-rdf-syntax-ns#"
   xmlns:svg="http://www.w3.org/2000/svg"
   xmlns="http://www.w3.org/2000/svg"
   xmlns:sodipodi="http://sodipodi.sourceforge.net/DTD/sodipodi-0.dtd"
   xmlns:inkscape="http://www.inkscape.org/namespaces/inkscape"
   inkscape:version="1.0beta1 (32d4812, 2019-09-19)"
   sodipodi:docname="arrow.svg"
   xml:space="preserve"
   width="32px"
   viewBox="0 0 32 32"
   version="1.1"
   id="Слой_1"
   height="32px"
   enable-background="new 0 0 32 32">
  <metadata
   id="metadata851">
    <rdf:RDF>
      <cc:Work
   rdf:about="">
        <dc:format>image/svg+xml</dc:format>


        <dc:type
   rdf:resource="http://purl.org/dc/dcmitype/StillImage" />


      </cc:Work>


    </rdf:RDF>


  </metadata>


  <defs
   id="defs849" />


  <sodipodi:namedview
   inkscape:current-layer="Слой_1"
   inkscape:window-maximized="0"
   inkscape:window-y="23"
   inkscape:window-x="0"
   inkscape:cy="31.597532"
   inkscape:cx="21.375631"
   inkscape:zoom="5.6"
   showgrid="false"
   id="namedview847"
   inkscape:window-height="755"
   inkscape:window-width="1280"
   inkscape:pageshadow="2"
   inkscape:pageopacity="0"
   guidetolerance="10"
   gridtolerance="10"
   objecttolerance="10"
   borderopacity="1"
   inkscape:document-rotation="0"
   bordercolor="#666666"
   pagecolor="#ffffff" />


  <path
   style="fill:#241f20;fill-opacity:1;stroke-width:0.5"
   id="Arrow_Forward"
   fill-rule="evenodd"
   fill="#121313"
   d="m 8,16.000094 c 0,-0.1335 0.055,-0.261 0.1465,-0.357 l 4.9495,-4.9995 c 0.1955,-0.1975 0.512,-0.197 0.707,0 0.1955,0.197 0.1955,0.517 0,0.714 l -4.0965,4.1375 H 23.5 c 0.276,0 0.5,0.226 0.5,0.505 0,0.279 -0.224,0.505 -0.5,0.505 H 9.707 l 4.096,4.1375 c 0.1955,0.197 0.195,0.517 0,0.714 -0.1955,0.197 -0.512,0.197 -0.707,0 l -4.9495,-4.9995 C 8.053,16.262594 8.0015,16.132594 8,16.000094 Z"
   clip-rule="evenodd"
   inkscape:connector-curvature="0" />


  <g
   id="g834" />


  <g
   id="g836" />


  <g
   id="g838" />


  <g
   id="g840" />


  <g
   id="g842" />


  <g
   id="g844" />


</svg>
