<svg width="36" height="36" viewBox="0 0 36 36" fill="none" xmlns="http://www.w3.org/2000/svg">
<path d="M27.0376 23.8766V21.2349C27.0376 19.4201 25.5966 17.9248 23.7829 17.9248H12.3687C10.5537 17.9248 9.11292 19.4201 9.11292 21.2349V23.8766C9.11292 25.6903 10.5538 27.1883 12.3687 27.1883H23.7829C25.5966 27.1883 27.0376 25.6902 27.0376 23.8766ZM14.7614 20.0335H13.7071V25.3055H12.6527V20.0335H11.5983V19.1297H14.7614V20.0335ZM17.774 25.3055H16.8702V24.7789C16.7196 24.9628 16.5197 25.1021 16.3382 25.2009C16.1566 25.2985 15.976 25.3449 15.8052 25.3449C15.5945 25.3449 15.422 25.2777 15.3136 25.1426C15.2076 25.0044 15.138 24.8045 15.138 24.5325V20.7113H16.0418V24.2182C16.0418 24.3253 16.0788 24.4033 16.1157 24.4509C16.155 24.4997 16.2246 24.5229 16.311 24.5229C16.3764 24.5229 16.4663 24.4868 16.5687 24.4231C16.671 24.3582 16.7693 24.251 16.8544 24.1757H16.8703V20.7113H17.7741V25.3055H17.774ZM21.0878 24.3384C21.0878 24.6605 21.005 24.9069 20.8622 25.0801C20.7217 25.2522 20.508 25.3373 20.2395 25.3373C20.0604 25.3373 19.8914 25.3045 19.7532 25.2384C19.614 25.1718 19.5063 25.0694 19.3557 24.9289V25.3055H18.4519V19.1297H19.3557V21.0962C19.5063 20.9581 19.6154 20.851 19.7517 20.7789C19.8899 20.7069 20.0331 20.6706 20.1748 20.6706C20.4629 20.6706 20.695 20.7682 20.8462 20.9623C20.9998 21.1552 21.0879 21.4391 21.0879 21.8123V24.3384H21.0878ZM21.8931 25.0277C21.6592 24.7789 21.5397 24.4349 21.5397 23.9956V21.9492C21.5397 21.5576 21.6705 21.2343 21.9276 20.9867C22.186 20.7367 22.5163 20.6135 22.9246 20.6135C23.3406 20.6135 23.6767 20.7284 23.9012 20.9581C24.125 21.1897 24.2509 21.5195 24.2509 21.9498V23.1214H22.5187V23.9688C22.5187 24.2093 22.5287 24.3748 22.5883 24.4688C22.649 24.5605 22.7422 24.6057 22.8874 24.6057C23.0385 24.6057 23.1335 24.5664 23.1924 24.4885C23.2513 24.4105 23.2718 24.2373 23.2718 23.9688V23.7992H24.2509V23.9955C24.2509 24.4628 24.1231 24.814 23.8928 25.0509C23.666 25.286 23.3173 25.4033 22.8638 25.4033C22.4561 25.4033 22.1271 25.2777 21.8931 25.0277Z" fill="white"/>
<path d="M23.2719 21.9434C23.2719 21.7524 23.2453 21.6144 23.1828 21.5352C23.1209 21.4502 23.0203 21.4097 22.8835 21.4097C22.7383 21.4097 22.6174 21.4501 22.5537 21.5352C22.49 21.6144 22.4435 21.753 22.4435 21.9434V22.3677H23.2719V21.9434V21.9434Z" fill="white"/>
<path d="M19.749 21.3931C19.6841 21.3931 19.6118 21.4068 19.5493 21.4383C19.4868 21.4669 19.4309 21.5139 19.3556 21.5776V24.4133C19.4309 24.4871 19.5076 24.5425 19.5773 24.574C19.6481 24.6056 19.7236 24.6228 19.8004 24.6228C19.9117 24.6228 19.9852 24.5913 20.0376 24.5264C20.09 24.4627 20.1088 24.3592 20.1088 24.2127V21.8615C20.1088 21.7067 20.087 21.5907 20.0232 21.5103C19.9565 21.4323 19.871 21.3931 19.749 21.3931Z" fill="white"/>
<path d="M14.9875 16.3432V13.5487L16.358 9.56494H15.186L14.4735 12.2762H14.4003L13.6515 9.56494H12.4896L13.8578 13.6742V16.3432H14.9875Z" fill="white"/>
<path d="M20.2594 11.3726V15.5434C20.2594 15.8445 20.3132 16.0678 20.4316 16.2154C20.5524 16.3654 20.7269 16.4409 20.9638 16.4409C21.1567 16.4409 21.3518 16.3862 21.5554 16.2802C21.7608 16.1743 21.9916 16.0178 22.1422 15.8142V16.3433H23.1966V11.3726H22.1422V15.1588C22.0669 15.2695 21.9418 15.3588 21.8281 15.4308C21.7121 15.5005 21.6172 15.5368 21.5427 15.5368C21.4463 15.5368 21.3612 15.5089 21.3195 15.4552C21.2767 15.4029 21.2386 15.3177 21.2386 15.1981V11.3726H20.2594Z" fill="white"/>
<path d="M16.4185 12.5022V15.0986C16.4185 15.5242 16.565 15.8635 16.8335 16.1171C17.1025 16.367 17.4672 16.4927 17.9148 16.4927C18.3802 16.4927 18.7562 16.3706 19.0235 16.1278C19.2872 15.8849 19.431 15.5492 19.431 15.1189V12.5296C19.431 12.1462 19.2877 11.8319 19.0181 11.5903C18.746 11.3486 18.3955 11.2266 17.9711 11.2266C17.5062 11.2266 17.1333 11.3438 16.8566 11.5718C16.581 11.8045 16.442 12.1256 16.442 12.5022H16.4185V12.5022ZM17.4729 12.4629C17.4729 12.354 17.5226 12.2641 17.6006 12.198C17.6797 12.1296 17.7868 12.0957 17.9112 12.0957C18.0475 12.0957 18.1617 12.1297 18.2457 12.198C18.3296 12.2641 18.3767 12.3534 18.3767 12.4629V15.1951C18.3767 15.3284 18.3326 15.4343 18.2511 15.5124C18.1695 15.588 18.0576 15.6249 17.9183 15.6249C17.7838 15.6249 17.6668 15.588 17.5948 15.5124C17.5216 15.438 17.473 15.332 17.473 15.1951V12.4629H17.4729Z" fill="white"/>
<path d="M18 0C8.05888 0 0 8.05888 0 18C0 27.9411 8.05888 36 18 36C27.9411 36 36 27.9411 36 18C36 8.05888 27.9411 0 18 0ZM29.9291 29.9291C26.7427 33.1155 22.5063 34.8703 18 34.8703C13.4937 34.8703 9.25727 33.1155 6.0709 29.9291C2.88452 26.7427 1.12971 22.5063 1.12971 18C1.12971 13.4937 2.88452 9.25727 6.0709 6.0709C9.25727 2.88452 13.4937 1.12971 18 1.12971C22.5063 1.12971 26.7427 2.88452 29.9291 6.0709C33.1155 9.25727 34.8703 13.4937 34.8703 18C34.8703 22.5063 33.1155 26.7427 29.9291 29.9291Z" fill="white"/>
</svg>
