<svg width="36" height="36" viewBox="0 0 36 36" fill="none" xmlns="http://www.w3.org/2000/svg">
<path d="M19.8075 15.2885V13.2552C19.8075 12.3373 20.0294 11.8994 21.4542 11.8994H23.1967V8.51025H20.2589C16.6035 8.51025 15.4393 10.1335 15.4393 13.0098V15.2885H12.954V18.7529H15.4393V28.9956H19.8075V18.7529H22.8364L23.2419 15.2885H19.8075Z" fill="white"/>
<path d="M18 0C8.05888 0 0 8.05888 0 18C0 27.9411 8.05888 36 18 36C27.9411 36 36 27.9411 36 18C36 8.05888 27.9411 0 18 0ZM29.9291 29.9291C26.7427 33.1155 22.5063 34.8703 18 34.8703C13.4937 34.8703 9.25727 33.1155 6.0709 29.9291C2.88452 26.7427 1.12971 22.5063 1.12971 18C1.12971 13.4937 2.88452 9.25727 6.0709 6.0709C9.25727 2.88452 13.4937 1.12971 18 1.12971C22.5063 1.12971 26.7427 2.88452 29.9291 6.0709C33.1155 9.25727 34.8703 13.4937 34.8703 18C34.8703 22.5063 33.1155 26.7427 29.9291 29.9291Z" fill="white"/>
</svg>
