<?xml version="1.0" encoding="UTF-8" standalone="no"?>
<svg
   xmlns:dc="http://purl.org/dc/elements/1.1/"
   xmlns:cc="http://creativecommons.org/ns#"
   xmlns:rdf="http://www.w3.org/1999/02/22-rdf-syntax-ns#"
   xmlns:svg="http://www.w3.org/2000/svg"
   xmlns="http://www.w3.org/2000/svg"
   xmlns:sodipodi="http://sodipodi.sourceforge.net/DTD/sodipodi-0.dtd"
   xmlns:inkscape="http://www.inkscape.org/namespaces/inkscape"
   inkscape:version="1.0beta1 (32d4812, 2019-09-19)"
   sodipodi:docname="menu.svg"
   id="svg857"
   xml:space="preserve"
   width="512px"
   viewBox="0 0 512 512"
   version="1.1"
   style="enable-background:new 0 0 512 512;"
   height="512px">
  <metadata
     id="metadata863">
    <rdf:RDF>
      <cc:Work
         rdf:about="">
        <dc:format>image/svg+xml</dc:format>
        <dc:type
           rdf:resource="http://purl.org/dc/dcmitype/StillImage" />
      </cc:Work>
    </rdf:RDF>
  </metadata>
  <defs
     id="defs861" />
  <sodipodi:namedview
     inkscape:current-layer="svg857"
     inkscape:window-maximized="0"
     inkscape:window-y="23"
     inkscape:window-x="0"
     inkscape:cy="560"
     inkscape:cx="400"
     inkscape:zoom="0.35"
     showgrid="false"
     id="namedview859"
     inkscape:window-height="755"
     inkscape:window-width="1280"
     inkscape:pageshadow="2"
     inkscape:pageopacity="0"
     guidetolerance="10"
     gridtolerance="10"
     objecttolerance="10"
     borderopacity="1"
     inkscape:document-rotation="0"
     bordercolor="#666666"
     pagecolor="#ffffff" />
  <style
     id="style833"
     type="text/css">
<![CDATA[
	.st0{display:inline;}
	.st1{fill:none;stroke:#000000;stroke-width:16;stroke-linecap:round;stroke-linejoin:round;stroke-miterlimit:10;}
	.st2{display:none;}
]]>
</style>
  <g
     id="Layer"
     class="st2">
    <g
       id="g841"
       class="st0">
      <polyline
         id="polyline835"
         points="89,386 424,386 424,385.999   "
         class="st1" />
      <polyline
         id="polyline837"
         points="89,257 424,257 424,256.999   "
         class="st1" />
      <polyline
         id="polyline839"
         points="89,127 424,127 424,126.999   "
         class="st1" />
    </g>
  </g>
  <g
     style="fill:#241f20;fill-opacity:1;opacity:0.68000002"
     id="Layer_copy">
    <g
       style="fill:#241f20;fill-opacity:1"
       id="g846">
      <path
         style="fill:#241f20;fill-opacity:1"
         id="path844"
         d="M424,394H89c-4.418,0-8-3.582-8-8s3.582-8,8-8h335c4.418,0,8,3.582,8,8S428.418,394,424,394z" />
    </g>
    <g
       style="fill:#241f20;fill-opacity:1"
       id="g850">
      <path
         style="fill:#241f20;fill-opacity:1"
         id="path848"
         d="M424,265H89c-4.418,0-8-3.582-8-8c0-4.418,3.582-8,8-8h335c4.418,0,8,3.582,8,8C432,261.418,428.418,265,424,265z" />
    </g>
    <g
       style="fill:#241f20;fill-opacity:1"
       id="g854">
      <path
         style="fill:#241f20;fill-opacity:1"
         id="path852"
         d="M424,135H89c-4.418,0-8-3.582-8-8s3.582-8,8-8h335c4.418,0,8,3.582,8,8S428.418,135,424,135z" />
    </g>
  </g>
</svg>
