<?xml version="1.0" encoding="UTF-8" standalone="no"?>
<svg
   xmlns:dc="http://purl.org/dc/elements/1.1/"
   xmlns:cc="http://creativecommons.org/ns#"
   xmlns:rdf="http://www.w3.org/1999/02/22-rdf-syntax-ns#"
   xmlns:svg="http://www.w3.org/2000/svg"
   xmlns="http://www.w3.org/2000/svg"
   xmlns:sodipodi="http://sodipodi.sourceforge.net/DTD/sodipodi-0.dtd"
   xmlns:inkscape="http://www.inkscape.org/namespaces/inkscape"
   inkscape:version="1.0beta1 (32d4812, 2019-09-19)"
   sodipodi:docname="share-pinterest.svg"
   id="svg840"
   xml:space="preserve"
   viewBox="0 0 32 32"
   version="1.1"
   enable-background="new 0 0 32 32">
  <metadata
     id="metadata846">
    <rdf:RDF>
      <cc:Work
         rdf:about="">
        <dc:format>image/svg+xml</dc:format>
        <dc:type
           rdf:resource="http://purl.org/dc/dcmitype/StillImage" />
      </cc:Work>
    </rdf:RDF>
  </metadata>
  <defs
     id="defs844" />
  <sodipodi:namedview
     inkscape:current-layer="svg840"
     inkscape:window-maximized="0"
     inkscape:window-y="23"
     inkscape:window-x="0"
     inkscape:cy="38.106602"
     inkscape:cx="26.553301"
     inkscape:zoom="5.6"
     showgrid="false"
     id="namedview842"
     inkscape:window-height="755"
     inkscape:window-width="1280"
     inkscape:pageshadow="2"
     inkscape:pageopacity="0"
     guidetolerance="10"
     gridtolerance="10"
     objecttolerance="10"
     borderopacity="1"
     inkscape:document-rotation="0"
     bordercolor="#666666"
     pagecolor="#ffffff" />
  <g
     id="g835"
     style="opacity:1;stop-opacity:1;fill:#c37d5d;fill-opacity:1">
    <path
       style="fill:#c37d5d;fill-opacity:1"
       d="m 16,0.016 c -8.837,0 -16,7.163 -16,16 0,8.836 7.163,16 16,16 8.837,0 16,-7.164 16,-16 0,-8.837 -7.163,-16 -16,-16 z"
       fill="#333333"
       id="path833"
       inkscape:connector-curvature="0" />
  </g>
  <path
     d="m 24.007,12.481 c 0,4.658 -2.59,8.139 -6.407,8.139 -1.283,0 -2.488,-0.693 -2.901,-1.481 0,0 -0.69,2.736 -0.835,3.264 -0.514,1.866 -2.027,3.733 -2.144,3.886 -0.082,0.106 -0.263,0.073 -0.282,-0.068 -0.033,-0.238 -0.418,-2.592 0.036,-4.513 0.228,-0.964 1.527,-6.471 1.527,-6.471 0,0 -0.379,-0.758 -0.379,-1.879 0,-1.76 1.02,-3.074 2.29,-3.074 1.08,0 1.601,0.81 1.601,1.782 0,1.086 -0.691,2.71 -1.048,4.214 -0.298,1.26 0.632,2.288 1.874,2.288 2.25,0 3.765,-2.89 3.765,-6.314 0,-2.602 -1.752,-4.551 -4.941,-4.551 -3.601,0 -5.846,2.686 -5.846,5.687 0,1.035 0.306,1.765 0.784,2.329 0.219,0.26 0.25,0.364 0.17,0.662 -0.058,0.219 -0.187,0.744 -0.243,0.953 -0.079,0.301 -0.323,0.408 -0.594,0.297 -1.659,-0.677 -2.432,-2.495 -2.432,-4.537 0,-3.373 2.845,-7.418 8.487,-7.418 4.535,0.003 7.518,3.283 7.518,6.805 z"
     fill="#FFFFFF"
     id="path837"
     inkscape:connector-curvature="0"
     style="opacity:1;stop-opacity:1" />
</svg>
