<svg width="64" height="65" viewBox="0 0 64 65" fill="none" xmlns="http://www.w3.org/2000/svg">
<path d="M32 0.205811C14.3269 0.205811 0 14.5327 0 32.2058C0 49.8789 14.3269 64.2058 32 64.2058C49.6731 64.2058 64 49.8789 64 32.2058C64 14.5327 49.6731 0.205811 32 0.205811ZM53.2073 53.4131C47.5426 59.0778 40.0111 62.1974 32 62.1974C23.9889 62.1974 16.4574 59.0778 10.7927 53.4131C5.12803 47.7484 2.00837 40.2169 2.00837 32.2058C2.00837 24.1947 5.12803 16.6632 10.7927 10.9985C16.4574 5.33384 23.9889 2.21418 32 2.21418C40.0111 2.21418 47.5426 5.33384 53.2073 10.9985C58.872 16.6632 61.9916 24.1947 61.9916 32.2058C61.9916 40.2169 58.872 47.7484 53.2073 53.4131Z" fill="#BC001C"/>
<path d="M32.7755 17.4867C23.7552 17.4867 19.2065 23.9535 19.2065 29.3473C19.2065 32.6125 20.4428 35.5173 23.0939 36.5989C23.5288 36.7781 23.9186 36.6056 24.0447 36.1241C24.1324 35.7922 24.3402 34.9516 24.4324 34.6004C24.5592 34.1244 24.5101 33.9584 24.1589 33.5421C23.3947 32.6412 22.9054 31.4739 22.9054 29.8194C22.9054 25.0218 26.4953 20.7267 32.253 20.7267C37.3515 20.7267 40.1526 23.842 40.1526 28.0016C40.1526 33.4764 37.7299 38.0968 34.1339 38.0968C32.1474 38.0968 30.6615 36.4549 31.1369 34.4399C31.7073 32.0344 32.8127 29.4397 32.8127 27.7022C32.8127 26.1485 31.9782 24.8526 30.2526 24.8526C28.2222 24.8526 26.5909 26.9533 26.5909 29.7664C26.5909 31.5584 27.1964 32.7708 27.1964 32.7708C27.1964 32.7708 25.1189 41.5747 24.7543 43.1163C24.0293 46.1871 24.6455 49.9502 24.698 50.3301C24.7285 50.5558 25.018 50.6103 25.1494 50.4403C25.3359 50.1953 27.7554 47.2101 28.5767 44.2264C28.8098 43.3825 29.9118 39.0085 29.9118 39.0085C30.5718 40.2674 32.4998 41.3734 34.5501 41.3734C40.6523 41.3734 44.7934 35.8102 44.7934 28.3635C44.7941 22.7312 40.0243 17.4867 32.7755 17.4867Z" fill="#BC001C"/>
</svg>
