<svg width="64" height="64" viewBox="0 0 64 64" fill="none" xmlns="http://www.w3.org/2000/svg">
<path d="M45.523 26.7338C45.523 26.7338 42.6256 26.2138 40.5455 26.2138C35.7909 26.2138 34.6765 28.8139 34.6765 32.6771V49.021H21.8242V15.7388H34.6765V21.3106C36.2366 16.6302 39.3568 14.9958 45.523 14.9958V26.7338Z" fill="#EE6E62"/>
<path d="M32 0C14.3269 0 0 14.3269 0 32C0 49.6731 14.3269 64 32 64C49.6731 64 64 49.6731 64 32C64 14.3269 49.6731 0 32 0ZM53.2073 53.2073C47.5426 58.872 40.0111 61.9916 32 61.9916C23.9889 61.9916 16.4574 58.872 10.7927 53.2073C5.12803 47.5426 2.00837 40.0111 2.00837 32C2.00837 23.9889 5.12803 16.4574 10.7927 10.7927C16.4574 5.12803 23.9889 2.00837 32 2.00837C40.0111 2.00837 47.5426 5.12803 53.2073 10.7927C58.872 16.4574 61.9916 23.9889 61.9916 32C61.9916 40.0111 58.872 47.5426 53.2073 53.2073Z" fill="#EE6E62"/>
</svg>
