<svg width="64" height="64" viewBox="0 0 64 64" fill="none" xmlns="http://www.w3.org/2000/svg">
<path d="M29.9999 47.36C29.9999 51.655 27.7949 55.4305 24.4649 57.585C18.6799 58.34 17.0699 46.72 17.0699 46.72C17.0699 46.72 25.5349 51.4 29.9999 47.36Z" fill="#7AA9A6"/>
<path d="M26.06 25.6299C28.48 27.8499 30 31.0549 30 34.6199C30 35.7049 29.86 36.7594 29.59 37.7649C29.29 38.9199 28.82 39.9999 28.215 40.9899L27.075 39.7094L26.655 39.2344C25.785 38.2544 24.835 37.3594 23.81 36.5549L23.325 36.1744C23.325 36.1744 26.435 32.2394 22.375 25.0144C23.48 25.4099 24.71 25.6299 26.06 25.6299Z" fill="#7AA9A6"/>
<path d="M28.2149 40.9902C29.3449 42.8402 29.9999 45.0252 29.9999 47.3602C25.5349 51.4002 17.0699 46.7207 17.0699 46.7207C20.3999 38.4202 25.7249 39.3252 27.0749 39.7102L28.2149 40.9902Z" fill="#7AA9A6"/>
<path d="M17.07 46.7201C17.07 46.7201 18.68 58.3396 24.465 57.5846C22.6 58.8001 20.385 59.5001 18.005 59.5001C16.885 59.5001 15.805 59.3451 14.78 59.0551C9.775 52.8351 15.855 46.5601 15.855 46.5601C16.25 46.6401 16.655 46.6901 17.07 46.7201Z" fill="#7AA9A6"/>
<path d="M10.27 43.905C11.035 44.5555 11.885 45.1155 12.8 45.5605C12.8 45.5605 5.33 48.0205 8.55 54.8355C6.95 52.7755 6 50.1755 6 47.3605C6 45.0255 6.655 42.8405 7.79 40.991C8.455 42.096 9.3 43.076 10.27 43.9005V43.905Z" fill="#7AA9A6"/>
<path d="M15.8549 46.5601C15.8549 46.5601 9.77494 52.8351 14.7799 59.0551C12.2749 58.3501 10.1049 56.8501 8.54994 54.8351C5.32994 48.0201 12.7999 45.5601 12.7999 45.5601C13.0549 45.6851 13.3199 45.8051 13.5849 45.9101C14.0199 46.0851 14.4649 46.2301 14.9249 46.3501C15.2299 46.4351 15.5399 46.5051 15.8549 46.5601Z" fill="#7AA9A6"/>
<path d="M6 34.6201C6 31.0551 7.52 27.8501 9.94 25.6301C10.17 25.8401 10.405 26.0401 10.65 26.2351L15.855 30.3151C12.71 31.0251 7.075 34.7751 10.27 43.9001C9.3 43.0756 8.455 42.0956 7.79 40.9906C7.18 40.0006 6.715 38.9201 6.41 37.7656C6.145 36.7651 6 35.7051 6 34.6201Z" fill="#7AA9A6"/>
<path d="M17.3301 31.4749L20.1551 33.6899C15.8551 34.2799 12.5901 42.6849 14.9251 46.3499C14.4651 46.2299 14.0201 46.0849 13.5851 45.9099C13.3201 45.8049 13.0551 45.6849 12.8001 45.5599C11.8851 45.1149 11.0351 44.5549 10.2701 43.9044V43.8999C7.07506 34.7749 12.7101 31.0249 15.8551 30.3149L17.3301 31.4749Z" fill="#7AA9A6"/>
<path d="M26.6549 39.2349L27.0749 39.7099C25.7249 39.3249 20.3999 38.4199 17.0699 46.7204C16.6549 46.6899 16.2499 46.6404 15.8549 46.5604C15.5399 46.5054 15.2299 46.4354 14.9249 46.3504C12.5899 42.6854 15.8549 34.2799 20.1549 33.6904H20.1599L23.3249 36.1754L23.8099 36.5559C24.8349 37.3599 25.7849 38.2549 26.6549 39.2349Z" fill="#7AA9A6"/>
<path d="M22.3751 25.0149C26.4351 32.2399 23.3251 36.1749 23.3251 36.1749L20.1601 33.6899H20.1551L17.3301 31.4749C16.5951 29.6949 16.7351 27.8799 17.6251 21.3899C18.3001 22.3549 19.1501 23.2099 20.1601 23.8899C20.8301 24.3499 21.5701 24.7299 22.3751 25.0149Z" fill="#7AA9A6"/>
<path d="M17.625 21.39C16.735 27.88 16.595 29.695 17.33 31.475L15.855 30.315L10.65 26.235C10.65 26.235 10.27 19.74 15.855 17C16.005 17.96 16.29 18.9 16.7 19.785C16.955 20.345 17.265 20.885 17.625 21.39Z" fill="#7AA9A6"/>
<path d="M9.94 25.63C7.52 23.41 6 20.205 6 16.64C6 16.13 6.03 15.63 6.095 15.14C6.255 15.02 10.16 12.155 15.725 15.37C15.725 15.915 15.77 16.46 15.855 17C10.27 19.74 10.65 26.235 10.65 26.235C10.405 26.04 10.17 25.84 9.94 25.63Z" fill="#7AA9A6"/>
<path d="M15.855 4.69507C15.855 4.69507 20.05 9.83507 15.725 15.3701C10.16 12.1551 6.25497 15.0201 6.09497 15.1401C6.73497 9.86007 10.73 5.63007 15.855 4.69507Z" fill="#7AA9A6"/>
<path d="M22.125 5.235C25.32 6.455 23.32 19.74 16.7 19.785C16.29 18.9 16.005 17.96 15.855 17C15.77 16.46 15.725 15.915 15.725 15.37C20.05 9.835 15.855 4.695 15.855 4.695C16.55 4.565 17.265 4.5 18 4.5C19.445 4.5 20.835 4.76 22.12 5.235H22.125Z" fill="#7AA9A6"/>
<path d="M27.47 9.19011C28.92 12.0801 26.84 23.9651 20.16 23.8901C19.15 23.2101 18.3 22.3551 17.625 21.3901C17.265 20.8851 16.955 20.3451 16.7 19.7851C23.32 19.7401 25.32 6.45511 22.125 5.23511C24.255 6.02511 26.1 7.40511 27.47 9.18511V9.19011Z" fill="#7AA9A6"/>
<path d="M30 16.6399C30 20.1999 28.48 23.4099 26.06 25.6299C24.71 25.6299 23.48 25.4099 22.375 25.0149C21.57 24.7299 20.83 24.3499 20.16 23.8899C26.84 23.9649 28.92 12.0799 27.47 9.18994C29.055 11.2449 30 13.8349 30 16.6399Z" fill="#7AA9A6"/>
<path d="M55.895 39H52.145H48.745H46.615H41.385H41V25.5H41.395H46.29H50.245H52.695H56.25H57V39H56.185H55.895ZM49 36.5C49.32 36.605 54.23 32.95 53.405 29.835C53.185 29 52.59 28.5 51.805 28.5C50.05 28.5 49.205 30.6 49 31.405C48.795 30.6 47.95 28.5 46.19 28.5C45.41 28.5 44.81 29 44.59 29.835C43.78 32.905 48.65 36.615 49 36.5Z" fill="#7AA9A6"/>
<path d="M49 36.5C49.32 36.605 54.23 32.95 53.405 29.835C53.185 29 52.59 28.5 51.805 28.5C50.05 28.5 49.205 30.6 49 31.405C48.795 30.6 47.95 28.5 46.19 28.5C45.41 28.5 44.81 29 44.59 29.835C43.78 32.905 48.65 36.615 49 36.5Z" stroke="white" stroke-miterlimit="10" stroke-linecap="round" stroke-linejoin="round"/>
<path d="M22.12 5.235C20.835 4.76 19.445 4.5 18 4.5C17.265 4.5 16.55 4.565 15.855 4.695C10.73 5.63 6.735 9.86 6.095 15.14C6.03 15.63 6 16.13 6 16.64C6 20.205 7.52 23.41 9.94 25.63C10.17 25.84 10.405 26.04 10.65 26.235" stroke="white" stroke-miterlimit="10" stroke-linecap="round" stroke-linejoin="round"/>
<path d="M27.47 9.18486C26.1 7.40486 24.255 6.02486 22.125 5.23486" stroke="white" stroke-miterlimit="10" stroke-linecap="round" stroke-linejoin="round"/>
<path d="M26.0601 25.6299C28.4801 23.4099 30.0001 20.1999 30.0001 16.6399C30.0001 13.8349 29.0551 11.2449 27.4701 9.18994" stroke="white" stroke-miterlimit="10" stroke-linecap="round" stroke-linejoin="round"/>
<path d="M28.215 40.99C29.345 42.84 30 45.025 30 47.36C30 51.655 27.795 55.4305 24.465 57.585C22.6 58.8 20.385 59.5 18.005 59.5C16.885 59.5 15.805 59.345 14.78 59.055C12.275 58.35 10.105 56.85 8.55 54.835C6.95 52.775 6 50.175 6 47.36C6 45.025 6.655 42.84 7.79 40.9905" stroke="white" stroke-miterlimit="10" stroke-linecap="round" stroke-linejoin="round"/>
<path d="M27.0749 39.7099C25.7249 39.3249 20.3999 38.4199 17.0699 46.7204C17.0699 46.7204 25.5349 51.3999 29.9999 47.3599" stroke="white" stroke-miterlimit="10" stroke-linecap="round" stroke-linejoin="round"/>
<path d="M10.27 43.905C11.035 44.5555 11.885 45.1155 12.8 45.5605C13.055 45.6855 13.32 45.8055 13.585 45.9105C14.02 46.0855 14.465 46.2305 14.925 46.3505C15.23 46.4355 15.54 46.5055 15.855 46.5605C16.25 46.6405 16.655 46.6905 17.07 46.7205C17.07 46.7205 18.68 58.34 24.465 57.585" stroke="white" stroke-miterlimit="10" stroke-linecap="round" stroke-linejoin="round"/>
<path d="M9.94 25.6299C7.52 27.8499 6 31.0549 6 34.6199C6 35.7049 6.145 36.7649 6.41 37.7649C6.715 38.9199 7.18 39.9999 7.79 40.9899C8.455 42.0949 9.3 43.0749 10.27 43.8994" stroke="white" stroke-miterlimit="10" stroke-linecap="round" stroke-linejoin="round"/>
<path d="M20.155 33.6901L17.33 31.4751L15.855 30.3151L10.65 26.2351" stroke="white" stroke-miterlimit="10" stroke-linecap="round" stroke-linejoin="round"/>
<path d="M26.06 25.6299C28.48 27.8499 30 31.0549 30 34.6199C30 35.7049 29.86 36.7594 29.59 37.7649C29.29 38.9199 28.82 39.9999 28.215 40.9899L27.075 39.7094L26.655 39.2344C25.785 38.2544 24.835 37.3594 23.81 36.5549L23.325 36.1744L20.16 33.6894" stroke="white" stroke-miterlimit="10" stroke-linecap="round" stroke-linejoin="round"/>
<path d="M47.925 58.3199C47.47 58.7204 46.575 59.4904 45.565 59.4904C44.47 59.4904 41.355 58.0604 39.845 54.1299C39.33 52.7949 39 50.9849 39 48.9899C39 43.7599 40.76 40.1749 41.385 38.9999C41.39 38.9999 41.39 38.9949 41.39 38.9949" stroke="white" stroke-miterlimit="10" stroke-linecap="round" stroke-linejoin="round"/>
<path d="M55.895 38.99C55.895 38.995 55.895 38.995 55.895 39C56.13 41.33 57.055 53.335 51.49 53.555" stroke="white" stroke-miterlimit="10" stroke-linecap="round" stroke-linejoin="round"/>
<path d="M56.165 38.9751C56.17 38.9851 56.18 38.9901 56.185 39.0001C56.96 40.0001 59 43.0051 59 48.4901C59 55.0646 56.145 58.1046 53.385 59.0496C52.715 59.2746 52.045 59.4901 51.405 59.4901C51.195 59.4901 50.975 59.5096 50.75 59.5096C50.645 59.5096 50.54 59.5046 50.435 59.4901C49.61 59.3701 48.745 58.9101 47.925 58.3196C45.62 56.6846 43.62 52.7296 43.62 43.7051" stroke="white" stroke-miterlimit="10" stroke-linecap="round" stroke-linejoin="round"/>
<path d="M46.615 39.105C45.765 40.305 44.675 41.91 43.62 43.705C41.67 47.025 39.845 50.98 39.845 54.13" stroke="white" stroke-miterlimit="10" stroke-linecap="round" stroke-linejoin="round"/>
<path d="M52.145 39.0901C52.645 41.8801 51.935 46.8906 51.62 51.1951C51.56 52.0156 51.27 52.7456 51.25 53.4906C51.25 53.5101 51.25 53.5301 51.25 53.5501C51.175 56.6606 51.77 59.0301 53.385 59.0501C53.39 59.0501 53.4 59.0501 53.405 59.0501C53.405 59.0501 53.405 59.0501 53.41 59.0501" stroke="white" stroke-miterlimit="10" stroke-linecap="round" stroke-linejoin="round"/>
<path d="M50.75 59.49C47.045 52.5 47.37 43.96 48.745 39C48.75 38.995 48.75 38.995 48.75 38.99" stroke="white" stroke-miterlimit="10" stroke-linecap="round" stroke-linejoin="round"/>
<path d="M40.84 11.01C39.93 11.88 38.5 13.47 38.5 16.49C38.5 21.325 40.77 24.49 41.395 25.49" stroke="white" stroke-miterlimit="10" stroke-linecap="round" stroke-linejoin="round"/>
<path d="M47.42 6.68504C46.77 5.31004 45.36 5.52004 44.715 5.52004C43.945 5.52004 41.32 5.94504 40.84 11.01C40.79 11.53 40.765 12.1 40.765 12.725C40.765 18.575 45.18 24.115 46.29 25.49" stroke="white" stroke-miterlimit="10" stroke-linecap="round" stroke-linejoin="round"/>
<path d="M47.165 19.8501C47.165 15.4551 48.37 11.6151 50.18 9.27512C51.35 7.76012 52.775 6.87012 54.295 6.87012C54.59 6.87012 54.875 6.88512 55.145 6.92512C57.59 7.25012 59.5 9.07012 59.5 12.4901C59.5 19.7901 56.96 24.2451 56.25 25.4901" stroke="white" stroke-miterlimit="10" stroke-linecap="round" stroke-linejoin="round"/>
<path d="M52.6949 25.49C53.3099 23.795 57.4549 12.14 55.1449 6.92499C54.4849 5.43499 53.2949 4.48999 51.3449 4.48999C49.5349 4.48999 48.2649 5.32999 47.4199 6.68499C45.5349 9.72499 45.8399 15.35 47.1649 19.85V19.855C47.6649 21.56 48.3149 23.1 49.0499 24.28C49.4299 24.89 49.8299 25.105 50.2449 25.49" stroke="white" stroke-miterlimit="10" stroke-linecap="round" stroke-linejoin="round"/>
<path d="M50.1801 9.2749C50.1801 9.2749 54.4801 16.1299 49.05 24.2799" stroke="white" stroke-miterlimit="10" stroke-linecap="round" stroke-linejoin="round"/>
<path d="M12.7999 45.5601C12.7999 45.5601 5.32994 48.0201 8.54994 54.8351" stroke="white" stroke-miterlimit="10" stroke-linecap="round" stroke-linejoin="round"/>
<path d="M15.855 46.5601C15.855 46.5601 9.775 52.8351 14.78 59.0551L14.785 59.0601" stroke="white" stroke-miterlimit="10" stroke-linecap="round" stroke-linejoin="round"/>
<path d="M15.8551 30.3149C12.7101 31.0249 7.07506 34.7749 10.2701 43.9V43.9049" stroke="white" stroke-miterlimit="10" stroke-linecap="round" stroke-linejoin="round"/>
<path d="M20.1599 33.6899H20.1549C15.8549 34.2799 12.5899 42.6849 14.9249 46.3499C14.9299 46.3499 14.9299 46.3549 14.9299 46.3549" stroke="white" stroke-miterlimit="10" stroke-linecap="round" stroke-linejoin="round"/>
<path d="M23.325 36.1749C23.325 36.1749 26.435 32.2399 22.375 25.0149" stroke="white" stroke-miterlimit="10" stroke-linecap="round" stroke-linejoin="round"/>
<path d="M17.3301 31.4749C16.5951 29.6949 16.7351 27.8799 17.6251 21.3899" stroke="white" stroke-miterlimit="10" stroke-linecap="round" stroke-linejoin="round"/>
<path d="M10.65 26.235C10.65 26.235 10.27 19.74 15.855 17" stroke="white" stroke-miterlimit="10" stroke-linecap="round" stroke-linejoin="round"/>
<path d="M6.08997 15.145C6.08997 15.145 6.08997 15.145 6.09497 15.14C6.25497 15.02 10.16 12.155 15.725 15.37C15.725 15.915 15.77 16.46 15.855 17C16.005 17.96 16.29 18.9 16.7 19.785C16.955 20.345 17.265 20.885 17.625 21.39C18.3 22.355 19.15 23.21 20.16 23.89C20.83 24.35 21.57 24.73 22.375 25.015C23.48 25.41 24.71 25.63 26.06 25.63" stroke="white" stroke-miterlimit="10" stroke-linecap="round" stroke-linejoin="round"/>
<path d="M15.725 15.3698C20.05 9.83482 15.855 4.69482 15.855 4.69482" stroke="white" stroke-miterlimit="10" stroke-linecap="round" stroke-linejoin="round"/>
<path d="M27.47 9.18506V9.19006C28.92 12.0801 26.84 23.9651 20.16 23.8901" stroke="white" stroke-miterlimit="10" stroke-linecap="round" stroke-linejoin="round"/>
<path d="M22.12 5.23486H22.125C25.32 6.45486 23.32 19.7399 16.7 19.7849" stroke="white" stroke-miterlimit="10" stroke-linecap="round" stroke-linejoin="round"/>
<path d="M56.25 25.5H57V39H56.185H55.895H52.145H48.745H46.615H41.385H41V25.5H41.395H46.29H50.245H52.695H56.25Z" stroke="white" stroke-miterlimit="10" stroke-linecap="round" stroke-linejoin="round"/>
</svg>
