<svg width="64" height="64" viewBox="0 0 64 64" fill="none" xmlns="http://www.w3.org/2000/svg">
<path d="M37 42H34V44H37V42Z" fill="#7AA9A6"/>
<path d="M59 43L55 44.5V41.5L59 43Z" fill="#7AA9A6"/>
<path d="M51.375 51L45.375 57H38.915C38.5095 57 38.145 56.755 37.99 56.385C37.8345 56.01 37.9195 55.5805 38.205 55.295L41.62 51.88C42.185 51.315 42.9445 51 43.745 51H51.375V51Z" fill="#7AA9A6"/>
<path d="M59.5 9V36C59.5 37.105 58.605 38 57.5 38H38.5C37.395 38 36.5 37.105 36.5 36V9C36.5 7.895 37.395 7 38.5 7H57.5C58.605 7 59.5 7.895 59.5 9ZM56.5 15V10H39.5V15H56.5ZM56.5 19C56.5 18.45 56.05 18 55.5 18H53.5C52.95 18 52.5 18.45 52.5 19C52.5 19.55 52.95 20 53.5 20H55.5C56.05 20 56.5 19.55 56.5 19ZM56.5 24C56.5 23.45 56.05 23 55.5 23H53.5C52.95 23 52.5 23.45 52.5 24C52.5 24.55 52.95 25 53.5 25H55.5C56.05 25 56.5 24.55 56.5 24ZM56.5 29C56.5 28.45 56.05 28 55.5 28H53.5C52.95 28 52.5 28.45 52.5 29C52.5 29.55 52.95 30 53.5 30H55.5C56.05 30 56.5 29.55 56.5 29ZM56.5 34C56.5 33.45 56.05 33 55.5 33H53.5C52.95 33 52.5 33.45 52.5 34C52.5 34.55 52.95 35 53.5 35H55.5C56.05 35 56.5 34.55 56.5 34ZM50 19C50 18.45 49.55 18 49 18H47C46.45 18 46 18.45 46 19C46 19.55 46.45 20 47 20H49C49.55 20 50 19.55 50 19ZM50 24C50 23.45 49.55 23 49 23H47C46.45 23 46 23.45 46 24C46 24.55 46.45 25 47 25H49C49.55 25 50 24.55 50 24ZM50 29C50 28.45 49.55 28 49 28H47C46.45 28 46 28.45 46 29C46 29.55 46.45 30 47 30H49C49.55 30 50 29.55 50 29ZM50 34C50 33.45 49.55 33 49 33H47C46.45 33 46 33.45 46 34C46 34.55 46.45 35 47 35H49C49.55 35 50 34.55 50 34ZM43.5 19C43.5 18.45 43.05 18 42.5 18H40.5C39.95 18 39.5 18.45 39.5 19C39.5 19.55 39.95 20 40.5 20H42.5C43.05 20 43.5 19.55 43.5 19ZM43.5 24C43.5 23.45 43.05 23 42.5 23H40.5C39.95 23 39.5 23.45 39.5 24C39.5 24.55 39.95 25 40.5 25H42.5C43.05 25 43.5 24.55 43.5 24ZM43.5 29C43.5 28.45 43.05 28 42.5 28H40.5C39.95 28 39.5 28.45 39.5 29C39.5 29.55 39.95 30 40.5 30H42.5C43.05 30 43.5 29.55 43.5 29ZM43.5 34C43.5 33.45 43.05 33 42.5 33H40.5C39.95 33 39.5 33.45 39.5 34C39.5 34.55 39.95 35 40.5 35H42.5C43.05 35 43.5 34.55 43.5 34Z" fill="#7AA9A6"/>
<path d="M16.5 38H8.5V50H16.5V38Z" fill="#7AA9A6"/>
<path d="M6.125 15H4.5V52.5C4.5 53.605 5.395 54.5 6.5 54.5H27.5C28.605 54.5 29.5 53.605 29.5 52.5V15H27.865H24.755H21.65H18.54H15.435H12.325H6.125Z" stroke="white" stroke-miterlimit="10" stroke-linecap="round" stroke-linejoin="round"/>
<path d="M57.5 38C58.605 38 59.5 37.105 59.5 36V9C59.5 7.895 58.605 7 57.5 7H38.5C37.395 7 36.5 7.895 36.5 9V36C36.5 37.105 37.395 38 38.5 38H57.5Z" stroke="white" stroke-miterlimit="10" stroke-linecap="round" stroke-linejoin="round"/>
<path d="M56.5 10H39.5V15H56.5V10Z" stroke="white" stroke-miterlimit="10" stroke-linecap="round" stroke-linejoin="round"/>
<path d="M10.76 17.41C11.625 16.92 12.23 16.035 12.325 15C12.335 14.905 12.34 14.805 12.34 14.705C12.34 13.555 11.715 12.5495 10.785 12.015C10.33 11.745 9.795 11.595 9.23 11.595C7.515 11.595 6.125 12.99 6.125 14.705" stroke="white" stroke-miterlimit="10" stroke-linecap="round" stroke-linejoin="round"/>
<path d="M9.22998 14.7049C9.22998 13.5494 9.85498 12.5494 10.785 12.0149" stroke="white" stroke-miterlimit="10" stroke-linecap="round" stroke-linejoin="round"/>
<path d="M13.89 12.015C13.435 11.745 12.905 11.595 12.34 11.595C11.775 11.595 11.245 11.745 10.785 12.015" stroke="white" stroke-miterlimit="10" stroke-linecap="round" stroke-linejoin="round"/>
<path d="M13.89 17.3949H13.895C14.665 16.9449 15.23 16.1749 15.395 15.2649C15.41 15.1799 15.425 15.0894 15.435 14.9999C15.44 14.8999 15.445 14.8049 15.445 14.7049C15.445 13.5549 14.82 12.5494 13.895 12.0149" stroke="white" stroke-miterlimit="10" stroke-linecap="round" stroke-linejoin="round"/>
<path d="M17 17.395C17.775 16.945 18.335 16.175 18.505 15.265C18.52 15.18 18.53 15.0895 18.54 15C18.55 14.9 18.555 14.805 18.555 14.705C18.555 13.555 17.93 12.5495 17 12.015C16.545 11.75 16.015 11.595 15.445 11.595C14.88 11.595 14.35 11.75 13.895 12.015H13.89" stroke="white" stroke-miterlimit="10" stroke-linecap="round" stroke-linejoin="round"/>
<path d="M20.105 12.015C19.65 11.745 19.12 11.595 18.555 11.595C17.99 11.595 17.46 11.745 17 12.015" stroke="white" stroke-miterlimit="10" stroke-linecap="round" stroke-linejoin="round"/>
<path d="M20.105 17.3949H20.11C20.88 16.9449 21.445 16.1749 21.61 15.2649C21.625 15.1799 21.64 15.0894 21.65 14.9999C21.655 14.8999 21.66 14.8049 21.66 14.7049C21.66 13.5549 21.035 12.5494 20.11 12.0149" stroke="white" stroke-miterlimit="10" stroke-linecap="round" stroke-linejoin="round"/>
<path d="M23.215 17.395C23.99 16.945 24.55 16.175 24.72 15.265C24.735 15.18 24.745 15.0895 24.755 15C24.765 14.9 24.77 14.805 24.77 14.705C24.77 13.555 24.145 12.5495 23.215 12.015C22.76 11.75 22.23 11.595 21.66 11.595C21.095 11.595 20.565 11.75 20.11 12.015H20.105" stroke="white" stroke-miterlimit="10" stroke-linecap="round" stroke-linejoin="round"/>
<path d="M26.125 17.5C27 17.075 27.645 16.25 27.825 15.265C27.84 15.18 27.855 15.0895 27.865 15C27.87 14.9 27.875 14.805 27.875 14.705C27.875 12.985 26.485 11.595 24.77 11.595C24.205 11.595 23.675 11.745 23.215 12.015" stroke="white" stroke-miterlimit="10" stroke-linecap="round" stroke-linejoin="round"/>
<path d="M16.5 38H8.5V50H16.5V38Z" stroke="white" stroke-miterlimit="10" stroke-linecap="round" stroke-linejoin="round"/>
<path d="M8.5 34H25.5" stroke="white" stroke-miterlimit="10" stroke-linecap="round" stroke-linejoin="round"/>
<path d="M19.5 38H25.5" stroke="white" stroke-miterlimit="10" stroke-linecap="round" stroke-linejoin="round"/>
<path d="M19.5 42H25.5" stroke="white" stroke-miterlimit="10" stroke-linecap="round" stroke-linejoin="round"/>
<path d="M19.5 46H25.5" stroke="white" stroke-miterlimit="10" stroke-linecap="round" stroke-linejoin="round"/>
<path d="M19.5 50H25.5" stroke="white" stroke-miterlimit="10" stroke-linecap="round" stroke-linejoin="round"/>
<path d="M8.5 30H25.5" stroke="white" stroke-miterlimit="10" stroke-linecap="round" stroke-linejoin="round"/>
<path d="M8.5 26H25.5" stroke="white" stroke-miterlimit="10" stroke-linecap="round" stroke-linejoin="round"/>
<path d="M8.5 22H25.5" stroke="white" stroke-miterlimit="10" stroke-linecap="round" stroke-linejoin="round"/>
<path d="M43.5 19C43.5 19.55 43.05 20 42.5 20H40.5C39.95 20 39.5 19.55 39.5 19C39.5 18.45 39.95 18 40.5 18H42.5C43.05 18 43.5 18.45 43.5 19Z" stroke="white" stroke-miterlimit="10" stroke-linecap="round" stroke-linejoin="round"/>
<path d="M50 19C50 19.55 49.55 20 49 20H47C46.45 20 46 19.55 46 19C46 18.45 46.45 18 47 18H49C49.55 18 50 18.45 50 19Z" stroke="white" stroke-miterlimit="10" stroke-linecap="round" stroke-linejoin="round"/>
<path d="M56.5 19C56.5 19.55 56.05 20 55.5 20H53.5C52.95 20 52.5 19.55 52.5 19C52.5 18.45 52.95 18 53.5 18H55.5C56.05 18 56.5 18.45 56.5 19Z" stroke="white" stroke-miterlimit="10" stroke-linecap="round" stroke-linejoin="round"/>
<path d="M43.5 24C43.5 24.55 43.05 25 42.5 25H40.5C39.95 25 39.5 24.55 39.5 24C39.5 23.45 39.95 23 40.5 23H42.5C43.05 23 43.5 23.45 43.5 24Z" stroke="white" stroke-miterlimit="10" stroke-linecap="round" stroke-linejoin="round"/>
<path d="M50 24C50 24.55 49.55 25 49 25H47C46.45 25 46 24.55 46 24C46 23.45 46.45 23 47 23H49C49.55 23 50 23.45 50 24Z" stroke="white" stroke-miterlimit="10" stroke-linecap="round" stroke-linejoin="round"/>
<path d="M56.5 24C56.5 24.55 56.05 25 55.5 25H53.5C52.95 25 52.5 24.55 52.5 24C52.5 23.45 52.95 23 53.5 23H55.5C56.05 23 56.5 23.45 56.5 24Z" stroke="white" stroke-miterlimit="10" stroke-linecap="round" stroke-linejoin="round"/>
<path d="M43.5 29C43.5 29.55 43.05 30 42.5 30H40.5C39.95 30 39.5 29.55 39.5 29C39.5 28.45 39.95 28 40.5 28H42.5C43.05 28 43.5 28.45 43.5 29Z" stroke="white" stroke-miterlimit="10" stroke-linecap="round" stroke-linejoin="round"/>
<path d="M50 29C50 29.55 49.55 30 49 30H47C46.45 30 46 29.55 46 29C46 28.45 46.45 28 47 28H49C49.55 28 50 28.45 50 29Z" stroke="white" stroke-miterlimit="10" stroke-linecap="round" stroke-linejoin="round"/>
<path d="M56.5 29C56.5 29.55 56.05 30 55.5 30H53.5C52.95 30 52.5 29.55 52.5 29C52.5 28.45 52.95 28 53.5 28H55.5C56.05 28 56.5 28.45 56.5 29Z" stroke="white" stroke-miterlimit="10" stroke-linecap="round" stroke-linejoin="round"/>
<path d="M43.5 34C43.5 34.55 43.05 35 42.5 35H40.5C39.95 35 39.5 34.55 39.5 34C39.5 33.45 39.95 33 40.5 33H42.5C43.05 33 43.5 33.45 43.5 34Z" stroke="white" stroke-miterlimit="10" stroke-linecap="round" stroke-linejoin="round"/>
<path d="M50 34C50 34.55 49.55 35 49 35H47C46.45 35 46 34.55 46 34C46 33.45 46.45 33 47 33H49C49.55 33 50 33.45 50 34Z" stroke="white" stroke-miterlimit="10" stroke-linecap="round" stroke-linejoin="round"/>
<path d="M56.5 34C56.5 34.55 56.05 35 55.5 35H53.5C52.95 35 52.5 34.55 52.5 34C52.5 33.45 52.95 33 53.5 33H55.5C56.05 33 56.5 33.45 56.5 34Z" stroke="white" stroke-miterlimit="10" stroke-linecap="round" stroke-linejoin="round"/>
<path d="M55 44.5H37V44V42V41.5H55V44.5Z" stroke="white" stroke-miterlimit="10" stroke-linecap="round" stroke-linejoin="round"/>
<path d="M37 42H34V44H37" stroke="white" stroke-miterlimit="10" stroke-linecap="round" stroke-linejoin="round"/>
<path d="M37 44.5V46.5H43" stroke="white" stroke-miterlimit="10" stroke-linecap="round" stroke-linejoin="round"/>
<path d="M55 41.5L59 43L55 44.5" stroke="white" stroke-miterlimit="10" stroke-linecap="round" stroke-linejoin="round"/>
<path d="M45.375 57H53.255C54.0555 57 54.815 56.685 55.38 56.12L58.795 52.705C59.08 52.42 59.165 51.99 59.01 51.615C58.855 51.245 58.4905 51 58.085 51H51.375H43.745C42.9445 51 42.185 51.315 41.62 51.88L38.205 55.295C37.92 55.58 37.835 56.01 37.99 56.385C38.145 56.755 38.5095 57 38.915 57H45.375Z" stroke="white" stroke-miterlimit="10" stroke-linecap="round" stroke-linejoin="round"/>
<path d="M51.375 51L45.375 57" stroke="white" stroke-miterlimit="10" stroke-linecap="round" stroke-linejoin="round"/>
</svg>
