<?xml version="1.0" encoding="UTF-8" standalone="no"?>
<svg
   xmlns:dc="http://purl.org/dc/elements/1.1/"
   xmlns:cc="http://creativecommons.org/ns#"
   xmlns:rdf="http://www.w3.org/1999/02/22-rdf-syntax-ns#"
   xmlns:svg="http://www.w3.org/2000/svg"
   xmlns="http://www.w3.org/2000/svg"
   xmlns:sodipodi="http://sodipodi.sourceforge.net/DTD/sodipodi-0.dtd"
   xmlns:inkscape="http://www.inkscape.org/namespaces/inkscape"
   enable-background="new 0 0 512 512"
   id="Laag_1"
   version="1.1"
   viewBox="0 0 512 512"
   xml:space="preserve"
   sodipodi:docname="util-yt.svg"
   inkscape:version="1.0.1 (c497b03c, 2020-09-10)"><metadata
     id="metadata844"><rdf:RDF><cc:Work
         rdf:about=""><dc:format>image/svg+xml</dc:format><dc:type
           rdf:resource="http://purl.org/dc/dcmitype/StillImage" /></cc:Work></rdf:RDF></metadata><defs
     id="defs842" /><sodipodi:namedview
     pagecolor="#ffffff"
     bordercolor="#666666"
     borderopacity="1"
     objecttolerance="10"
     gridtolerance="10"
     guidetolerance="10"
     inkscape:pageopacity="0"
     inkscape:pageshadow="2"
     inkscape:window-width="1102"
     inkscape:window-height="722"
     id="namedview840"
     showgrid="false"
     inkscape:zoom="0.4609375"
     inkscape:cx="256"
     inkscape:cy="256"
     inkscape:window-x="0"
     inkscape:window-y="25"
     inkscape:window-maximized="0"
     inkscape:current-layer="Laag_1"
     inkscape:document-rotation="0" /><g
     id="g1635"
     transform="matrix(-1.2376602,0,0,1.2376602,572.9029,-62.914536)"><path
       d="m 438.2806,177.41246 c 0,0 -3.59962,-27.71523 -14.79843,-39.85328 -14.19847,-15.98178 -29.99678,-16.08293 -37.29602,-16.99328 -52.09442,-4.04602 -130.18609,-4.04602 -130.18609,-4.04602 h -0.20004 c 0,0 -78.09164,0 -130.18609,4.04602 -7.29921,0.91035 -23.09752,1.0115 -37.296023,16.99328 -11.098811,12.2392 -14.798424,39.85328 -14.798424,39.85328 0,0 -3.499601,32.46929 -3.499601,64.93859 v 30.44628 c 0,32.4693 3.699585,64.93859 3.699585,64.93859 0,0 3.599621,27.71523 14.798424,39.85328 14.198469,15.98177 32.696509,15.47602 40.995639,17.19558 C 159.31033,397.81929 256,398.8308 256,398.8308 c 0,0 78.19164,-0.10115 130.28609,-4.14717 7.29923,-0.91035 23.09755,-1.01151 37.29602,-16.99328 11.09881,-12.13805 14.79842,-39.85327 14.79842,-39.85327 0,0 3.69959,-32.4693 3.69959,-64.9386 V 242.4522 c -0.0999,-32.57045 -3.79958,-65.03974 -3.79958,-65.03974 z"
       fill="none"
       stroke="#575756"
       stroke-miterlimit="10"
       stroke-width="7.03976"
       id="path833"
       style="stroke:#ffffff;stroke-width:11.3386;stroke-miterlimit:10;stroke-dasharray:none;stroke-opacity:1" /><polygon
       fill="none"
       points="325.8,256 209.5,186.2 209.5,325.8 "
       stroke="#575756"
       stroke-miterlimit="10"
       stroke-width="7"
       id="polygon835"
       transform="matrix(0.9998932,0,0,1.0115045,0.02740658,-1.3203977)"
       style="stroke:#ffffff;stroke-width:11.2745;stroke-miterlimit:10;stroke-dasharray:none;stroke-opacity:1" /></g></svg>
