<svg width="64" height="64" viewBox="0 0 64 64" fill="none" xmlns="http://www.w3.org/2000/svg">
<path d="M59.5 30.2949V43.1149C57.9 44.2849 56.23 45.3394 54.5 46.2794V33.5549L54.45 33.4599C56.195 32.5299 57.885 31.4749 59.5 30.2949Z" fill="#7AA9A6"/>
<path d="M18 23.47C18 20.72 20.28 18.52 23.54 17.0445C25.02 16.3695 26.705 15.8495 28.465 15.49V19.3195L28.49 19.3945C26.18 20.13 24.5 21.31 24.5 22.915V25.13V29.375V29.845C24.31 29.79 24.13 29.73 23.945 29.665C23.805 29.62 23.665 29.57 23.53 29.52C21.585 28.805 19.905 27.815 18.895 26.475C18.25 25.62 18 24.625 18 23.47Z" fill="#7AA9A6"/>
<path d="M37 15.0551V18.4351L36.975 18.6251C36.33 18.5451 35.585 18.5001 34.73 18.5001C32.605 18.5001 30.345 18.8001 28.49 19.3951L28.465 19.3201V15.4901C29.46 15.2851 30.475 15.1346 31.5 15.0446C32.38 14.9546 33.265 14.9146 34.14 14.9146C35.08 14.9151 36.045 14.9601 37 15.0551Z" fill="#7AA9A6"/>
<path d="M28.49 19.395C30.345 18.8 32.605 18.5 34.73 18.5C35.585 18.5 36.33 18.545 36.975 18.625C39.52 18.94 40.5 19.83 40.5 20.955C40.5 21.98 38.985 22.325 37.49 22.44C36.775 22.495 36.06 22.5 35.525 22.5C34.64 22.5 33.625 22.5 33 22.5V24.595V27.0445C31.525 26.9445 29.91 26.6745 28.5 26.2245C27.46 25.8995 26.54 25.4745 25.86 24.9545C25.13 24.39 24.5 23.715 24.5 22.915C24.5 21.31 26.18 20.13 28.49 19.395Z" fill="#7AA9A6"/>
<path d="M39.995 15.5199C43.565 16.2949 46.505 17.8249 46.945 20.1849C46.98 20.3849 47 20.5899 47 20.7999C47 22.6604 45.92 24.1649 43.955 25.2299C43.56 25.4499 43.13 25.6449 42.665 25.8249C42.005 26.0799 41.28 26.2994 40.5 26.4749V25.3249V20.9549C40.5 19.8299 39.52 18.9399 36.975 18.6249L37 18.4349V15.0549C38.02 15.1549 39.03 15.3099 39.995 15.5199Z" fill="#7AA9A6"/>
<path d="M47.98 27.9201C47.7 28.1051 47.41 28.2751 47.105 28.4401C47.08 28.4551 47.05 28.4706 47.025 28.4851L47 28.4401V27.4451V20.8001C47 20.5901 46.98 20.3851 46.945 20.1856L47 20.1751V14.7701L47.085 14.4951C50.25 16.1401 52 18.3451 52 20.8451C52 23.7951 50.625 26.1951 47.98 27.9201Z" fill="#7AA9A6"/>
<path d="M47.085 14.4951L47 14.7701V20.1751L46.945 20.1856C46.505 17.8256 43.565 16.2956 39.995 15.5206L40 15.4901V12.4151L40.035 12.2351C42.835 12.7501 45.205 13.5251 47.085 14.4951Z" fill="#7AA9A6"/>
<path d="M37 15.055C36.045 14.96 35.08 14.915 34.14 14.915C33.265 14.915 32.38 14.955 31.5 15.045V11.745V11.5C34.66 11.51 37.52 11.77 40.035 12.235L40 12.415V15.49L39.995 15.52C39.03 15.31 38.02 15.155 37 15.055Z" fill="#7AA9A6"/>
<path d="M23.485 12.305C26.17 11.775 28.845 11.5 31.285 11.5C31.36 11.5 31.43 11.5 31.5 11.5V11.745V15.045C30.475 15.135 29.46 15.285 28.465 15.4905C26.705 15.8505 25.02 16.3705 23.54 17.045L23.53 17.025V12.515L23.485 12.305Z" fill="#7AA9A6"/>
<path d="M17.875 26.7999C13.67 28.1999 9.855 30.2349 7.385 32.8699C5.605 31.1899 4.5 29.1549 4.5 26.7249C4.5 19.2299 14.05 14.1749 23.485 12.3049L23.53 12.5149V17.0249L23.54 17.0449C20.28 18.5199 18 20.7199 18 23.4699V26.7999H17.875Z" fill="#7AA9A6"/>
<path d="M48.56 40.475C48.485 40.375 48.45 40.265 48.45 40.1345C48.45 39.9445 48.525 39.81 48.675 39.72L49.72 39.0845C49.775 39.0495 49.855 39.0295 49.95 39.0295C50.085 39.0295 50.21 39.0645 50.325 39.14C50.435 39.2145 50.495 39.305 50.495 39.42V44.44C50.495 44.56 50.43 44.655 50.31 44.7205C50.19 44.7855 50.045 44.815 49.875 44.815C49.71 44.815 49.565 44.785 49.445 44.7205C49.32 44.655 49.26 44.5605 49.26 44.44V40.42L49.03 40.56C48.97 40.605 48.905 40.625 48.835 40.625C48.725 40.625 48.63 40.575 48.56 40.475Z" fill="white"/>
<path d="M40.485 43.1901C40.385 43.2801 40.335 43.4251 40.335 43.6201C40.335 43.7346 40.28 43.8351 40.175 43.9201C40.065 44.0051 39.925 44.0451 39.75 44.0451C39.42 44.0451 39.25 43.8501 39.25 43.4601C39.25 43.0451 39.415 42.7101 39.735 42.4551C40.06 42.2051 40.44 42.0801 40.875 42.0801C41.32 42.0801 41.715 42.2101 42.055 42.4751C42.39 42.7351 42.56 43.0896 42.56 43.5401C42.56 43.8301 42.485 44.1051 42.33 44.3601C42.175 44.6206 41.99 44.8351 41.77 45.0101C41.555 45.1856 41.335 45.3456 41.115 45.4906C40.895 45.6406 40.71 45.7801 40.55 45.9201C40.395 46.0556 40.32 46.1851 40.32 46.3001V46.3656H42.22C42.31 46.3656 42.39 46.4156 42.46 46.5101C42.525 46.6051 42.56 46.7206 42.56 46.8506C42.56 46.9806 42.525 47.0956 42.46 47.1951C42.39 47.2951 42.31 47.3456 42.22 47.3456H39.655C39.545 47.3456 39.435 47.3106 39.33 47.2456C39.22 47.1751 39.165 47.0956 39.165 47.0006V46.2956C39.165 46.0856 39.245 45.8806 39.395 45.6706C39.55 45.4656 39.74 45.2756 39.955 45.1106L40.62 44.6161C40.845 44.4511 41.04 44.2806 41.2 44.1011C41.355 43.9211 41.435 43.7461 41.435 43.5761C41.435 43.4406 41.39 43.3206 41.295 43.2156C41.205 43.1106 41.065 43.0606 40.88 43.0606C40.72 43.0601 40.59 43.1051 40.485 43.1901Z" fill="white"/>
<path d="M30.705 43.895C30.51 43.895 30.37 43.92 30.28 43.98C30.19 44.035 30.145 44.135 30.145 44.275C30.145 44.415 30.1 44.52 30.02 44.5955C29.94 44.6655 29.795 44.7005 29.585 44.7005C29.315 44.7005 29.145 44.67 29.07 44.6055C29 44.5455 28.96 44.4155 28.96 44.2205C28.96 43.8655 29.1 43.55 29.385 43.2705C29.67 42.9955 30.105 42.8555 30.705 42.8555C31.84 42.8555 32.41 43.3205 32.41 44.2455C32.41 44.5355 32.355 44.7905 32.25 45.0205C32.145 45.2455 32 45.4005 31.815 45.4855C32.335 45.681 32.59 46.056 32.59 46.6105V46.7555C32.59 47.346 32.415 47.7805 32.065 48.0605C31.71 48.3405 31.245 48.4805 30.665 48.4805C30.065 48.4805 29.61 48.3305 29.305 48.0355C29 47.7405 28.845 47.405 28.845 47.0355C28.845 46.8705 28.885 46.755 28.97 46.6905C29.05 46.6305 29.2 46.6005 29.415 46.6005C29.655 46.6005 29.815 46.6305 29.9 46.6905C29.985 46.7455 30.03 46.8505 30.03 47.0005C30.03 47.2955 30.255 47.4405 30.705 47.4405C30.96 47.4405 31.145 47.3905 31.245 47.2855C31.35 47.1805 31.4 47.005 31.4 46.755V46.61C31.4 46.3705 31.34 46.21 31.215 46.125C31.09 46.04 30.91 46 30.675 46C30.445 46 30.335 45.845 30.335 45.54C30.335 45.235 30.445 45.085 30.675 45.085C30.76 45.085 30.83 45.075 30.89 45.065C30.95 45.05 31.01 45.025 31.07 44.9905C31.135 44.9505 31.185 44.885 31.215 44.795C31.25 44.7005 31.265 44.58 31.265 44.435C31.265 44.075 31.08 43.895 30.705 43.895Z" fill="white"/>
<path d="M21.135 47.25C21.02 47.185 20.965 47.09 20.965 46.97V46.13H19.205C19.085 46.13 18.995 46.0955 18.92 46.025C18.85 45.96 18.81 45.8655 18.81 45.745C18.81 45.67 18.83 45.595 18.87 45.52L20.61 42.145C20.715 41.945 20.88 41.845 21.1 41.845C21.22 41.845 21.35 41.89 21.485 41.975C21.62 42.06 21.685 42.165 21.685 42.29C21.685 42.325 21.675 42.375 21.65 42.435L20.315 45.105H20.965V44.545C20.965 44.42 21.02 44.3255 21.135 44.26C21.255 44.195 21.39 44.1655 21.55 44.1655C21.71 44.1655 21.85 44.1955 21.965 44.26C22.08 44.3255 22.14 44.42 22.14 44.545V45.105H22.46C22.575 45.105 22.665 45.155 22.73 45.26C22.79 45.36 22.825 45.48 22.825 45.6205C22.825 45.7455 22.785 45.8655 22.71 45.9705C22.635 46.0755 22.55 46.13 22.46 46.13H22.14V46.9705C22.14 47.09 22.08 47.1855 21.965 47.2505C21.85 47.3155 21.71 47.3505 21.55 47.3505C21.39 47.35 21.255 47.315 21.135 47.25Z" fill="white"/>
<path d="M12.47 42.8349C12.47 42.9599 12.525 43.0599 12.635 43.1299C12.74 43.2004 12.88 43.2349 13.045 43.2349C13.445 43.2349 13.645 43.0299 13.645 42.6154V42.4904C13.645 42.2749 13.595 42.1154 13.49 42.0049C13.385 41.8999 13.24 41.8454 13.06 41.8454H12.055C11.91 41.8454 11.81 41.8104 11.75 41.7404C11.69 41.6749 11.66 41.5754 11.66 41.4399C11.66 41.4099 11.665 41.3499 11.675 41.2499L11.85 39.5899C11.875 39.3799 11.935 39.2749 12.035 39.2749H14.14C14.23 39.2749 14.305 39.3149 14.355 39.4049C14.41 39.4954 14.435 39.6004 14.435 39.7204C14.435 39.8454 14.41 39.9504 14.355 40.0404C14.305 40.1254 14.23 40.1704 14.14 40.1704H12.695L12.63 41.0559H13.06C13.55 41.0559 13.94 41.1704 14.235 41.3959C14.525 41.6259 14.675 41.9909 14.675 42.4909V42.6159C14.675 43.1354 14.525 43.5209 14.23 43.7659C13.935 44.0104 13.55 44.1354 13.07 44.1354C12.565 44.1354 12.17 44.0104 11.88 43.7709C11.59 43.5309 11.445 43.2409 11.445 42.9059C11.445 42.7359 11.485 42.6164 11.57 42.5509C11.655 42.4859 11.785 42.4514 11.955 42.4514C12.165 42.4514 12.3 42.4859 12.37 42.5509C12.435 42.6149 12.47 42.7099 12.47 42.8349Z" fill="white"/>
<path d="M4.5 39.545C4.5 48.635 19.96 52.5 28.74 52.5C37.74 52.5 46.695 50.54 54.5 46.28C56.23 45.34 57.9 44.2855 59.5 43.1155V30.295C57.885 31.475 56.195 32.53 54.45 33.46C53.62 33.91 52.77 34.33 51.915 34.725C49.77 35.705 47.555 36.52 45.29 37.18C40.345 38.62 35.16 39.4045 29.94 39.5C29.54 39.505 29.14 39.5 28.74 39.5C27.885 39.5 26.965 39.46 26 39.38C23.565 39.185 20.855 38.7405 18.205 38.0755C17.8 37.9755 17.4 37.8655 17 37.7505C13.255 36.6855 9.73 35.0855 7.385 32.8705C5.605 31.19 4.5 29.155 4.5 26.725C4.5 19.23 14.05 14.175 23.485 12.305C26.17 11.775 28.845 11.5 31.285 11.5C31.36 11.5 31.43 11.5 31.5 11.5C34.66 11.51 37.52 11.77 40.035 12.235C42.835 12.75 45.205 13.525 47.085 14.4955C50.25 16.1405 52 18.3455 52 20.8455C52 23.795 50.625 26.195 47.98 27.92C47.7 28.105 47.41 28.275 47.105 28.44C47.08 28.455 47.05 28.4705 47.025 28.485C46.15 28.955 45.16 29.3655 44.06 29.71C44.04 29.715 44.025 29.7205 44.005 29.725C42.91 30.0695 41.705 30.35 40.385 30.56C39.15 30.7595 37.84 30.91 36.5 30.995C33.865 31.165 31.1 31.095 28.5 30.72C27.17 30.5295 25.89 30.2595 24.69 29.8995C24.625 29.8795 24.56 29.865 24.5 29.845C24.31 29.79 24.13 29.73 23.945 29.665C23.805 29.62 23.665 29.57 23.53 29.52C21.585 28.805 19.905 27.815 18.895 26.475C18.25 25.62 18 24.625 18 23.47C18 20.72 20.28 18.52 23.54 17.0445C25.02 16.3695 26.705 15.8495 28.465 15.49C29.46 15.285 30.475 15.1345 31.5 15.0445C32.38 14.9545 33.265 14.9145 34.14 14.9145C35.08 14.9145 36.045 14.9595 37 15.0545C38.02 15.154 39.03 15.3095 39.995 15.5195C43.565 16.2945 46.505 17.8245 46.945 20.1845C46.98 20.385 47 20.59 47 20.8C47 22.6605 45.92 24.165 43.955 25.23C43.56 25.45 43.13 25.645 42.665 25.825C42.005 26.08 41.28 26.2995 40.5 26.475C40.465 26.485 40.425 26.495 40.385 26.505C39.49 26.705 38.525 26.855 37.5 26.9505C37.165 26.985 36.82 27.0155 36.47 27.0355C35.85 27.07 35.21 27.09 34.55 27.09C34.105 27.09 33.65 27.0755 33.18 27.045" stroke="white" stroke-miterlimit="10" stroke-linecap="round" stroke-linejoin="round"/>
<path d="M54.5 46.3749V46.2799V33.5549" stroke="white" stroke-miterlimit="10" stroke-linecap="round" stroke-linejoin="round"/>
<path d="M25.86 24.955C26.54 25.475 27.46 25.9 28.5 26.225C29.91 26.6745 31.525 26.9445 33 27.045V24.595V22.5C33.625 22.5 34.64 22.5 35.525 22.5C36.06 22.5 36.775 22.495 37.49 22.44C38.985 22.325 40.5 21.98 40.5 20.955C40.5 19.83 39.52 18.94 36.975 18.625C36.33 18.545 35.585 18.5 34.73 18.5C32.605 18.5 30.345 18.8 28.49 19.395C26.18 20.13 24.5 21.31 24.5 22.915C24.5 23.715 25.13 24.39 25.86 24.955Z" stroke="white" stroke-miterlimit="10" stroke-linecap="round" stroke-linejoin="round"/>
<path d="M18.205 38.075C17.99 37.525 18 36.935 18 36.29" stroke="white" stroke-miterlimit="10" stroke-linecap="round" stroke-linejoin="round"/>
<path d="M7.38501 32.87C9.85501 30.235 13.67 28.2 17.875 26.8" stroke="white" stroke-miterlimit="10" stroke-linecap="round" stroke-linejoin="round"/>
<path d="M51.975 33.665C51.975 34.025 51.955 34.38 51.915 34.725" stroke="white" stroke-miterlimit="10" stroke-linecap="round" stroke-linejoin="round"/>
<path d="M40.5 26.5051V26.4751V25.3251V20.9551" stroke="white" stroke-miterlimit="10" stroke-linecap="round" stroke-linejoin="round"/>
<path d="M47 20.8V27.445V28.4401" stroke="white" stroke-miterlimit="10" stroke-linecap="round" stroke-linejoin="round"/>
<path d="M24.5 22.915V25.13V29.375V29.845V29.9" stroke="white" stroke-miterlimit="10" stroke-linecap="round" stroke-linejoin="round"/>
<path d="M18 36.29V26.8V23.47" stroke="white" stroke-miterlimit="10" stroke-linecap="round" stroke-linejoin="round"/>
<path d="M52 34V33.665V20.845" stroke="white" stroke-miterlimit="10" stroke-linecap="round" stroke-linejoin="round"/>
<path d="M36.5 27.5V30.995V31.03" stroke="white" stroke-miterlimit="10" stroke-linecap="round" stroke-linejoin="round"/>
<path d="M46 45.2V37.365" stroke="white" stroke-miterlimit="10" stroke-linecap="round" stroke-linejoin="round"/>
<path d="M36.5 47.2549V39.4199" stroke="white" stroke-miterlimit="10" stroke-linecap="round" stroke-linejoin="round"/>
<path d="M26 47.635V39.38V39.355" stroke="white" stroke-miterlimit="10" stroke-linecap="round" stroke-linejoin="round"/>
<path d="M17 46.0451V37.7501V37.7151" stroke="white" stroke-miterlimit="10" stroke-linecap="round" stroke-linejoin="round"/>
<path d="M8.94501 25.9651V18.6001" stroke="white" stroke-miterlimit="10" stroke-linecap="round" stroke-linejoin="round"/>
<path d="M16 21.8001V14.7251" stroke="white" stroke-miterlimit="10" stroke-linecap="round" stroke-linejoin="round"/>
<path d="M9.5 43.0551V34.7251" stroke="white" stroke-miterlimit="10" stroke-linecap="round" stroke-linejoin="round"/>
<path d="M23.53 29.52V35.81" stroke="white" stroke-miterlimit="10" stroke-linecap="round" stroke-linejoin="round"/>
<path d="M31.515 31.03V36.945" stroke="white" stroke-miterlimit="10" stroke-linecap="round" stroke-linejoin="round"/>
<path d="M41.5 30.4099V36.0499" stroke="white" stroke-miterlimit="10" stroke-linecap="round" stroke-linejoin="round"/>
<path d="M49 27.2549V33.0649" stroke="white" stroke-miterlimit="10" stroke-linecap="round" stroke-linejoin="round"/>
<path d="M28.5 26.2251V30.7201V30.7251" stroke="white" stroke-miterlimit="10" stroke-linecap="round" stroke-linejoin="round"/>
<path d="M44 25.3149V29.7099" stroke="white" stroke-miterlimit="10" stroke-linecap="round" stroke-linejoin="round"/>
<path d="M37.5 22.585V26.935" stroke="white" stroke-miterlimit="10" stroke-linecap="round" stroke-linejoin="round"/>
<path d="M23.53 12.5149V17.0249" stroke="white" stroke-miterlimit="10" stroke-linecap="round" stroke-linejoin="round"/>
<path d="M31.5 11.7451V15.0451" stroke="white" stroke-miterlimit="10" stroke-linecap="round" stroke-linejoin="round"/>
<path d="M40 12.415V15.49" stroke="white" stroke-miterlimit="10" stroke-linecap="round" stroke-linejoin="round"/>
<path d="M47 20.175V14.77" stroke="white" stroke-miterlimit="10" stroke-linecap="round" stroke-linejoin="round"/>
<path d="M21.5 18.26V25.315" stroke="white" stroke-miterlimit="10" stroke-linecap="round" stroke-linejoin="round"/>
<path d="M28.465 15.49V19.32" stroke="white" stroke-miterlimit="10" stroke-linecap="round" stroke-linejoin="round"/>
<path d="M37 18.4349V15.0549V15.0449" stroke="white" stroke-miterlimit="10" stroke-linecap="round" stroke-linejoin="round"/>
<path d="M44 17.3201V21.8001" stroke="white" stroke-miterlimit="10" stroke-linecap="round" stroke-linejoin="round"/>
<path d="M31.5 19.1001V22.2801" stroke="white" stroke-miterlimit="10" stroke-linecap="round" stroke-linejoin="round"/>
<path d="M4.50098 26.7256V39.5471" stroke="white" stroke-miterlimit="10" stroke-linecap="round" stroke-linejoin="round"/>
</svg>
