<svg width="64" height="64" viewBox="0 0 64 64" fill="none" xmlns="http://www.w3.org/2000/svg">
<path d="M59.31 17.3952C59.65 17.9002 59.52 18.5902 59.015 18.9302L58.275 19.4252C57.88 19.6902 57.3455 19.5852 57.08 19.1902L56.77 18.7302L55.575 16.9602L55.265 16.4952C54.995 16.1002 55.1 15.5652 55.495 15.3002L56.2345 14.8052C56.74 14.4602 57.4245 14.5952 57.765 15.1002L59.31 17.3952Z" fill="#7AA9A6"/>
<path d="M52.47 6.41515C52.97 6.76015 53.1 7.44515 52.7545 7.95015L52.2495 8.68015C51.9795 9.07515 51.4445 9.17515 51.0545 8.90515L50.589 8.58515L48.8339 7.38015L48.3739 7.06515C47.9789 6.79515 47.8789 6.26015 48.1489 5.86515L48.6539 5.13515C48.9999 4.63015 49.6849 4.50515 50.1899 4.85015L52.47 6.41515Z" fill="#7AA9A6"/>
<path d="M47.1899 25.1902C47.2849 26.1452 47.3199 27.0952 47.3199 28.0152C47.3199 29.7252 46.8054 31.5602 45.9049 33.4202C45.5249 31.2952 44.8599 29.2652 43.9504 27.3752L44.4399 27.0452L46.3049 25.7902L47.1899 25.1902Z" fill="#7AA9A6"/>
<path d="M46.8349 22.8301L45.0999 24.0001L43.2349 25.2551L42.9304 25.4601C42.3399 24.4701 41.6804 23.5351 40.9604 22.6451V22.6401L42.1855 20.8551L43.4599 19.0001L44.4499 17.5601C45.6849 19.0001 46.4199 20.8551 46.8349 22.8301Z" fill="#7AA9A6"/>
<path d="M42.825 16.1153L41.685 17.7803L40.41 19.6353L39.48 20.9853C39.085 20.5803 38.685 20.1953 38.26 19.8253V19.8203C38.1655 18.0503 37.875 16.3403 37.4155 14.6953C37.4505 14.6953 37.4805 14.6953 37.51 14.6953C39.73 14.6953 41.47 15.2253 42.825 16.1153Z" fill="#7AA9A6"/>
<path d="M39.48 20.9852L38.235 22.8002H38.23C38.275 22.2452 38.295 21.6852 38.295 21.1202C38.295 20.6802 38.28 20.2552 38.26 19.8252C38.685 20.1952 39.085 20.5802 39.48 20.9852Z" fill="#7AA9A6"/>
<path d="M37.29 27.98L40.96 22.645C41.68 23.535 42.34 24.47 42.93 25.46C43.2945 26.08 43.64 26.72 43.95 27.375C44.8595 29.265 45.5245 31.295 45.9045 33.42C45.0245 35.245 43.785 37.095 42.305 38.875C41.475 34.935 39.6745 31.355 37.165 28.395C37.21 28.255 37.25 28.12 37.29 27.98Z" fill="#7AA9A6"/>
<path d="M38.26 19.8203V19.8253C38.28 20.2553 38.295 20.6803 38.295 21.1203C38.295 21.6853 38.275 22.2453 38.23 22.8003C38.11 24.5853 37.79 26.3203 37.29 27.9803C37.25 28.1203 37.21 28.2553 37.165 28.3953C36.585 30.2103 35.79 31.9353 34.81 33.5303V33.5353C34.1745 34.5703 33.47 35.5503 32.69 36.4753C30.805 35.2853 29.095 33.8403 27.615 32.1853C29.705 29.8553 31.34 27.1103 32.385 24.0903C33.2 21.7503 33.655 19.2403 33.69 16.6303C33.695 16.5153 33.695 16.3953 33.695 16.2803C33.695 15.9753 33.69 15.6703 33.6805 15.3703C34.7405 14.9603 35.9805 14.7053 37.4155 14.6953C37.875 16.3403 38.165 18.0503 38.26 19.8203Z" fill="#7AA9A6"/>
<path d="M42.3049 38.875C42.0399 39.195 41.7744 39.51 41.4949 39.82C38.3049 39.295 35.3194 38.135 32.6899 36.475C33.4704 35.55 34.1749 34.57 34.8099 33.535V33.53C35.7899 31.935 36.5849 30.21 37.1649 28.395C39.6749 31.355 41.4749 34.935 42.3049 38.875Z" fill="#7AA9A6"/>
<path d="M19.365 38.155C20.745 39.955 22.38 41.55 24.21 42.89C26.875 44.84 29.955 46.25 33.295 46.96C31.36 48.255 29.41 49.31 27.595 50.015C26.295 49.51 24.93 48.825 23.545 48.005C22.94 47.645 22.335 47.26 21.725 46.85C21.125 46.44 20.52 46.01 19.925 45.555C19.77 45.185 19.635 44.815 19.505 44.435C18.865 42.585 18.45 40.625 18.29 38.595C18.235 37.96 18.21 37.32 18.21 36.67C18.21 36.62 18.21 36.57 18.21 36.52C18.575 37.08 18.96 37.625 19.365 38.155Z" fill="#7AA9A6"/>
<path d="M28.785 40.18C31.465 41.86 34.5 43.02 37.755 43.53C36.32 44.79 34.81 45.95 33.295 46.96C29.955 46.25 26.875 44.84 24.21 42.89C22.38 41.55 20.745 39.955 19.365 38.155C18.96 37.625 18.575 37.08 18.21 36.52C18.215 35.895 18.245 35.28 18.295 34.665C18.45 32.755 18.835 30.905 19.425 29.145C19.905 30.31 20.48 31.425 21.14 32.485C21.86 33.655 22.68 34.755 23.59 35.775C25.095 37.48 26.845 38.965 28.785 40.18Z" fill="#7AA9A6"/>
<path d="M28.47 20.1651C28.345 20.7001 28.205 21.2251 28.045 21.7451C27.31 24.1251 26.21 26.3501 24.81 28.3451C23.835 26.6901 23.055 24.9001 22.5 23.0201C23.095 22.1651 23.745 21.3551 24.445 20.5901C24.945 20.0401 25.475 19.5151 26.025 19.0151C26.66 19.9401 27.065 20.8301 27.305 21.4551C27.51 21.9951 27.595 22.3351 27.595 22.3351C27.595 22.3351 27.66 22.0751 27.81 21.6501C27.95 21.2651 28.165 20.7501 28.47 20.1651Z" fill="#7AA9A6"/>
<path d="M33.68 15.3701C33.69 15.6701 33.6945 15.9751 33.6945 16.2801C33.6945 16.3951 33.6945 16.5151 33.6895 16.6301C33.6545 19.2401 33.2 21.7501 32.3845 24.0901C31.3395 27.1101 29.7045 29.8551 27.6145 32.1851C26.5594 31.0051 25.6144 29.7201 24.8094 28.3451C26.2094 26.3501 27.3095 24.1251 28.0445 21.7451C28.2045 21.2251 28.3445 20.7001 28.4695 20.1651C29.1845 18.8151 30.4045 17.1251 32.3895 15.9801C32.79 15.7501 33.215 15.5451 33.68 15.3701Z" fill="#7AA9A6"/>
<path d="M41.4951 39.82C40.3451 41.115 39.0801 42.365 37.7551 43.53C34.5001 43.02 31.4651 41.86 28.7851 40.18C26.8451 38.965 25.0951 37.48 23.5901 35.775C22.6801 34.755 21.86 33.655 21.14 32.485C20.48 31.425 19.905 30.31 19.425 29.145C20.15 26.945 21.195 24.885 22.5 23.02C23.0551 24.9 23.835 26.69 24.81 28.345C25.615 29.72 26.5601 31.005 27.6151 32.185C29.0951 33.84 30.805 35.285 32.69 36.475C35.3201 38.135 38.3051 39.295 41.4951 39.82Z" fill="#7AA9A6"/>
<path d="M26.0249 19.0153C25.4749 19.5153 24.9449 20.0403 24.4449 20.5903C23.7449 21.3553 23.0949 22.1653 22.4999 23.0203C21.1949 24.8853 20.1499 26.9453 19.4249 29.1453C18.8349 30.9053 18.4499 32.7553 18.2949 34.6653C18.2449 35.2803 18.2149 35.8953 18.2099 36.5203C18.2099 36.5703 18.2099 36.6203 18.2099 36.6703C18.2099 37.3203 18.2349 37.9603 18.2899 38.5953C18.4499 40.6253 18.8649 42.5853 19.5049 44.4353C19.6349 44.8153 19.7699 45.1853 19.9249 45.5553C19.5099 45.2453 19.1049 44.9253 18.6999 44.5953C18.6499 44.5553 18.6049 44.5203 18.5549 44.4803C17.9799 44.0103 17.4149 43.5203 16.8649 43.0203C16.4749 42.6653 16.0949 42.3103 15.7199 41.9453C15.4549 41.1703 15.2249 40.3753 15.0399 39.5653C14.8199 38.6203 14.6599 37.6503 14.5599 36.6653C14.4799 35.8503 14.4349 35.0303 14.4349 34.1953C14.4349 32.3803 14.6349 30.6103 15.0199 28.9153C15.5649 26.5053 16.4749 24.2353 17.6899 22.1653C18.1349 21.4003 18.6249 20.6603 19.1499 19.9553C19.8799 18.9753 20.6849 18.0503 21.5549 17.1953C21.9699 16.7853 22.4049 16.3903 22.8499 16.0103C24.2749 16.8403 25.2999 17.9553 26.0249 19.0153Z" fill="#7AA9A6"/>
<path d="M18.165 14.7053C19.455 14.7553 20.58 15.0053 21.555 15.3853C22.02 15.5653 22.45 15.7803 22.85 16.0103C22.405 16.3903 21.97 16.7853 21.555 17.1953C20.685 18.0503 19.88 18.9753 19.15 19.9553C18.625 20.6603 18.135 21.4003 17.69 22.1653C16.475 24.2353 15.565 26.5053 15.02 28.9153C14.635 30.6103 14.435 32.3803 14.435 34.1953C14.435 35.0303 14.48 35.8503 14.56 36.6653C14.66 37.6503 14.82 38.6203 15.04 39.5653C15.225 40.3753 15.455 41.1703 15.72 41.9453C15.015 41.2553 14.34 40.5503 13.7 39.8253C13.055 39.1003 12.445 38.3603 11.885 37.6153C11.635 37.2803 11.39 36.9403 11.16 36.6003C10.825 35.0253 10.655 33.3953 10.655 31.7203C10.655 27.7053 11.645 23.9253 13.4 20.6053C13.92 19.6153 14.51 18.6703 15.16 17.7703C15.95 16.6703 16.835 15.6403 17.805 14.6953C17.925 14.6953 18.045 14.7003 18.165 14.7053Z" fill="#7AA9A6"/>
<path d="M17.805 14.6953C16.835 15.6403 15.95 16.6703 15.16 17.7703C14.51 18.6703 13.92 19.6153 13.4 20.6053C11.645 23.9253 10.655 27.7053 10.655 31.7203C10.655 33.3953 10.825 35.0253 11.16 36.6003C9.13999 33.6853 7.86499 30.6903 7.86499 28.0153C7.86499 26.1853 8.01499 24.2203 8.44999 22.3853C9.12499 19.5753 10.48 17.0503 13.06 15.7103C13.61 15.4253 14.21 15.1953 14.875 15.0203C14.88 15.0203 14.88 15.0203 14.885 15.0203C15.275 14.9203 15.69 14.8403 16.125 14.7903C16.615 14.7253 17.13 14.6953 17.68 14.6953C17.72 14.6953 17.76 14.6953 17.805 14.6953Z" fill="#7AA9A6"/>
<path d="M48.835 7.38013C48.765 7.46513 48.7 7.55013 48.64 7.64013L42.825 16.1151L41.685 17.7801L40.41 19.6351L39.48 20.9851L38.235 22.8001" stroke="white" stroke-miterlimit="10" stroke-linecap="round" stroke-linejoin="round"/>
<path d="M50.59 8.58521V8.59021C50.54 8.68021 50.48 8.7702 50.42 8.8602L44.45 17.5602L43.46 19.0002L42.185 20.8552L40.96 22.6402V22.6452L37.29 27.9802" stroke="white" stroke-miterlimit="10" stroke-linecap="round" stroke-linejoin="round"/>
<path d="M21.725 46.8501L15.365 56.1151C14.715 57.0601 14.395 58.1951 14.455 59.3451C15.545 58.9901 16.49 58.2801 17.14 57.3351L23.545 48.0051" stroke="white" stroke-miterlimit="10" stroke-linecap="round" stroke-linejoin="round"/>
<path d="M48.835 7.38015L48.375 7.06515C47.98 6.79515 47.88 6.26015 48.15 5.86515L48.655 5.13515C49 4.63015 49.685 4.50515 50.19 4.85015L52.4705 6.41515C52.9705 6.76015 53.1005 7.44515 52.755 7.95015L52.25 8.68015C51.98 9.07515 51.445 9.17515 51.055 8.90515L50.5895 8.58515L48.835 7.38015Z" stroke="white" stroke-miterlimit="10" stroke-linecap="round" stroke-linejoin="round"/>
<path d="M16.865 43.02L6.535 49.98C5.58 50.62 4.865 51.56 4.5 52.645C5.645 52.715 6.785 52.405 7.735 51.765L18.555 44.48" stroke="white" stroke-miterlimit="10" stroke-linecap="round" stroke-linejoin="round"/>
<path d="M42.9301 25.4602L43.2346 25.2552L45.1001 24.0002L46.8351 22.8302L55.3001 17.1302C55.3906 17.0702 55.4801 17.0102 55.5756 16.9602" stroke="white" stroke-miterlimit="10" stroke-linecap="round" stroke-linejoin="round"/>
<path d="M43.95 27.3752L44.4394 27.0452L46.3045 25.7902L47.1894 25.1902L56.5044 18.9202C56.5949 18.8602 56.6844 18.7952 56.7649 18.7302" stroke="white" stroke-miterlimit="10" stroke-linecap="round" stroke-linejoin="round"/>
<path d="M55.575 16.9602L55.265 16.4952C54.995 16.1002 55.1 15.5652 55.495 15.3002L56.2345 14.8052C56.74 14.4602 57.4245 14.5952 57.765 15.1002L59.31 17.3952C59.65 17.9002 59.52 18.5902 59.015 18.9302L58.275 19.4252C57.88 19.6902 57.3455 19.5852 57.08 19.1902L56.77 18.7302L55.575 16.9602Z" stroke="white" stroke-miterlimit="10" stroke-linecap="round" stroke-linejoin="round"/>
<path d="M44.45 17.5601C45.685 19.0001 46.4194 20.8551 46.8349 22.8301" stroke="white" stroke-miterlimit="10" stroke-linecap="round" stroke-linejoin="round"/>
<path d="M47.19 25.1903C47.285 26.1453 47.32 27.0953 47.32 28.0153C47.32 29.7253 46.8055 31.5603 45.905 33.4203C45.025 35.2453 43.7855 37.0953 42.3055 38.8753C42.0405 39.1953 41.775 39.5103 41.4955 39.8203C40.3455 41.1153 39.0805 42.3653 37.7555 43.5303C36.3205 44.7903 34.8105 45.9503 33.2955 46.9603C31.3605 48.2553 29.4105 49.3103 27.5955 50.0153C26.2955 49.5103 24.9305 48.8253 23.5455 48.0053C22.9405 47.6453 22.3355 47.2603 21.7255 46.8503C21.1255 46.4403 20.5205 46.0103 19.9255 45.5553C19.5105 45.2453 19.1055 44.9253 18.7005 44.5953C18.6505 44.5553 18.6055 44.5203 18.5555 44.4803C17.9805 44.0103 17.4155 43.5203 16.8655 43.0203C16.4755 42.6653 16.0955 42.3103 15.7205 41.9453C15.0155 41.2553 14.3405 40.5503 13.7005 39.8253C13.0555 39.1003 12.4455 38.3603 11.8855 37.6153C11.6355 37.2803 11.3905 36.9403 11.1605 36.6003C9.14048 33.6853 7.86548 30.6903 7.86548 28.0153C7.86548 26.1853 8.01548 24.2203 8.45048 22.3853C9.12548 19.5753 10.4805 17.0503 13.0605 15.7103C13.6105 15.4253 14.2105 15.1953 14.8755 15.0203C14.8805 15.0203 14.8805 15.0203 14.8855 15.0203C15.2755 14.9203 15.6905 14.8403 16.1255 14.7903C16.6155 14.7253 17.1305 14.6953 17.6805 14.6953C17.7205 14.6953 17.7605 14.6953 17.8055 14.6953C17.9255 14.6953 18.0455 14.7003 18.1655 14.7053C19.4555 14.7553 20.5805 15.0053 21.5555 15.3853C22.0205 15.5653 22.4505 15.7803 22.8505 16.0103C24.2755 16.8403 25.3005 17.9553 26.0255 19.0153C26.6605 19.9403 27.0655 20.8303 27.3055 21.4553C27.5105 21.9953 27.5955 22.3353 27.5955 22.3353C27.5955 22.3353 27.6605 22.0753 27.8105 21.6503C27.9505 21.2653 28.1655 20.7503 28.4705 20.1653C29.1855 18.8153 30.4055 17.1253 32.3905 15.9803C32.7905 15.7503 33.2155 15.5453 33.681 15.3703C34.741 14.9603 35.981 14.7053 37.416 14.6953C37.451 14.6953 37.481 14.6953 37.5105 14.6953C39.7305 14.6953 41.471 15.2253 42.826 16.1153" stroke="white" stroke-miterlimit="10" stroke-linecap="round" stroke-linejoin="round"/>
<path d="M11.16 36.6003C10.825 35.0253 10.655 33.3953 10.655 31.7203C10.655 27.7053 11.645 23.9253 13.4 20.6053C13.92 19.6153 14.51 18.6703 15.16 17.7703C15.95 16.6703 16.835 15.6403 17.805 14.6953" stroke="white" stroke-miterlimit="10" stroke-linecap="round" stroke-linejoin="round"/>
<path d="M33.295 46.96C29.955 46.25 26.875 44.84 24.21 42.89C22.38 41.55 20.745 39.955 19.365 38.155C18.96 37.625 18.575 37.08 18.21 36.52" stroke="white" stroke-miterlimit="10" stroke-linecap="round" stroke-linejoin="round"/>
<path d="M19.425 29.145C19.905 30.31 20.48 31.425 21.14 32.485C21.86 33.655 22.68 34.755 23.59 35.775C25.095 37.48 26.845 38.965 28.785 40.18C31.465 41.86 34.5 43.02 37.755 43.53" stroke="white" stroke-miterlimit="10" stroke-linecap="round" stroke-linejoin="round"/>
<path d="M41.495 39.82C38.305 39.295 35.3195 38.135 32.69 36.475C30.805 35.285 29.095 33.84 27.615 32.185C26.56 31.005 25.615 29.72 24.81 28.345C23.835 26.69 23.055 24.9 22.5 23.02" stroke="white" stroke-miterlimit="10" stroke-linecap="round" stroke-linejoin="round"/>
<path d="M38.2599 19.8252C38.2799 20.2552 38.2949 20.6802 38.2949 21.1202C38.2949 21.6852 38.2749 22.2452 38.2299 22.8002C38.1099 24.5852 37.7899 26.3202 37.2899 27.9802C37.2499 28.1202 37.2099 28.2552 37.1649 28.3952C36.5849 30.2102 35.7899 31.9352 34.8099 33.5302V33.5352C34.1744 34.5702 33.4699 35.5502 32.6899 36.4752" stroke="white" stroke-miterlimit="10" stroke-linecap="round" stroke-linejoin="round"/>
<path d="M37.415 14.6953C37.875 16.3403 38.165 18.0503 38.2595 19.8203" stroke="white" stroke-miterlimit="10" stroke-linecap="round" stroke-linejoin="round"/>
<path d="M33.68 15.3701C33.69 15.6701 33.6945 15.9751 33.6945 16.2801C33.6945 16.3951 33.6945 16.5151 33.6895 16.6301C33.6545 19.2401 33.2 21.7501 32.3845 24.0901C31.3395 27.1101 29.7045 29.8551 27.6145 32.1851" stroke="white" stroke-miterlimit="10" stroke-linecap="round" stroke-linejoin="round"/>
<path d="M28.4701 20.165C28.3451 20.7 28.2051 21.225 28.0451 21.745C27.3101 24.125 26.2101 26.35 24.8101 28.345" stroke="white" stroke-miterlimit="10" stroke-linecap="round" stroke-linejoin="round"/>
<path d="M15.7201 41.9453C15.4551 41.1703 15.2251 40.3753 15.0401 39.5653C14.8201 38.6203 14.6601 37.6503 14.5601 36.6653C14.4801 35.8503 14.4351 35.0303 14.4351 34.1953C14.4351 32.3803 14.6351 30.6103 15.0201 28.9153C15.5651 26.5053 16.4751 24.2353 17.6901 22.1653C18.1351 21.4003 18.6251 20.6603 19.1501 19.9553C19.8801 18.9753 20.6851 18.0503 21.5551 17.1953C21.9701 16.7853 22.4051 16.3903 22.8501 16.0103" stroke="white" stroke-miterlimit="10" stroke-linecap="round" stroke-linejoin="round"/>
<path d="M19.925 45.5551C19.77 45.1851 19.635 44.8151 19.505 44.4351C18.865 42.5851 18.45 40.6251 18.29 38.5951C18.235 37.9601 18.21 37.3201 18.21 36.6701C18.21 36.6201 18.21 36.5701 18.21 36.5201C18.215 35.8951 18.245 35.2801 18.295 34.6651C18.45 32.7551 18.835 30.9051 19.425 29.1451C20.15 26.9451 21.195 24.8851 22.5 23.0201C23.095 22.1651 23.745 21.3551 24.445 20.5901C24.945 20.0401 25.475 19.5151 26.025 19.0151" stroke="white" stroke-miterlimit="10" stroke-linecap="round" stroke-linejoin="round"/>
<path d="M37.165 28.395C39.675 31.355 41.475 34.935 42.305 38.875" stroke="white" stroke-miterlimit="10" stroke-linecap="round" stroke-linejoin="round"/>
<path d="M45.9049 33.4201C45.5249 31.2951 44.8599 29.2651 43.9504 27.3751C43.6404 26.7201 43.2949 26.0801 42.9304 25.4601C42.3399 24.4701 41.6804 23.5351 40.9604 22.6451L40.9554 22.6401" stroke="white" stroke-miterlimit="10" stroke-linecap="round" stroke-linejoin="round"/>
<path d="M39.48 20.9853C39.085 20.5803 38.685 20.1953 38.26 19.8253V19.8203H38.255" stroke="white" stroke-miterlimit="10" stroke-linecap="round" stroke-linejoin="round"/>
<path d="M38 43.5H47C48.655 43.5 50 44.845 50 46.5C50 48.155 48.655 49.5 47 49.5H43C41.345 49.5 40 50.845 40 52.5C40 54.155 41.345 55.5 43 55.5H51.5" stroke="white" stroke-miterlimit="10" stroke-linecap="round" stroke-linejoin="round"/>
</svg>
